SplineFontDB: 3.2
FontName: TF2CSecondary
FullName: TF2C Secondary
FamilyName: TF2C Secondary
Weight: Regular
Copyright: 
Version: 2.000
ItalicAngle: 0
UnderlinePosition: -100
UnderlineWidth: 50
Ascent: 750
Descent: 250
InvalidEm: 0
sfntRevision: 0x00020000
LayerCount: 2
Layer: 0 1 "Arri+AOgA-re" 1
Layer: 1 1 "Avant" 0
XUID: [1021 514 -2062894156 4244]
StyleMap: 0x0040
FSType: 0
OS2Version: 3
OS2_WeightWidthSlopeOnly: 0
OS2_UseTypoMetrics: 0
CreationTime: 1263062752
ModificationTime: 1645567985
PfmFamily: 17
TTFWeight: 400
TTFWidth: 5
LineGap: 0
VLineGap: 0
Panose: 2 0 0 0 0 0 0 0 0 0
OS2TypoAscent: 750
OS2TypoAOffset: 0
OS2TypoDescent: -250
OS2TypoDOffset: 0
OS2TypoLinegap: 0
OS2WinAscent: 881
OS2WinAOffset: 0
OS2WinDescent: 238
OS2WinDOffset: 0
HheadAscent: 750
HheadAOffset: 0
HheadDescent: -250
HheadDOffset: 0
OS2SubXSize: 700
OS2SubYSize: 650
OS2SubXOff: 0
OS2SubYOff: 140
OS2SupXSize: 700
OS2SupYSize: 650
OS2SupXOff: 0
OS2SupYOff: 477
OS2StrikeYSize: 50
OS2StrikeYPos: 250
OS2CapHeight: 700
OS2XHeight: 376
OS2Vendor: 'PYRS'
OS2CodePages: 00000001.00000000
OS2UnicodeRanges: 80000027.0000004a.00000000.00000000
Lookup: 1 0 0 "dotless" { "dotless-1"  } []
Lookup: 6 0 0 "chain" { "chain-1"  } ['ccmp' ('DFLT' <'dflt' > 'cyrl' <'dflt' > 'grek' <'dflt' > 'latn' <'dflt' > ) ]
Lookup: 258 0 0 "kern" { "kern" [150,15,0] } ['kern' ('latn' <'dflt' > ) ]
Lookup: 260 0 0 "mark" { "mark-1"  } ['mark' ('DFLT' <'dflt' > 'cyrl' <'dflt' > 'grek' <'dflt' > 'latn' <'dflt' > ) ]
MarkAttachClasses: 1
DEI: 91125
ChainSub2: coverage "chain-1" 0 0 0 1
 1 0 1
  Coverage: 3 i j
  FCoverage: 117 gravecomb acutecomb uni0302 tildecomb uni0304 uni0306 uni0307 uni0308 uni030A uni030B uni030C uni0312 uni0313 uni0344
 1
  SeqLookup: 0 "dotless"
EndFPST
TtTable: prep
PUSHW_1
 20
CALL
PUSHW_1
 10
CALL
PUSHW_1
 0
CALL
EndTTInstrs
TtTable: fpgm
PUSHW_1
 0
FDEF
MPPEM
PUSHW_1
 9
LT
IF
PUSHB_2
 1
 1
INSTCTRL
EIF
PUSHW_1
 511
SCANCTRL
PUSHW_1
 68
SCVTCI
PUSHW_2
 9
 3
SDS
SDB
ENDF
PUSHW_1
 1
FDEF
DUP
DUP

StartChar: exclam
Encoding: 33 33 1
Width: 201
GlyphClass: 2
Flags: W
LayerCount: 2
Fore
SplineSet
57 113 m 128,-1,1
 74 116 74 116 88 104.5 c 128,-1,2
 102 93 102 93 104 73 c 0,3,4
 108 53 108 53 99 37 c 128,-1,5
 90 21 90 21 73 17 c 128,-1,6
 56 13 56 13 43 24.5 c 128,-1,7
 30 36 30 36 25 56 c 0,8,9
 23 77 23 77 31.5 93.5 c 128,-1,0
 40 110 40 110 57 113 c 128,-1,1
83 176 m 1,10,-1
 40 184 l 1,11,-1
 67 732 l 1,12,-1
 155 721 l 1,13,-1
 83 176 l 1,10,-1
EndSplineSet
Validated: 33
EndChar

StartChar: quotedbl
Encoding: 34 34 2
Width: 224
GlyphClass: 2
Flags: W
LayerCount: 2
Fore
SplineSet
169 683 m 1,0,-1
 149 531 l 1,1,-1
 109 531 l 1,2,-1
 97 701 l 1,3,-1
 169 683 l 1,0,-1
4 679 m 1,4,-1
 79 683 l 1,5,-1
 79 496 l 1,6,-1
 39 496 l 1,7,-1
 4 679 l 1,4,-1
EndSplineSet
Validated: 1
EndChar

StartChar: numbersign
Encoding: 35 35 3
Width: 400
GlyphClass: 2
Flags: W
LayerCount: 2
Fore
SplineSet
237 363 m 1,0,-1
 242 416 l 1,1,-1
 136 409 l 1,2,-1
 138 359 l 1,3,-1
 237 363 l 1,0,-1
352 424 m 1,4,-1
 286 420 l 1,5,-1
 277 360 l 1,6,-1
 336 364 l 1,7,-1
 331 322 l 1,8,-1
 269 322 l 1,9,-1
 249 216 l 1,10,-1
 217 217 l 1,11,-1
 231 320 l 1,12,-1
 139 319 l 1,13,-1
 142 211 l 1,14,-1
 110 208 l 1,15,-1
 103 318 l 1,16,-1
 17 311 l 1,17,-1
 21 358 l 1,18,-1
 101 359 l 1,19,-1
 99 408 l 1,20,-1
 0 401 l 1,21,-1
 0 448 l 1,22,-1
 99 450 l 1,23,-1
 93 551 l 1,24,-1
 135 547 l 1,25,-1
 135 450 l 1,26,-1
 249 452 l 1,27,-1
 260 523 l 1,28,-1
 302 520 l 1,29,-1
 289 453 l 1,30,-1
 358 453 l 1,31,-1
 352 424 l 1,4,-1
EndSplineSet
Validated: 1
EndChar

StartChar: dollar
Encoding: 36 36 4
Width: 273
GlyphClass: 2
Flags: W
LayerCount: 2
Fore
SplineSet
183 273 m 0,0,1
 185 300 185 300 168.5 318 c 128,-1,2
 152 336 152 336 128 341 c 1,3,-1
 122 201 l 1,4,5
 152 212 152 212 161 224 c 128,-1,6
 170 236 170 236 175.5 246 c 128,-1,7
 181 256 181 256 183 273 c 0,0,1
54 432 m 0,8,9
 54 424 54 424 63 413.5 c 128,-1,10
 72 403 72 403 87 398 c 1,11,-1
 86 497 l 1,12,13
 73 486 73 486 63.5 470.5 c 128,-1,14
 54 455 54 455 54 432 c 0,8,9
129 385 m 1,15,16
 147 381 147 381 165.5 375.5 c 128,-1,17
 184 370 184 370 200.5 355 c 128,-1,18
 217 340 217 340 226.5 322 c 128,-1,19
 236 304 236 304 235 267 c 1,20,21
 224 221 224 221 191.5 190 c 128,-1,22
 159 159 159 159 121 150 c 1,23,-1
 115 80 l 1,24,-1
 86 77 l 1,25,-1
 89 141 l 1,26,27
 67 137 67 137 41 135 c 0,28,29
 30 134 30 134 21 134 c 1,30,-1
 22 198 l 1,31,32
 33 195 33 195 53.5 193 c 128,-1,33
 74 191 74 191 90 194 c 1,34,-1
 87 358 l 1,35,36
 72 364 72 364 57 370 c 128,-1,37
 42 376 42 376 30 385 c 128,-1,38
 18 394 18 394 11 403.5 c 128,-1,39
 4 413 4 413 4 425 c 0,40,41
 0 462 0 462 20 495 c 128,-1,42
 40 528 40 528 86 548 c 1,43,-1
 86 626 l 1,44,-1
 140 626 l 1,45,-1
 137 562 l 1,46,47
 143 563 143 563 153 564.5 c 128,-1,48
 163 566 163 566 172 567 c 2,49,-1
 194 567 l 1,50,-1
 190 518 l 1,51,52
 179 518 179 518 162 518 c 0,53,54
 142 515 142 515 137 514 c 1,55,-1
 129 385 l 1,15,16
EndSplineSet
Validated: 33
EndChar

StartChar: percent
Encoding: 37 37 5
Width: 381
GlyphClass: 2
Flags: W
LayerCount: 2
Fore
SplineSet
306 560 m 1,0,-1
 108 121 l 1,1,-1
 58 139 l 1,2,-1
 277 572 l 1,3,-1
 306 560 l 1,0,-1
94 491 m 0,4,5
 80 493 80 493 68.5 487 c 128,-1,6
 57 481 57 481 51.5 472 c 128,-1,7
 46 463 46 463 50 454 c 128,-1,8
 54 445 54 445 72 442 c 0,9,10
 89 439 89 439 99 445.5 c 128,-1,11
 109 452 109 452 112 461.5 c 128,-1,12
 115 471 115 471 110.5 480 c 128,-1,13
 106 489 106 489 94 491 c 0,4,5
79 416 m 0,14,15
 43 415 43 415 29 432 c 128,-1,16
 15 449 15 449 20.5 469.5 c 128,-1,17
 26 490 26 490 47.5 507.5 c 128,-1,18
 69 525 69 525 103 524 c 0,19,20
 124 524 124 524 134.5 507.5 c 128,-1,21
 145 491 145 491 142.5 471 c 128,-1,22
 140 451 140 451 124.5 434 c 128,-1,23
 109 417 109 417 79 416 c 0,14,15
265 218 m 0,24,25
 287 219 287 219 299.5 233.5 c 128,-1,26
 312 248 312 248 314.5 265.5 c 128,-1,27
 317 283 317 283 308.5 296 c 128,-1,28
 300 309 300 309 280 307 c 0,29,30
 260 304 260 304 246.5 289.5 c 128,-1,31
 233 275 233 275 229.5 259.5 c 128,-1,32
 226 244 226 244 234 231 c 128,-1,33
 242 218 242 218 265 218 c 0,24,25
280 343 m 0,34,35
 311 343 311 343 325 318 c 128,-1,36
 339 293 339 293 336.5 262.5 c 128,-1,37
 334 232 334 232 315 207 c 128,-1,38
 296 182 296 182 261 182 c 0,39,40
 237 182 237 182 223.5 194 c 128,-1,41
 210 206 210 206 205.5 224 c 128,-1,42
 201 242 201 242 204 263 c 128,-1,43
 207 284 207 284 217.5 302 c 128,-1,44
 228 320 228 320 243.5 331.5 c 128,-1,45
 259 343 259 343 280 343 c 0,34,35
EndSplineSet
Validated: 33
EndChar

StartChar: ampersand
Encoding: 38 38 6
Width: 470
GlyphClass: 2
Flags: W
LayerCount: 2
Fore
SplineSet
114 405 m 1,0,1
 118 410 118 410 120 415 c 0,2,3
 138 444 138 444 150 466.5 c 128,-1,4
 162 489 162 489 161 502 c 0,5,6
 161 520 161 520 152.5 532 c 128,-1,7
 144 544 144 544 132 550 c 128,-1,8
 120 556 120 556 105 556 c 128,-1,9
 90 556 90 556 76 551 c 1,10,11
 61 512 61 512 80 466 c 0,12,13
 93 436 93 436 114 405 c 1,0,1
348 186 m 1,14,15
 373 168 373 168 392 155 c 0,16,17
 420 136 420 136 421 136 c 1,18,-1
 364 65 l 1,19,20
 333 91 333 91 304 118 c 1,21,22
 300 113 300 113 294 108 c 0,23,24
 271 87 271 87 238 74.5 c 128,-1,25
 205 62 205 62 160 62 c 128,-1,26
 115 62 115 62 84 71.5 c 128,-1,27
 53 81 53 81 34.5 98 c 128,-1,28
 16 115 16 115 8 138.5 c 128,-1,29
 0 162 0 162 0 189 c 0,30,31
 0 207 0 207 12 234 c 128,-1,32
 24 261 24 261 42.5 291.5 c 128,-1,33
 61 322 61 322 82 354 c 0,34,35
 84 358 84 358 87 361 c 1,36,37
 80 371 80 371 74 382 c 0,38,39
 49 421 49 421 33 460 c 128,-1,40
 17 499 17 499 16 535 c 0,41,42
 16 568 16 568 25 585.5 c 128,-1,43
 34 603 34 603 44.5 611 c 128,-1,44
 55 619 55 619 64.5 620 c 128,-1,45
 74 621 74 621 75 621 c 0,46,47
 78 622 78 622 92.5 618.5 c 128,-1,48
 107 615 107 615 126 605 c 128,-1,49
 145 595 145 595 165 578.5 c 128,-1,50
 185 562 185 562 197 537 c 0,51,52
 206 517 206 517 200.5 493.5 c 128,-1,53
 195 470 195 470 181.5 443 c 128,-1,54
 168 416 168 416 149 386 c 0,55,56
 144 379 144 379 140 372 c 1,57,58
 178 326 178 326 226 284 c 0,59,60
 265 250 265 250 300 222 c 1,61,62
 315 264 315 264 316 325 c 1,63,-1
 244 325 l 1,64,-1
 241 370 l 1,65,-1
 376 365 l 1,66,67
 379 280 379 280 358 213 c 0,68,69
 354 199 354 199 348 186 c 1,14,15
113 324 m 1,70,71
 113 324 113 324 112 324 c 0,72,73
 95 292 95 292 82 258 c 128,-1,74
 69 224 69 224 67 189 c 1,75,76
 70 163 70 163 78.5 146 c 128,-1,77
 87 129 87 129 99 119 c 128,-1,78
 111 109 111 109 127 105 c 128,-1,79
 143 101 143 101 161 101 c 128,-1,80
 179 101 179 101 205 111 c 128,-1,81
 231 121 231 121 256 146 c 0,82,83
 260 151 260 151 264 156 c 1,84,85
 227 192 227 192 193 229 c 0,86,87
 161 264 161 264 130 303 c 0,88,89
 121 314 121 314 113 324 c 1,70,71
421 136 m 1,90,91
 421 136 421 136 421 136 c 1,92,-1
 421 136 l 1,90,91
EndSplineSet
Validated: 33
EndChar

StartChar: quotesingle
Encoding: 39 39 7
Width: 134
GlyphClass: 2
Flags: W
LayerCount: 2
Fore
SplineSet
69 541 m 1,0,-1
 25 541 l 1,1,-1
 25 752 l 1,2,-1
 109 749 l 1,3,-1
 69 541 l 1,0,-1
EndSplineSet
Validated: 1
EndChar

StartChar: parenleft
Encoding: 40 40 8
Width: 271
GlyphClass: 2
Flags: W
LayerCount: 2
Fore
SplineSet
224 57 m 1,0,-1
 188 0 l 1,1,2
 162 20 162 20 135 49 c 0,3,4
 112 74 112 74 84.5 112 c 128,-1,5
 57 150 57 150 32 203 c 0,6,7
 14 241 14 241 17.5 291.5 c 128,-1,8
 21 342 21 342 37 396.5 c 128,-1,9
 53 451 53 451 77 504 c 128,-1,10
 101 557 101 557 125 599.5 c 128,-1,11
 149 642 149 642 167.5 669.5 c 128,-1,12
 186 697 186 697 190 700 c 1,13,-1
 217 681 l 1,14,15
 176 619 176 619 145 552 c 0,16,17
 132 523 132 523 119.5 491 c 128,-1,18
 107 459 107 459 98.5 425.5 c 128,-1,19
 90 392 90 392 86 357.5 c 128,-1,20
 82 323 82 323 85 290 c 0,21,22
 90 231 90 231 112.5 187.5 c 128,-1,23
 135 144 135 144 160 115 c 0,24,25
 189 81 189 81 224 57 c 1,0,-1
EndSplineSet
Validated: 33
EndChar

StartChar: parenright
Encoding: 41 41 9
Width: 260
GlyphClass: 2
Flags: W
LayerCount: 2
Fore
SplineSet
0 648 m 1,0,-1
 36 705 l 1,1,2
 62 685 62 685 89 656 c 0,3,4
 112 631 112 631 139 593 c 128,-1,5
 166 555 166 555 192 502 c 0,6,7
 210 464 210 464 206.5 413.5 c 128,-1,8
 203 363 203 363 187 308.5 c 128,-1,9
 171 254 171 254 147 201 c 128,-1,10
 123 148 123 148 99 105.5 c 128,-1,11
 75 63 75 63 56.5 35.5 c 128,-1,12
 38 8 38 8 34 5 c 1,13,-1
 7 24 l 1,14,15
 48 86 48 86 79 153 c 0,16,17
 92 181 92 181 104 213 c 128,-1,18
 116 245 116 245 125 279 c 128,-1,19
 134 313 134 313 138 347.5 c 128,-1,20
 142 382 142 382 139 415 c 0,21,22
 133 473 133 473 111 517 c 128,-1,23
 89 561 89 561 64 590 c 0,24,25
 35 624 35 624 0 648 c 1,0,-1
EndSplineSet
Validated: 33
EndChar

StartChar: asterisk
Encoding: 42 42 10
Width: 320
GlyphClass: 2
Flags: W
LayerCount: 2
Fore
SplineSet
267 518 m 1,0,-1
 222 486 l 1,1,-1
 151 584 l 1,2,-1
 104 486 l 1,3,-1
 88 495 l 1,4,-1
 115 588 l 1,5,-1
 12 550 l 1,6,-1
 3 582 l 1,7,-1
 121 621 l 1,8,-1
 51 710 l 1,9,-1
 71 724 l 1,10,-1
 140 651 l 1,11,-1
 167 751 l 1,12,-1
 209 732 l 1,13,-1
 167 639 l 1,14,-1
 247 664 l 1,15,-1
 257 650 l 1,16,-1
 172 611 l 1,17,-1
 267 518 l 1,0,-1
EndSplineSet
Validated: 1
EndChar

StartChar: plus
Encoding: 43 43 11
Width: 296
GlyphClass: 2
Flags: W
LayerCount: 2
Fore
SplineSet
254 309 m 1,0,-1
 155 311 l 1,1,-1
 151 168 l 1,2,-1
 120 168 l 1,3,-1
 117 311 l 1,4,-1
 0 311 l 1,5,-1
 6 348 l 1,6,-1
 117 348 l 1,7,-1
 115 462 l 1,8,-1
 157 462 l 1,9,-1
 155 348 l 1,10,-1
 256 349 l 1,11,-1
 254 309 l 1,0,-1
EndSplineSet
Validated: 1
EndChar

StartChar: comma
Encoding: 44 44 12
Width: 119
GlyphClass: 2
Flags: W
LayerCount: 2
Fore
SplineSet
49 -96 m 1,0,-1
 2 -96 l 1,1,-1
 2 125 l 1,2,-1
 90 120 l 1,3,-1
 49 -96 l 1,0,-1
EndSplineSet
Validated: 1
EndChar

StartChar: hyphen
Encoding: 45 45 13
Width: 286
GlyphClass: 2
Flags: W
LayerCount: 2
Fore
SplineSet
0 374 m 1,0,-1
 232 393 l 1,1,-1
 228 329 l 1,2,-1
 4 337 l 1,3,-1
 0 374 l 1,0,-1
EndSplineSet
Validated: 1
EndChar

StartChar: period
Encoding: 46 46 14
Width: 150
GlyphClass: 2
Flags: W
LayerCount: 2
Fore
SplineSet
98 109 m 1,0,1
 117 94 117 94 121 71 c 128,-1,2
 125 48 125 48 113 26 c 0,3,4
 100 7 100 7 76 3 c 128,-1,5
 52 -1 52 -1 30 12 c 0,6,7
 11 26 11 26 7 49 c 128,-1,8
 3 72 3 72 16 94 c 0,9,10
 29 113 29 113 52.5 117 c 128,-1,11
 76 121 76 121 98 109 c 1,0,1
EndSplineSet
Validated: 33
EndChar

StartChar: slash
Encoding: 47 47 15
Width: 350
GlyphClass: 2
Flags: W
LayerCount: 2
Fore
SplineSet
227 668 m 1,0,-1
 300 656 l 1,1,-1
 40 61 l 1,2,-1
 0 75 l 1,3,-1
 227 668 l 1,0,-1
EndSplineSet
Validated: 1
EndChar

StartChar: zero
Encoding: 48 48 16
Width: 526
GlyphClass: 2
Flags: W
LayerCount: 2
Fore
SplineSet
413 312 m 0,0,1
 415 374 415 374 402 427.5 c 128,-1,2
 389 481 389 481 364 521 c 128,-1,3
 339 561 339 561 304.5 583.5 c 128,-1,4
 270 606 270 606 230 607 c 0,5,6
 191 607 191 607 160 585 c 0,7,8
 147 576 147 576 134.5 561 c 128,-1,9
 122 546 122 546 112 523.5 c 128,-1,10
 102 501 102 501 96 470.5 c 128,-1,11
 90 440 90 440 90 399 c 0,12,13
 89 316 89 316 112.5 258.5 c 128,-1,14
 136 201 136 201 169 164.5 c 128,-1,15
 202 128 202 128 236 111.5 c 128,-1,16
 270 95 270 95 290 95 c 0,17,18
 309 95 309 95 329.5 106 c 128,-1,19
 350 117 350 117 368 142.5 c 128,-1,20
 386 168 386 168 398.5 209.5 c 128,-1,21
 411 251 411 251 413 312 c 0,0,1
485 353 m 0,22,23
 490 284 490 284 479.5 235 c 128,-1,24
 469 186 469 186 449.5 153.5 c 128,-1,25
 430 121 430 121 405 102.5 c 128,-1,26
 380 84 380 84 355 75 c 128,-1,27
 330 66 330 66 309 63.5 c 128,-1,28
 288 61 288 61 278 61 c 0,29,30
 272 61 272 61 251.5 63 c 128,-1,31
 231 65 231 65 203 74.5 c 128,-1,32
 175 84 175 84 143.5 103 c 128,-1,33
 112 122 112 122 83.5 155.5 c 128,-1,34
 55 189 55 189 33 239.5 c 128,-1,35
 11 290 11 290 4 362 c 1,36,37
 3 419 3 419 12 461 c 128,-1,38
 21 503 21 503 37 534 c 128,-1,39
 53 565 53 565 73 585 c 128,-1,40
 93 605 93 605 114 618 c 0,41,42
 163 647 163 647 227 647 c 0,43,44
 230 647 230 647 249 646 c 128,-1,45
 268 645 268 645 295 637.5 c 128,-1,46
 322 630 322 630 353 613 c 128,-1,47
 384 596 384 596 411.5 563.5 c 128,-1,48
 439 531 439 531 459.5 479.5 c 128,-1,49
 480 428 480 428 485 353 c 0,22,23
EndSplineSet
Validated: 33
EndChar

StartChar: one
Encoding: 49 49 17
Width: 178
GlyphClass: 2
Flags: W
LayerCount: 2
Fore
SplineSet
33 64 m 1,0,-1
 51 646 l 1,1,-1
 105 648 l 1,2,-1
 124 64 l 1,3,-1
 33 64 l 1,0,-1
EndSplineSet
Validated: 1
EndChar

StartChar: two
Encoding: 50 50 18
Width: 506
GlyphClass: 2
Flags: W
LayerCount: 2
Fore
SplineSet
0 593 m 1,0,1
 21 606 21 606 58 619 c 128,-1,2
 95 632 95 632 139.5 639.5 c 128,-1,3
 184 647 184 647 231.5 647 c 128,-1,4
 279 647 279 647 320.5 634.5 c 128,-1,5
 362 622 362 622 392 594.5 c 128,-1,6
 422 567 422 567 433 520 c 0,7,8
 440 484 440 484 434.5 448 c 128,-1,9
 429 412 429 412 414 376.5 c 128,-1,10
 399 341 399 341 377.5 308 c 128,-1,11
 356 275 356 275 332 246 c 0,12,13
 277 177 277 177 201 113 c 1,14,-1
 454 121 l 1,15,-1
 456 63 l 1,16,17
 349 62 349 62 265 62 c 0,18,19
 229 62 229 62 195 62 c 128,-1,20
 161 62 161 62 134 62 c 128,-1,21
 107 62 107 62 90 62 c 2,22,-1
 74 63 l 1,23,24
 107 90 107 90 140.5 125 c 128,-1,25
 174 160 174 160 202.5 195.5 c 128,-1,26
 231 231 231 231 288 308 c 0,27,28
 302 327 302 327 315 352.5 c 128,-1,29
 328 378 328 378 335.5 406 c 128,-1,30
 343 434 343 434 343 462.5 c 128,-1,31
 343 491 343 491 332 514.5 c 128,-1,32
 321 538 321 538 297 554 c 128,-1,33
 273 570 273 570 233 574 c 0,34,35
 189 580 189 580 156.5 573.5 c 128,-1,36
 124 567 124 567 101 555.5 c 128,-1,37
 78 544 78 544 63.5 532 c 128,-1,38
 49 520 49 520 41 515 c 0,39,40
 40 515 40 515 0 593 c 1,0,1
EndSplineSet
Validated: 33
EndChar

StartChar: three
Encoding: 51 51 19
Width: 465
GlyphClass: 2
Flags: W
LayerCount: 2
Fore
SplineSet
0 624 m 1,0,1
 43 639 43 639 90.5 645 c 128,-1,2
 138 651 138 651 184 650 c 128,-1,3
 230 649 230 649 272.5 640.5 c 128,-1,4
 315 632 315 632 347 616.5 c 128,-1,5
 379 601 379 601 398 580 c 128,-1,6
 417 559 417 559 417 532 c 0,7,8
 419 498 419 498 408.5 472.5 c 128,-1,9
 398 447 398 447 381 428 c 128,-1,10
 364 409 364 409 343.5 396 c 128,-1,11
 323 383 323 383 305.5 375 c 128,-1,12
 288 367 288 367 276.5 363.5 c 128,-1,13
 265 360 265 360 265 359 c 1,14,15
 265 360 265 360 283.5 353 c 128,-1,16
 302 346 302 346 324.5 329.5 c 128,-1,17
 347 313 347 313 367 286.5 c 128,-1,18
 387 260 387 260 391 221 c 0,19,20
 391 187 391 187 376 162.5 c 128,-1,21
 361 138 361 138 336 121.5 c 128,-1,22
 311 105 311 105 279 95.5 c 128,-1,23
 247 86 247 86 214 81 c 0,24,25
 136 70 136 70 35 77 c 1,26,-1
 35 126 l 1,27,28
 107 118 107 118 162 125 c 0,29,30
 186 128 186 128 208.5 134.5 c 128,-1,31
 231 141 231 141 248.5 152.5 c 128,-1,32
 266 164 266 164 277 181.5 c 128,-1,33
 288 199 288 199 288 225 c 0,34,35
 288 246 288 246 279.5 261.5 c 128,-1,36
 271 277 271 277 258 288 c 128,-1,37
 245 299 245 299 228 305.5 c 128,-1,38
 211 312 211 312 194 315 c 0,39,40
 153 323 153 323 101 319 c 1,41,42
 99 375 99 375 101 376 c 0,43,44
 102 377 102 377 118 377 c 128,-1,45
 134 377 134 377 158 379.5 c 128,-1,46
 182 382 182 382 209.5 389.5 c 128,-1,47
 237 397 237 397 260.5 411.5 c 128,-1,48
 284 426 284 426 299 450.5 c 128,-1,49
 314 475 314 475 314 512 c 0,50,51
 313 549 313 549 293 568.5 c 128,-1,52
 273 588 273 588 242.5 595 c 128,-1,53
 212 602 212 602 176 598.5 c 128,-1,54
 140 595 140 595 107.5 586.5 c 128,-1,55
 75 578 75 578 20 545 c 1,56,57
 19 551 19 551 0 624 c 1,0,1
EndSplineSet
Validated: 33
EndChar

StartChar: four
Encoding: 52 52 20
Width: 516
GlyphClass: 2
Flags: W
LayerCount: 2
Fore
SplineSet
106 294 m 1,0,-1
 273 302 l 1,1,-1
 271 530 l 1,2,-1
 106 294 l 1,0,-1
359 237 m 1,3,-1
 366 58 l 1,4,-1
 282 50 l 1,5,-1
 277 237 l 1,6,-1
 0 235 l 1,7,-1
 301 646 l 1,8,-1
 340 649 l 1,9,-1
 356 305 l 1,10,-1
 465 312 l 1,11,-1
 466 237 l 1,12,-1
 360 239 l 1,13,-1
 359 237 l 1,3,-1
EndSplineSet
Validated: 1
EndChar

StartChar: five
Encoding: 53 53 21
Width: 416
GlyphClass: 2
Flags: W
LayerCount: 2
Fore
SplineSet
353 649 m 1,0,-1
 353 569 l 1,1,-1
 76 571 l 1,2,-1
 77 398 l 1,3,4
 93 399 93 399 119.5 399.5 c 128,-1,5
 146 400 146 400 176.5 397.5 c 128,-1,6
 207 395 207 395 239 388.5 c 128,-1,7
 271 382 271 382 297.5 368 c 128,-1,8
 324 354 324 354 342 332 c 128,-1,9
 360 310 360 310 363 276 c 0,10,11
 366 250 366 250 355.5 227 c 128,-1,12
 345 204 345 204 326 184.5 c 128,-1,13
 307 165 307 165 282 148 c 128,-1,14
 257 131 257 131 230 117 c 0,15,16
 168 84 168 84 86 60 c 1,17,-1
 61 118 l 1,18,19
 119 134 119 134 165 157 c 0,20,21
 184 166 184 166 203 178 c 128,-1,22
 222 190 222 190 236.5 204 c 128,-1,23
 251 218 251 218 259.5 234.5 c 128,-1,24
 268 251 268 251 267 269 c 128,-1,25
 266 287 266 287 254 299.5 c 128,-1,26
 242 312 242 312 223.5 320 c 128,-1,27
 205 328 205 328 181 332 c 128,-1,28
 157 336 157 336 132 338 c 0,29,30
 74 342 74 342 0 333 c 1,31,-1
 2 620 l 1,32,-1
 353 649 l 1,0,-1
EndSplineSet
Validated: 33
EndChar

StartChar: six
Encoding: 54 54 22
Width: 385
GlyphClass: 2
Flags: W
LayerCount: 2
Fore
SplineSet
155 101 m 0,0,1
 189 98 189 98 212.5 111.5 c 128,-1,2
 236 125 236 125 249 147.5 c 128,-1,3
 262 170 262 170 265.5 197.5 c 128,-1,4
 269 225 269 225 262.5 249.5 c 128,-1,5
 256 274 256 274 240.5 292 c 128,-1,6
 225 310 225 310 201 314 c 0,7,8
 164 319 164 319 141 309 c 128,-1,9
 118 299 118 299 105.5 282 c 128,-1,10
 93 265 93 265 88 245 c 128,-1,11
 83 225 83 225 82 211 c 0,12,13
 81 200 81 200 85.5 181.5 c 128,-1,14
 90 163 90 163 99.5 145.5 c 128,-1,15
 109 128 109 128 123 115 c 128,-1,16
 137 102 137 102 155 101 c 0,0,1
198 361 m 0,17,18
 211 361 211 361 234.5 355.5 c 128,-1,19
 258 350 258 350 280.5 334.5 c 128,-1,20
 303 319 303 319 319.5 289.5 c 128,-1,21
 336 260 336 260 336 211 c 0,22,23
 336 160 336 160 313.5 130 c 128,-1,24
 291 100 291 100 261 84.5 c 128,-1,25
 231 69 231 69 201.5 65 c 128,-1,26
 172 61 172 61 157 62 c 0,27,28
 145 62 145 62 119 68.5 c 128,-1,29
 93 75 93 75 67 94.5 c 128,-1,30
 41 114 41 114 21.5 151 c 128,-1,31
 2 188 2 188 3 250 c 2,32,-1
 3 252 l 2,33,34
 2 270 2 270 4.5 298 c 128,-1,35
 7 326 7 326 16.5 360.5 c 128,-1,36
 26 395 26 395 43.5 433.5 c 128,-1,37
 61 472 61 472 89.5 510.5 c 128,-1,38
 118 549 118 549 159.5 585.5 c 128,-1,39
 201 622 201 622 258 652 c 1,40,41
 292 584 292 584 291 583 c 0,42,43
 239 555 239 555 203 523.5 c 128,-1,44
 167 492 167 492 143 460 c 128,-1,45
 119 428 119 428 104.5 396.5 c 128,-1,46
 90 365 90 365 82 338 c 1,47,48
 102 346 102 346 117.5 351 c 128,-1,49
 133 356 133 356 158.5 359 c 128,-1,50
 184 362 184 362 198 361 c 0,17,18
EndSplineSet
Validated: 33
EndChar

StartChar: seven
Encoding: 55 55 23
Width: 476
GlyphClass: 2
Flags: W
LayerCount: 2
Fore
SplineSet
2 639 m 1,0,-1
 425 655 l 1,1,-1
 380 62 l 1,2,-1
 302 62 l 1,3,-1
 363 586 l 1,4,-1
 17 554 l 1,5,-1
 2 639 l 1,0,-1
EndSplineSet
Validated: 1
EndChar

StartChar: eight
Encoding: 56 56 24
Width: 489
GlyphClass: 2
Flags: W
LayerCount: 2
Fore
SplineSet
228 111 m 0,0,1
 272 111 272 111 302 129 c 128,-1,2
 332 147 332 147 347.5 173.5 c 128,-1,3
 363 200 363 200 365 231 c 128,-1,4
 367 262 367 262 355 288.5 c 128,-1,5
 343 315 343 315 316.5 332 c 128,-1,6
 290 349 290 349 249 348 c 0,7,8
 209 347 209 347 179 329 c 128,-1,9
 149 311 149 311 131.5 284.5 c 128,-1,10
 114 258 114 258 109.5 228 c 128,-1,11
 105 198 105 198 116 172 c 128,-1,12
 127 146 127 146 154.5 128.5 c 128,-1,13
 182 111 182 111 228 111 c 0,0,1
220 597 m 0,14,15
 189 598 189 598 168 581.5 c 128,-1,16
 147 565 147 565 136.5 541 c 128,-1,17
 126 517 126 517 126 488.5 c 128,-1,18
 126 460 126 460 136 437 c 128,-1,19
 146 414 146 414 166.5 399 c 128,-1,20
 187 384 187 384 218 387 c 0,21,22
 248 389 248 389 267 405.5 c 128,-1,23
 286 422 286 422 295 445 c 128,-1,24
 304 468 304 468 303.5 495 c 128,-1,25
 303 522 303 522 293 544.5 c 128,-1,26
 283 567 283 567 264.5 582 c 128,-1,27
 246 597 246 597 220 597 c 0,14,15
327 390 m 1,28,29
 382 386 382 386 412 360 c 128,-1,30
 442 334 442 334 448.5 298.5 c 128,-1,31
 455 263 455 263 441 222 c 128,-1,32
 427 181 427 181 394.5 146.5 c 128,-1,33
 362 112 362 112 313 88 c 128,-1,34
 264 64 264 64 202 63 c 0,35,36
 156 62 156 62 117.5 77 c 128,-1,37
 79 92 79 92 53 117 c 128,-1,38
 27 142 27 142 16 174 c 128,-1,39
 5 206 5 206 14 239 c 128,-1,40
 23 272 23 272 54 303.5 c 128,-1,41
 85 335 85 335 144 358 c 1,42,43
 106 369 106 369 83 393.5 c 128,-1,44
 60 418 60 418 51.5 448.5 c 128,-1,45
 43 479 43 479 49 511.5 c 128,-1,46
 55 544 55 544 75.5 571.5 c 128,-1,47
 96 599 96 599 130 617.5 c 128,-1,48
 164 636 164 636 213 639 c 0,49,50
 252 642 252 642 282.5 630 c 128,-1,51
 313 618 313 618 334 597.5 c 128,-1,52
 355 577 355 577 366 549.5 c 128,-1,53
 377 522 377 522 376.5 493.5 c 128,-1,54
 376 465 376 465 364 437.5 c 128,-1,55
 352 410 352 410 327 390 c 1,28,29
EndSplineSet
Validated: 33
EndChar

StartChar: nine
Encoding: 57 57 25
Width: 395
GlyphClass: 2
Flags: W
LayerCount: 2
Fore
SplineSet
213 388 m 0,0,1
 240 393 240 393 253.5 413 c 128,-1,2
 267 433 267 433 268.5 459.5 c 128,-1,3
 270 486 270 486 261 514 c 128,-1,4
 252 542 252 542 233.5 563.5 c 128,-1,5
 215 585 215 585 188.5 596 c 128,-1,6
 162 607 162 607 128 599 c 0,7,8
 102 593 102 593 88 572.5 c 128,-1,9
 74 552 74 552 71 526.5 c 128,-1,10
 68 501 68 501 76 473 c 128,-1,11
 84 445 84 445 102 423.5 c 128,-1,12
 120 402 120 402 148 391 c 128,-1,13
 176 380 176 380 213 388 c 0,0,1
349 440 m 0,14,15
 349 398 349 398 338.5 359.5 c 128,-1,16
 328 321 328 321 311 286 c 128,-1,17
 294 251 294 251 271.5 220.5 c 128,-1,18
 249 190 249 190 226 164 c 0,19,20
 171 103 171 103 101 54 c 1,21,-1
 54 118 l 1,22,23
 111 157 111 157 156 197 c 0,24,25
 175 214 175 214 193.5 233.5 c 128,-1,26
 212 253 212 253 226.5 273.5 c 128,-1,27
 241 294 241 294 250 314.5 c 128,-1,28
 259 335 259 335 260 355 c 1,29,30
 202 331 202 331 156.5 337 c 128,-1,31
 111 343 111 343 79 364 c 128,-1,32
 47 385 47 385 29.5 413.5 c 128,-1,33
 12 442 12 442 9 463 c 0,34,35
 4 502 4 502 10 538 c 128,-1,36
 16 574 16 574 34.5 601.5 c 128,-1,37
 53 629 53 629 85 645.5 c 128,-1,38
 117 662 117 662 165 662 c 0,39,40
 199 660 199 660 219 653.5 c 128,-1,41
 239 647 239 647 261.5 633.5 c 128,-1,42
 284 620 284 620 303 595.5 c 128,-1,43
 322 571 322 571 335 533 c 128,-1,44
 348 495 348 495 349 440 c 0,14,15
EndSplineSet
Validated: 33
EndChar

StartChar: colon
Encoding: 58 58 26
Width: 172
GlyphClass: 2
Flags: W
LayerCount: 2
Fore
SplineSet
43 464 m 0,0,1
 26 478 26 478 23 498.5 c 128,-1,2
 20 519 20 519 30 539 c 0,3,4
 42 555 42 555 61 559 c 128,-1,5
 80 563 80 563 97 553 c 0,6,7
 115 539 115 539 117.5 518.5 c 128,-1,8
 120 498 120 498 109 478 c 0,9,10
 98 459 98 459 78 456.5 c 128,-1,11
 58 454 58 454 43 464 c 0,0,1
92 218 m 0,12,13
 109 204 109 204 113 180 c 128,-1,14
 117 156 117 156 106 135 c 0,15,16
 93 116 93 116 71 112 c 128,-1,17
 49 108 49 108 30 123 c 0,18,19
 10 136 10 136 6.5 160.5 c 128,-1,20
 3 185 3 185 14 206 c 0,21,22
 28 225 28 225 50 229 c 128,-1,23
 72 233 72 233 92 218 c 0,12,13
EndSplineSet
Validated: 33
EndChar

StartChar: semicolon
Encoding: 59 59 27
AltUni2: 00037e.ffffffff.0
Width: 161
GlyphClass: 2
Flags: W
LayerCount: 2
Fore
SplineSet
62 -26 m 1,0,-1
 25 -26 l 1,1,-1
 25 148 l 1,2,-1
 95 145 l 1,3,-1
 62 -26 l 1,0,-1
26 466 m 0,4,5
 10 476 10 476 6.5 496.5 c 128,-1,6
 3 517 3 517 16 535 c 0,7,8
 26 554 26 554 47 556.5 c 128,-1,9
 68 559 68 559 85 547 c 128,-1,10
 102 535 102 535 106.5 515 c 128,-1,11
 111 495 111 495 100 478 c 0,12,13
 88 459 88 459 67 455.5 c 128,-1,14
 46 452 46 452 26 466 c 0,4,5
EndSplineSet
Validated: 33
EndChar

StartChar: less
Encoding: 60 60 28
Width: 327
GlyphClass: 2
Flags: W
LayerCount: 2
Fore
SplineSet
247 514 m 1,0,-1
 275 452 l 1,1,-1
 58 359 l 1,2,-1
 228 226 l 1,3,-1
 210 187 l 1,4,-1
 -1 363 l 1,5,-1
 247 514 l 1,0,-1
EndSplineSet
Validated: 1
EndChar

StartChar: equal
Encoding: 61 61 29
Width: 419
GlyphClass: 2
Flags: W
LayerCount: 2
Fore
SplineSet
364 397 m 1,0,-1
 368 353 l 1,1,-1
 12 367 l 1,2,-1
 16 446 l 1,3,-1
 364 397 l 1,0,-1
5 258 m 1,4,-1
 1 303 l 1,5,-1
 357 319 l 1,6,-1
 357 243 l 1,7,-1
 5 258 l 1,4,-1
EndSplineSet
Validated: 1
EndChar

StartChar: greater
Encoding: 62 62 30
Width: 334
GlyphClass: 2
Flags: W
LayerCount: 2
Fore
SplineSet
287 364 m 1,0,-1
 67 181 l 1,1,-1
 48 222 l 1,2,-1
 226 360 l 1,3,-1
 -1 457 l 1,4,-1
 28 521 l 1,5,-1
 287 364 l 1,0,-1
EndSplineSet
Validated: 1
EndChar

StartChar: question
Encoding: 63 63 31
Width: 460
GlyphClass: 2
Flags: W
LayerCount: 2
Fore
SplineSet
155 105 m 0,0,1
 167 97 167 97 167 77.5 c 128,-1,2
 167 58 167 58 155 42 c 0,3,4
 141 24 141 24 123.5 17 c 128,-1,5
 106 10 106 10 93 23 c 0,6,7
 82 31 82 31 82 50 c 128,-1,8
 82 69 82 69 94 86 c 0,9,10
 108 105 108 105 125.5 111 c 128,-1,11
 143 117 143 117 155 105 c 0,0,1
404 563 m 0,12,13
 413 528 413 528 406.5 500 c 128,-1,14
 400 472 400 472 382.5 449 c 128,-1,15
 365 426 365 426 340 408.5 c 128,-1,16
 315 391 315 391 287 378 c 0,17,18
 222 347 222 347 132 330 c 1,19,-1
 147 170 l 1,20,-1
 98 168 l 1,21,-1
 98 370 l 1,22,23
 177 381 177 381 233 405 c 0,24,25
 257 415 257 415 278 429 c 128,-1,26
 299 443 299 443 312.5 461 c 128,-1,27
 326 479 326 479 329 502 c 128,-1,28
 332 525 332 525 320 553 c 0,29,30
 309 579 309 579 290.5 594 c 128,-1,31
 272 609 272 609 249.5 615 c 128,-1,32
 227 621 227 621 202 620 c 128,-1,33
 177 619 177 619 153 615 c 0,34,35
 96 604 96 604 32 573 c 1,36,-1
 1 656 l 1,37,38
 22 668 22 668 56 678.5 c 128,-1,39
 90 689 90 689 130.5 694.5 c 128,-1,40
 171 700 171 700 213.5 697.5 c 128,-1,41
 256 695 256 695 294 680.5 c 128,-1,42
 332 666 332 666 361 638 c 128,-1,43
 390 610 390 610 404 563 c 0,12,13
EndSplineSet
Validated: 33
EndChar

StartChar: at
Encoding: 64 64 32
Width: 600
GlyphClass: 2
Flags: W
LayerCount: 2
Fore
SplineSet
282 300 m 0,0,1
 300 296 300 296 314.5 309 c 128,-1,2
 329 322 329 322 337.5 343 c 128,-1,3
 346 364 346 364 349 389.5 c 128,-1,4
 352 415 352 415 348 437 c 128,-1,5
 344 459 344 459 333.5 473.5 c 128,-1,6
 323 488 323 488 304 488 c 0,7,8
 286 489 286 489 272 477 c 128,-1,9
 258 465 258 465 249 445.5 c 128,-1,10
 240 426 240 426 235.5 402.5 c 128,-1,11
 231 379 231 379 234.5 357.5 c 128,-1,12
 238 336 238 336 249.5 320.5 c 128,-1,13
 261 305 261 305 282 300 c 0,0,1
345 639 m 1,14,15
 400 626 400 626 431 610.5 c 128,-1,16
 462 595 462 595 488.5 568.5 c 128,-1,17
 515 542 515 542 532 502.5 c 128,-1,18
 549 463 549 463 549 405 c 1,19,20
 545 357 545 357 530 331 c 128,-1,21
 515 305 515 305 496 291.5 c 128,-1,22
 477 278 477 278 462 275 c 128,-1,23
 447 272 447 272 443 272 c 1,24,25
 447 271 447 271 441 270 c 128,-1,26
 435 269 435 269 423.5 272 c 128,-1,27
 412 275 412 275 397 282.5 c 128,-1,28
 382 290 382 290 370 306 c 1,29,30
 367 296 367 296 357.5 287 c 128,-1,31
 348 278 348 278 339 269.5 c 128,-1,32
 330 261 330 261 314.5 256 c 128,-1,33
 299 251 299 251 275 251 c 0,34,35
 256 251 256 251 235.5 262.5 c 128,-1,36
 215 274 215 274 199 294 c 128,-1,37
 183 314 183 314 176 342.5 c 128,-1,38
 169 371 169 371 178 405 c 0,39,40
 181 423 181 423 191.5 444.5 c 128,-1,41
 202 466 202 466 219.5 485 c 128,-1,42
 237 504 237 504 261.5 516.5 c 128,-1,43
 286 529 286 529 319 528 c 0,44,45
 350 526 350 526 365 509.5 c 128,-1,46
 380 493 380 493 387 469.5 c 128,-1,47
 394 446 394 446 396 419 c 128,-1,48
 398 392 398 392 402 370 c 128,-1,49
 406 348 406 348 414 332.5 c 128,-1,50
 422 317 422 317 443 319 c 0,51,52
 466 319 466 319 481.5 339.5 c 128,-1,53
 497 360 497 360 501 390 c 128,-1,54
 505 420 505 420 497.5 455.5 c 128,-1,55
 490 491 490 491 467 522 c 128,-1,56
 444 553 444 553 404 574.5 c 128,-1,57
 364 596 364 596 304 598 c 0,58,59
 251 600 251 600 213.5 585 c 128,-1,60
 176 570 176 570 151.5 546.5 c 128,-1,61
 127 523 127 523 112.5 494.5 c 128,-1,62
 98 466 98 466 91 439.5 c 128,-1,63
 84 413 84 413 81.5 392.5 c 128,-1,64
 79 372 79 372 79 367 c 0,65,66
 78 346 78 346 84.5 316.5 c 128,-1,67
 91 287 91 287 105.5 257.5 c 128,-1,68
 120 228 120 228 144.5 202.5 c 128,-1,69
 169 177 169 177 205.5 163.5 c 128,-1,70
 242 150 242 150 291.5 151 c 128,-1,71
 341 152 341 152 406 178 c 1,72,-1
 428 123 l 1,73,74
 415 115 415 115 379 106 c 128,-1,75
 343 97 343 97 295.5 96 c 128,-1,76
 248 95 248 95 197 105 c 128,-1,77
 146 115 146 115 102.5 144 c 128,-1,78
 59 173 59 173 31 226 c 128,-1,79
 3 279 3 279 2 363 c 0,80,81
 3 427 3 427 22 474 c 128,-1,82
 41 521 41 521 70 552.5 c 128,-1,83
 99 584 99 584 134 603 c 128,-1,84
 169 622 169 622 196 629.5 c 128,-1,85
 223 637 223 637 255.5 641 c 128,-1,86
 288 645 288 645 345 639 c 1,14,15
EndSplineSet
Validated: 33
EndChar

StartChar: A
Encoding: 65 65 33
AltUni2: 000410.ffffffff.0 000391.ffffffff.0
Width: 630
GlyphClass: 2
Flags: W
AnchorPoint: "bottomattside" 548 19 basechar 0
AnchorPoint: "bottom" 290 -10 basechar 0
AnchorPoint: "top" 253 716 basechar 0
LayerCount: 2
Fore
SplineSet
5 19 m 1,0,-1
 232 695 l 1,1,-1
 282 697 l 1,2,-1
 591 35 l 1,3,-1
 513 4 l 1,4,-1
 387 289 l 1,5,-1
 159 288 l 1,6,-1
 64 0 l 1,7,-1
 5 19 l 1,0,-1
368 332 m 1,8,-1
 250 600 l 1,9,-1
 168 329 l 1,10,-1
 368 332 l 1,8,-1
EndSplineSet
Validated: 1
EndChar

StartChar: B
Encoding: 66 66 34
AltUni2: 000412.ffffffff.0 000392.ffffffff.0
Width: 510
GlyphClass: 2
Flags: W
AnchorPoint: "bottomattside" 270 37 basechar 0
AnchorPoint: "bottom" 230 -10 basechar 0
AnchorPoint: "top" 160 730 basechar 0
LayerCount: 2
Fore
SplineSet
66 95 m 1,0,1
 87 93 87 93 124 92.5 c 128,-1,2
 161 92 161 92 199 96.5 c 128,-1,3
 237 101 237 101 273 112 c 128,-1,4
 309 123 309 123 336 143 c 128,-1,5
 363 163 363 163 377 194.5 c 128,-1,6
 391 226 391 226 386 271 c 0,7,8
 380 307 380 307 354.5 328.5 c 128,-1,9
 329 350 329 350 292 361 c 128,-1,10
 255 372 255 372 213.5 375 c 128,-1,11
 172 378 172 378 136 377 c 128,-1,12
 100 376 100 376 80 374 c 2,13,-1
 60 371 l 1,14,-1
 66 95 l 1,0,1
314 550 m 0,15,16
 317 588 317 588 299 609 c 128,-1,17
 281 630 281 630 252 640.5 c 128,-1,18
 223 651 223 651 189 653 c 128,-1,19
 155 655 155 655 125 652.5 c 128,-1,20
 95 650 95 650 77.5 646.5 c 128,-1,21
 60 643 60 643 59 642 c 2,22,-1
 62 431 l 1,23,24
 125 425 125 425 180 436 c 0,25,26
 204 440 204 440 227 448.5 c 128,-1,27
 250 457 250 457 268.5 470.5 c 128,-1,28
 287 484 287 484 299.5 503.5 c 128,-1,29
 312 523 312 523 314 550 c 0,15,16
459 231 m 0,30,31
 460 184 460 184 441.5 150 c 128,-1,32
 423 116 423 116 391 92 c 128,-1,33
 359 68 359 68 317.5 52 c 128,-1,34
 276 36 276 36 233 27 c 0,35,36
 131 5 131 5 0 8 c 1,37,-1
 0 685 l 1,38,39
 5 688 5 688 36.5 692.5 c 128,-1,40
 68 697 68 697 111 699.5 c 128,-1,41
 154 702 154 702 203.5 697.5 c 128,-1,42
 253 693 253 693 295 675.5 c 128,-1,43
 337 658 337 658 365 628 c 128,-1,44
 393 598 393 598 394 550 c 0,45,46
 394 502 394 502 376 474 c 128,-1,47
 358 446 358 446 337 432 c 0,48,49
 312 415 312 415 281 411 c 1,50,51
 329 403 329 403 368 381 c 0,52,53
 384 372 384 372 400 358.5 c 128,-1,54
 416 345 416 345 429 326.5 c 128,-1,55
 442 308 442 308 450 284.5 c 128,-1,56
 458 261 458 261 459 231 c 0,30,31
EndSplineSet
Validated: 33
EndChar

StartChar: C
Encoding: 67 67 35
AltUni2: 000421.ffffffff.0
Width: 619
GlyphClass: 2
Flags: W
AnchorPoint: "bottomattside" 532 12 basechar 0
AnchorPoint: "bottom" 345 -20 basechar 0
AnchorPoint: "top" 312 726 basechar 0
LayerCount: 2
Fore
SplineSet
581 681 m 1,0,-1
 581 593 l 1,1,2
 461 620 461 620 361 611 c 0,3,4
 318 607 318 607 275 595 c 128,-1,5
 232 583 232 583 195 558.5 c 128,-1,6
 158 534 158 534 129.5 495 c 128,-1,7
 101 456 101 456 88 398 c 0,8,9
 81 365 81 365 79.5 325 c 128,-1,10
 78 285 78 285 89.5 245 c 128,-1,11
 101 205 101 205 128.5 169 c 128,-1,12
 156 133 156 133 207 107 c 128,-1,13
 258 81 258 81 335 69.5 c 128,-1,14
 412 58 412 58 522 68 c 1,15,-1
 528 40 l 2,16,17
 530 29 530 29 531.5 20 c 128,-1,18
 533 11 533 11 532 10 c 0,19,20
 479 4 479 4 414 5.5 c 128,-1,21
 349 7 349 7 284 22 c 128,-1,22
 219 37 219 37 160.5 68 c 128,-1,23
 102 99 102 99 64 153 c 128,-1,24
 26 207 26 207 15 287 c 128,-1,25
 4 367 4 367 32 479 c 1,26,27
 51 537 51 537 85 576 c 128,-1,28
 119 615 119 615 161 640 c 128,-1,29
 203 665 203 665 250.5 677.5 c 128,-1,30
 298 690 298 690 345 695 c 0,31,32
 454 706 454 706 581 681 c 1,0,-1
EndSplineSet
Validated: 33
EndChar

StartChar: D
Encoding: 68 68 36
Width: 729
GlyphClass: 2
Flags: W
AnchorPoint: "bottomattside" 415 21 basechar 0
AnchorPoint: "bottom" 335 -30 basechar 0
AnchorPoint: "top" 340 681 basechar 0
LayerCount: 2
Fore
SplineSet
86 53 m 1,0,1
 216 43 216 43 339 65 c 0,2,3
 391 74 391 74 437 91.5 c 128,-1,4
 483 109 483 109 520 137 c 128,-1,5
 557 165 557 165 573.5 206 c 128,-1,6
 590 247 590 247 596 304 c 1,7,8
 593 365 593 365 576 409 c 128,-1,9
 559 453 559 453 526 483 c 128,-1,10
 493 513 493 513 449 531.5 c 128,-1,11
 405 550 405 550 352 560 c 0,12,13
 228 583 228 583 94 572 c 1,14,-1
 86 53 l 1,0,1
703 311 m 1,15,16
 699 236 699 236 667 183 c 128,-1,17
 635 130 635 130 584.5 94 c 128,-1,18
 534 58 534 58 471.5 37 c 128,-1,19
 409 16 409 16 344 6 c 0,20,21
 192 -19 192 -19 0 1 c 1,22,-1
 0 659 l 1,23,24
 196 675 196 675 350 646 c 0,25,26
 416 634 416 634 479 610 c 128,-1,27
 542 586 542 586 591.5 546.5 c 128,-1,28
 641 507 641 507 671.5 449.5 c 128,-1,29
 702 392 702 392 703 311 c 1,15,16
EndSplineSet
Validated: 33
EndChar

StartChar: E
Encoding: 69 69 37
AltUni2: 000415.ffffffff.0 000395.ffffffff.0
Width: 437
GlyphClass: 2
Flags: W
AnchorPoint: "bottomattside" 399 4 basechar 0
AnchorPoint: "bottom" 195 -30 basechar 0
AnchorPoint: "top" 230 719 basechar 0
LayerCount: 2
Fore
SplineSet
0 690 m 1,0,-1
 411 699 l 1,1,-1
 411 612 l 1,2,-1
 58 615 l 1,3,-1
 61 376 l 1,4,-1
 351 393 l 1,5,-1
 352 318 l 1,6,-1
 65 313 l 1,7,-1
 68 52 l 1,8,-1
 394 67 l 1,9,-1
 396 0 l 1,10,-1
 0 0 l 1,11,-1
 0 690 l 1,0,-1
EndSplineSet
Validated: 1
EndChar

StartChar: F
Encoding: 70 70 38
Width: 401
GlyphClass: 2
Flags: W
AnchorPoint: "bottomattside" 35 6 basechar 0
AnchorPoint: "bottom" 185 -5 basechar 0
AnchorPoint: "top" 210 720 basechar 0
LayerCount: 2
Fore
SplineSet
0 9 m 1,0,-1
 9 699 l 1,1,-1
 361 697 l 1,2,-1
 361 635 l 1,3,-1
 60 646 l 1,4,-1
 66 426 l 1,5,-1
 300 435 l 1,6,-1
 298 351 l 1,7,-1
 72 359 l 1,8,-1
 84 -1 l 1,9,-1
 1 2 l 1,10,-1
 0 9 l 1,0,-1
EndSplineSet
Validated: 1
EndChar

StartChar: G
Encoding: 71 71 39
Width: 641
GlyphClass: 2
Flags: W
AnchorPoint: "bottomattside" 591 27 basechar 0
AnchorPoint: "bottom" 375 -30 basechar 0
AnchorPoint: "top" 390 740 basechar 0
LayerCount: 2
Fore
SplineSet
594 628 m 1,0,1
 453 646 453 646 344 624 c 0,2,3
 297 615 297 615 253 596 c 128,-1,4
 209 577 209 577 174.5 544.5 c 128,-1,5
 140 512 140 512 119.5 464 c 128,-1,6
 99 416 99 416 101 348 c 0,7,8
 101 276 101 276 119.5 227 c 128,-1,9
 138 178 138 178 169 146.5 c 128,-1,10
 200 115 200 115 239 99.5 c 128,-1,11
 278 84 278 84 319 78 c 0,12,13
 415 65 415 65 538 96 c 1,14,-1
 535 196 l 1,15,-1
 325 183 l 1,16,-1
 327 252 l 1,17,-1
 591 251 l 1,18,-1
 591 27 l 1,19,20
 418 -10 418 -10 287 10 c 0,21,22
 231 19 231 19 178.5 41 c 128,-1,23
 126 63 126 63 87 104.5 c 128,-1,24
 48 146 48 146 27 211 c 128,-1,25
 6 276 6 276 14 370 c 0,26,27
 24 449 24 449 54 504.5 c 128,-1,28
 84 560 84 560 127 596.5 c 128,-1,29
 170 633 170 633 221.5 654 c 128,-1,30
 273 675 273 675 325 684 c 0,31,32
 447 706 447 706 597 680 c 1,33,-1
 594 628 l 1,0,1
EndSplineSet
Validated: 33
EndChar

StartChar: H
Encoding: 72 72 40
AltUni2: 00041d.ffffffff.0 000397.ffffffff.0
Width: 680
GlyphClass: 2
Flags: W
AnchorPoint: "bottomattside" 563 16 basechar 0
AnchorPoint: "bottom" 300 -30 basechar 0
AnchorPoint: "top" 310 700 basechar 0
LayerCount: 2
Fore
SplineSet
0 700 m 1,0,-1
 76 696 l 1,1,-1
 83 275 l 1,2,-1
 526 284 l 1,3,-1
 522 694 l 1,4,-1
 581 694 l 1,5,-1
 600 13 l 1,6,-1
 529 12 l 1,7,-1
 526 213 l 1,8,-1
 85 211 l 1,9,-1
 88 0 l 1,10,-1
 0 0 l 1,11,-1
 0 700 l 1,0,-1
EndSplineSet
Validated: 1
EndChar

StartChar: I
Encoding: 73 73 41
AltUni2: 000406.ffffffff.0 000399.ffffffff.0
Width: 240
GlyphClass: 2
Flags: W
AnchorPoint: "bottomattside" 87 5 basechar 0
AnchorPoint: "bottom" 80 -30 basechar 0
AnchorPoint: "top" 111 735 basechar 0
LayerCount: 2
Fore
SplineSet
74 700 m 1,0,-1
 155 699 l 1,1,-1
 118 0 l 1,2,-1
 53 1 l 1,3,-1
 74 700 l 1,0,-1
EndSplineSet
Validated: 1
EndChar

StartChar: J
Encoding: 74 74 42
Width: 510
GlyphClass: 2
Flags: W
AnchorPoint: "top" 383 719 basechar 0
AnchorPoint: "bottomattside" 346 43 basechar 0
AnchorPoint: "bottom" 210 -30 basechar 0
LayerCount: 2
Fore
SplineSet
338 697 m 1,0,-1
 431 698 l 1,1,2
 432 672 432 672 434 640 c 0,3,4
 438 540 438 540 438 498 c 0,5,6
 441 404 441 404 439.5 314.5 c 128,-1,7
 438 225 438 225 415 155 c 128,-1,8
 392 85 392 85 346 42.5 c 128,-1,9
 300 0 300 0 221 0 c 0,10,11
 183 0 183 0 148 7 c 128,-1,12
 113 14 113 14 84 25 c 128,-1,13
 55 36 55 36 33.5 48.5 c 128,-1,14
 12 61 12 61 0 72 c 0,15,16
 0 74 0 74 31 118 c 1,17,18
 56 96 56 96 89 79 c 0,19,20
 117 65 117 65 156 54.5 c 128,-1,21
 195 44 195 44 245 49 c 0,22,23
 283 52 283 52 309 79 c 128,-1,24
 335 106 335 106 351 152.5 c 128,-1,25
 367 199 367 199 369.5 262.5 c 128,-1,26
 372 326 372 326 367 402 c 2,27,-1
 338 697 l 1,0,-1
EndSplineSet
Validated: 33
EndChar

StartChar: K
Encoding: 75 75 43
AltUni2: 00041a.ffffffff.0 00039a.ffffffff.0
Width: 529
GlyphClass: 2
Flags: W
AnchorPoint: "bottomattside" 452 48 basechar 0
AnchorPoint: "bottom" 245 -5 basechar 0
AnchorPoint: "top" 230 700 basechar 0
LayerCount: 2
Fore
SplineSet
0 697 m 1,0,-1
 67 699 l 1,1,-1
 67 411 l 1,2,-1
 384 691 l 1,3,-1
 440 628 l 1,4,-1
 110 372 l 1,5,-1
 488 102 l 1,6,-1
 439 26 l 1,7,-1
 73 333 l 1,8,-1
 79 4 l 1,9,-1
 18 1 l 1,10,-1
 0 697 l 1,0,-1
EndSplineSet
Validated: 1
EndChar

StartChar: L
Encoding: 76 76 44
Width: 552
GlyphClass: 2
Flags: W
AnchorPoint: "bottomattside" 493 7 basechar 0
AnchorPoint: "bottom" 250 -30 basechar 0
AnchorPoint: "top" 180 704 basechar 0
LayerCount: 2
Fore
SplineSet
20 698 m 1,0,-1
 93 694 l 1,1,-1
 90 67 l 1,2,-1
 495 97 l 1,3,-1
 493 3 l 1,4,-1
 21 0 l 1,5,-1
 20 698 l 1,0,-1
EndSplineSet
Validated: 1
EndChar

StartChar: M
Encoding: 77 77 45
AltUni2: 00041c.ffffffff.0 00039c.ffffffff.0
Width: 763
GlyphClass: 2
Flags: W
AnchorPoint: "bottomattside" 648 12 basechar 0
AnchorPoint: "bottom" 345 -45 basechar 0
AnchorPoint: "top" 350 700 basechar 0
LayerCount: 2
Fore
SplineSet
20 0 m 1,0,-1
 20 700 l 1,1,-1
 65 700 l 1,2,-1
 356 112 l 1,3,-1
 609 696 l 1,4,-1
 682 696 l 1,5,-1
 705 8 l 1,6,-1
 614 8 l 1,7,-1
 611 564 l 1,8,-1
 367 -3 l 1,9,-1
 331 5 l 1,10,-1
 72 543 l 1,11,-1
 90 -1 l 1,12,-1
 20 0 l 1,0,-1
EndSplineSet
Validated: 1
EndChar

StartChar: N
Encoding: 78 78 46
AltUni2: 00039d.ffffffff.0
Width: 749
GlyphClass: 2
Flags: W
AnchorPoint: "bottomattside" 669 13 basechar 0
AnchorPoint: "bottom" 350 5 basechar 0
AnchorPoint: "top" 365 695 basechar 0
LayerCount: 2
Fore
SplineSet
20 0 m 1,0,-1
 20 700 l 1,1,-1
 65 700 l 1,2,-1
 629 115 l 1,3,-1
 623 694 l 1,4,-1
 695 691 l 1,5,-1
 692 10 l 1,6,-1
 635 9 l 1,7,-1
 79 572 l 1,8,-1
 87 0 l 1,9,-1
 20 0 l 1,0,-1
EndSplineSet
Validated: 1
EndChar

StartChar: O
Encoding: 79 79 47
AltUni2: 00041e.ffffffff.0 00039f.ffffffff.0
Width: 850
GlyphClass: 2
Flags: W
AnchorPoint: "bottomattside" 536 10 basechar 0
AnchorPoint: "bottom" 410 -30 basechar 0
AnchorPoint: "top" 415 730 basechar 0
LayerCount: 2
Fore
SplineSet
396 39 m 0,0,1
 452 38 452 38 511.5 55.5 c 128,-1,2
 571 73 571 73 614 110.5 c 128,-1,3
 657 148 657 148 689.5 216 c 128,-1,4
 722 284 722 284 719 384 c 0,5,6
 714 442 714 442 694 488 c 128,-1,7
 674 534 674 534 652.5 561.5 c 128,-1,8
 631 589 631 589 599.5 609.5 c 128,-1,9
 568 630 568 630 538 642 c 128,-1,10
 508 654 508 654 443 661 c 1,11,12
 377 664 377 664 313.5 646 c 128,-1,13
 250 628 250 628 199.5 579 c 128,-1,14
 149 530 149 530 123.5 457.5 c 128,-1,15
 98 385 98 385 100 309 c 0,16,17
 102 239 102 239 130 188 c 128,-1,18
 158 137 158 137 195.5 105 c 128,-1,19
 233 73 233 73 287 57 c 128,-1,20
 341 41 341 41 396 39 c 0,0,1
415 707 m 0,21,22
 447 707 447 707 486.5 701.5 c 128,-1,23
 526 696 526 696 568.5 681.5 c 128,-1,24
 611 667 611 667 649.5 642.5 c 128,-1,25
 688 618 688 618 723 579 c 128,-1,26
 758 540 758 540 780.5 483.5 c 128,-1,27
 803 427 803 427 804 352 c 0,28,29
 801 249 801 249 762 181 c 128,-1,30
 723 113 723 113 664.5 70.5 c 128,-1,31
 606 28 606 28 535.5 9.5 c 128,-1,32
 465 -9 465 -9 400 -9 c 0,33,34
 365 -9 365 -9 321 -4 c 128,-1,35
 277 1 277 1 232 17 c 128,-1,36
 187 33 187 33 146.5 61 c 128,-1,37
 106 89 106 89 73 128.5 c 128,-1,38
 40 168 40 168 22 218.5 c 128,-1,39
 4 269 4 269 8 349 c 0,40,41
 13 423 13 423 37 478.5 c 128,-1,42
 61 534 61 534 97 574 c 128,-1,43
 133 614 133 614 173.5 639.5 c 128,-1,44
 214 665 214 665 257.5 681 c 128,-1,45
 301 697 301 697 341.5 702.5 c 128,-1,46
 382 708 382 708 415 707 c 0,21,22
EndSplineSet
Validated: 33
EndChar

StartChar: P
Encoding: 80 80 48
AltUni2: 000420.ffffffff.0 0003a1.ffffffff.0
Width: 528
GlyphClass: 2
Flags: W
AnchorPoint: "bottomattside" 61 4 basechar 0
AnchorPoint: "bottom" 205 -5 basechar 0
AnchorPoint: "top" 250 725 basechar 0
LayerCount: 2
Fore
SplineSet
93 350 m 1,0,1
 187 347 187 347 261 362 c 0,2,3
 292 368 292 368 314.5 378.5 c 128,-1,4
 337 389 337 389 355 405.5 c 128,-1,5
 373 422 373 422 387 445.5 c 128,-1,6
 401 469 401 469 401 501 c 0,7,8
 401 535 401 535 387.5 558.5 c 128,-1,9
 374 582 374 582 355 597.5 c 128,-1,10
 336 613 336 613 313.5 621.5 c 128,-1,11
 291 630 291 630 258 634 c 0,12,13
 181 643 181 643 85 631 c 1,14,-1
 93 350 l 1,0,1
486 526 m 0,15,16
 490 467 490 467 465 426.5 c 128,-1,17
 440 386 440 386 403 359 c 128,-1,18
 366 332 366 332 320.5 317 c 128,-1,19
 275 302 275 302 231.5 294 c 128,-1,20
 188 286 188 286 150.5 284.5 c 128,-1,21
 113 283 113 283 93 283 c 1,22,-1
 92 0 l 1,23,-1
 60 0 l 0,24,-1
 27 0 l 1,25,-1
 8 694 l 1,26,27
 38 695 38 695 84.5 697.5 c 128,-1,28
 131 700 131 700 183.5 698.5 c 128,-1,29
 236 697 236 697 288.5 689.5 c 128,-1,30
 341 682 341 682 383.5 663 c 128,-1,31
 426 644 426 644 454 610 c 128,-1,32
 482 576 482 576 486 526 c 0,15,16
EndSplineSet
Validated: 33
EndChar

StartChar: Q
Encoding: 81 81 49
Width: 750
GlyphClass: 2
Flags: W
AnchorPoint: "bottomattside" 393 44 basechar 0
AnchorPoint: "bottom" 340 0 basechar 0
AnchorPoint: "top" 340 725 basechar 0
LayerCount: 2
Fore
SplineSet
384 88 m 0,0,1
 456 92 456 92 502 119.5 c 128,-1,2
 548 147 548 147 574.5 185.5 c 128,-1,3
 601 224 601 224 612.5 268.5 c 128,-1,4
 624 313 624 313 625 351 c 0,5,6
 626 388 626 388 620 421 c 128,-1,7
 614 454 614 454 599 488.5 c 128,-1,8
 584 523 584 523 559.5 555.5 c 128,-1,9
 535 588 535 588 499 613 c 128,-1,10
 463 638 463 638 414.5 651.5 c 128,-1,11
 366 665 366 665 303 661 c 0,12,13
 230 656 230 656 187 623.5 c 128,-1,14
 144 591 144 591 123 547 c 128,-1,15
 102 503 102 503 97.5 455.5 c 128,-1,16
 93 408 93 408 97 363 c 0,17,18
 99 333 99 333 107 301 c 128,-1,19
 115 269 115 269 130 237.5 c 128,-1,20
 145 206 145 206 167 177.5 c 128,-1,21
 189 149 189 149 220.5 128 c 128,-1,22
 252 107 252 107 292.5 95.5 c 128,-1,23
 333 84 333 84 384 88 c 0,0,1
708 44 m 1,24,-1
 664 -41 l 1,25,26
 557 -12 557 -12 496 4 c 128,-1,27
 435 20 435 20 405 28 c 128,-1,28
 375 36 375 36 367.5 38 c 128,-1,29
 360 40 360 40 359 40 c 0,30,31
 356 40 356 40 329 42 c 128,-1,32
 302 44 302 44 262.5 53.5 c 128,-1,33
 223 63 223 63 178 83 c 128,-1,34
 133 103 133 103 93.5 140 c 128,-1,35
 54 177 54 177 27 233.5 c 128,-1,36
 0 290 0 290 -2 384 c 1,37,38
 1 460 1 460 21 513 c 128,-1,39
 41 566 41 566 74 602 c 128,-1,40
 107 638 107 638 147 660 c 128,-1,41
 187 682 187 682 223 692 c 128,-1,42
 259 702 259 702 286 705 c 128,-1,43
 313 708 313 708 321 709 c 0,44,45
 334 709 334 709 365.5 708.5 c 128,-1,46
 397 708 397 708 437.5 700.5 c 128,-1,47
 478 693 478 693 522 674 c 128,-1,48
 566 655 566 655 604 619.5 c 128,-1,49
 642 584 642 584 672 527.5 c 128,-1,50
 702 471 702 471 706 387 c 0,51,52
 708 312 708 312 689 264 c 128,-1,53
 670 216 670 216 640 179.5 c 128,-1,54
 610 143 610 143 573.5 118 c 128,-1,55
 537 93 537 93 504 77 c 1,56,-1
 708 44 l 1,24,-1
EndSplineSet
Validated: 33
EndChar

StartChar: R
Encoding: 82 82 50
Width: 550
GlyphClass: 2
Flags: W
AnchorPoint: "bottomattside" 340 20 basechar 0
AnchorPoint: "bottom" 195 -20 basechar 0
AnchorPoint: "top" 275 735 basechar 0
LayerCount: 2
Fore
SplineSet
89 366 m 1,0,1
 180 359 180 359 250 372 c 0,2,3
 280 378 280 378 308.5 388 c 128,-1,4
 337 398 337 398 359.5 415.5 c 128,-1,5
 382 433 382 433 395.5 457.5 c 128,-1,6
 409 482 409 482 409 517 c 0,7,8
 409 548 409 548 395 570 c 128,-1,9
 381 592 381 592 358.5 607 c 128,-1,10
 336 622 336 622 307.5 631 c 128,-1,11
 279 640 279 640 249 645 c 0,12,13
 179 656 179 656 89 650 c 1,14,-1
 89 366 l 1,0,1
20 694 m 1,15,16
 22 694 22 694 44 695.5 c 128,-1,17
 66 697 66 697 100.5 698 c 128,-1,18
 135 699 135 699 178 697.5 c 128,-1,19
 221 696 221 696 265.5 690 c 128,-1,20
 310 684 310 684 352.5 672 c 128,-1,21
 395 660 395 660 427.5 639.5 c 128,-1,22
 460 619 460 619 479.5 589.5 c 128,-1,23
 499 560 499 560 498 518 c 0,24,25
 497 479 497 479 481.5 449 c 128,-1,26
 466 419 466 419 441.5 396.5 c 128,-1,27
 417 374 417 374 386.5 358.5 c 128,-1,28
 356 343 356 343 324 333 c 0,29,30
 249 309 249 309 155 305 c 1,31,-1
 383 49 l 1,32,-1
 316 2 l 1,33,-1
 91 298 l 1,34,-1
 97 4 l 1,35,-1
 31 6 l 1,36,-1
 20 694 l 1,15,16
EndSplineSet
Validated: 33
EndChar

StartChar: S
Encoding: 83 83 51
Width: 431
GlyphClass: 2
Flags: W
AnchorPoint: "bottomattside" 292 25 basechar 0
AnchorPoint: "bottom" 206 -29 basechar 0
AnchorPoint: "top" 220 740 basechar 0
LayerCount: 2
Fore
SplineSet
72 139 m 1,0,1
 78 132 78 132 92 120.5 c 128,-1,2
 106 109 106 109 124 97.5 c 128,-1,3
 142 86 142 86 163.5 76.5 c 128,-1,4
 185 67 185 67 206.5 63.5 c 128,-1,5
 228 60 228 60 247.5 64.5 c 128,-1,6
 267 69 267 69 282 86 c 0,7,8
 300 107 300 107 294.5 131 c 128,-1,9
 289 155 289 155 269.5 183 c 128,-1,10
 250 211 250 211 219.5 242 c 128,-1,11
 189 273 189 273 156 307 c 128,-1,12
 123 341 123 341 91.5 378 c 128,-1,13
 60 415 60 415 39 454.5 c 128,-1,14
 18 494 18 494 10.5 535.5 c 128,-1,15
 3 577 3 577 18 621 c 0,16,17
 29 654 29 654 61 671.5 c 128,-1,18
 93 689 93 689 133.5 695 c 128,-1,19
 174 701 174 701 218.5 699 c 128,-1,20
 263 697 263 697 300 692 c 128,-1,21
 337 687 337 687 360.5 681 c 128,-1,22
 384 675 384 675 384 674 c 2,23,-1
 381 604 l 2,24,25
 381 603 381 603 364 610 c 128,-1,26
 347 617 347 617 320.5 625 c 128,-1,27
 294 633 294 633 261.5 639 c 128,-1,28
 229 645 229 645 197.5 643 c 128,-1,29
 166 641 166 641 140 628.5 c 128,-1,30
 114 616 114 616 100 586 c 0,31,32
 83 549 83 549 92.5 511 c 128,-1,33
 102 473 102 473 126.5 434.5 c 128,-1,34
 151 396 151 396 186.5 357.5 c 128,-1,35
 222 319 222 319 257 282.5 c 128,-1,36
 292 246 292 246 321.5 211.5 c 128,-1,37
 351 177 351 177 364.5 145.5 c 128,-1,38
 378 114 378 114 370.5 87 c 128,-1,39
 363 60 363 60 324 38 c 0,40,41
 292 20 292 20 258.5 16.5 c 128,-1,42
 225 13 225 13 192.5 18.5 c 128,-1,43
 160 24 160 24 131.5 35.5 c 128,-1,44
 103 47 103 47 81 59 c 128,-1,45
 59 71 59 71 46.5 79.5 c 128,-1,46
 34 88 34 88 34 89 c 2,47,-1
 72 139 l 1,0,1
EndSplineSet
Validated: 33
EndChar

StartChar: T
Encoding: 84 84 52
AltUni2: 000422.ffffffff.0 0003a4.ffffffff.0
Width: 629
GlyphClass: 2
Flags: W
AnchorPoint: "bottomattside" 300 4 basechar 0
AnchorPoint: "bottom" 318 -33 basechar 0
AnchorPoint: "top" 290 735 basechar 0
LayerCount: 2
Fore
SplineSet
0 698 m 1,0,-1
 598 691 l 1,1,-1
 592 632 l 1,2,-1
 312 638 l 1,3,-1
 365 7 l 1,4,-1
 266 0 l 1,5,-1
 250 642 l 1,6,-1
 3 647 l 1,7,-1
 0 698 l 1,0,-1
EndSplineSet
Validated: 1
EndChar

StartChar: U
Encoding: 85 85 53
Width: 729
GlyphClass: 2
Flags: W
AnchorPoint: "bottomattside" 470 24 basechar 0
AnchorPoint: "bottom" 340 -35 basechar 0
AnchorPoint: "top" 325 695 basechar 0
LayerCount: 2
Fore
SplineSet
21 699 m 1,0,-1
 91 700 l 1,1,2
 84 520 84 520 97 377 c 0,3,4
 104 316 104 316 118.5 258 c 128,-1,5
 133 200 133 200 157 154 c 128,-1,6
 181 108 181 108 216 80.5 c 128,-1,7
 251 53 251 53 301 52 c 0,8,9
 395 51 395 51 452.5 79 c 128,-1,10
 510 107 510 107 538.5 179.5 c 128,-1,11
 567 252 567 252 571 377.5 c 128,-1,12
 575 503 575 503 562 697 c 1,13,-1
 663 699 l 1,14,15
 666 414 666 414 659.5 336 c 128,-1,16
 653 258 653 258 634 196 c 128,-1,17
 615 134 615 134 575.5 90.5 c 128,-1,18
 536 47 536 47 470.5 23.5 c 128,-1,19
 405 0 405 0 305 1 c 0,20,21
 227 0 227 0 176.5 34 c 128,-1,22
 126 68 126 68 94.5 124 c 128,-1,23
 63 180 63 180 48.5 253 c 128,-1,24
 34 326 34 326 28.5 404 c 128,-1,25
 23 482 23 482 21 699 c 1,0,-1
EndSplineSet
Validated: 33
EndChar

StartChar: V
Encoding: 86 86 54
Width: 710
GlyphClass: 2
Flags: W
AnchorPoint: "bottomattside" 334 4 basechar 0
AnchorPoint: "bottom" 315 -45 basechar 0
AnchorPoint: "top" 320 705 basechar 0
LayerCount: 2
Fore
SplineSet
11 675 m 1,0,-1
 71 700 l 1,1,-1
 314 117 l 1,2,-1
 585 701 l 1,3,-1
 662 664 l 1,4,-1
 334 -3 l 1,5,-1
 300 0 l 1,6,-1
 11 675 l 1,0,-1
EndSplineSet
Validated: 1
EndChar

StartChar: W
Encoding: 87 87 55
Width: 939
GlyphClass: 2
Flags: W
AnchorPoint: "bottomattside" 715 57 basechar 0
AnchorPoint: "bottom" 525 -15 basechar 0
AnchorPoint: "top" 525 695 basechar 0
LayerCount: 2
Fore
SplineSet
714 48 m 1,0,-1
 682 49 l 1,1,-1
 534 407 l 1,2,-1
 356 6 l 1,3,-1
 315 0 l 1,4,-1
 30 667 l 1,5,-1
 108 700 l 1,6,-1
 340 115 l 1,7,-1
 523 526 l 1,8,-1
 548 532 l 1,9,-1
 682 196 l 1,10,-1
 818 671 l 1,11,-1
 898 650 l 1,12,-1
 714 48 l 1,0,-1
EndSplineSet
Validated: 1
EndChar

StartChar: X
Encoding: 88 88 56
AltUni2: 000425.ffffffff.0 0003a7.ffffffff.0
Width: 720
GlyphClass: 2
Flags: W
AnchorPoint: "bottomattside" 624 21 basechar 0
AnchorPoint: "bottom" 325 20 basechar 0
AnchorPoint: "top" 305 685 basechar 0
LayerCount: 2
Fore
SplineSet
601 3 m 1,0,-1
 325 341 l 1,1,-1
 110 11 l 1,2,-1
 34 59 l 1,3,-1
 279 394 l 1,4,-1
 49 661 l 1,5,-1
 100 699 l 1,6,-1
 315 447 l 1,7,-1
 472 675 l 1,8,-1
 536 626 l 1,9,-1
 358 390 l 1,10,-1
 655 42 l 1,11,-1
 601 3 l 1,0,-1
EndSplineSet
Validated: 1
EndChar

StartChar: Y
Encoding: 89 89 57
AltUni2: 0003a5.ffffffff.0
Width: 620
GlyphClass: 2
Flags: W
AnchorPoint: "bottomattside" 301 4 basechar 0
AnchorPoint: "bottom" 315 -30 basechar 0
AnchorPoint: "top" 290 705 basechar 0
LayerCount: 2
Fore
SplineSet
27 654 m 1,0,-1
 74 688 l 1,1,-1
 279 439 l 1,2,-1
 488 701 l 1,3,-1
 553 649 l 1,4,-1
 327 386 l 1,5,-1
 354 3 l 1,6,-1
 267 0 l 1,7,-1
 255 388 l 1,8,-1
 27 654 l 1,0,-1
EndSplineSet
Validated: 1
EndChar

StartChar: Z
Encoding: 90 90 58
Width: 638
GlyphClass: 2
Flags: W
AnchorPoint: "bottomattside" 590 14 basechar 0
AnchorPoint: "bottom" 355 -25 basechar 0
AnchorPoint: "top" 320 755 basechar 0
LayerCount: 2
Fore
SplineSet
595 694 m 1,0,-1
 596 659 l 1,1,-1
 205 60 l 1,2,-1
 586 78 l 1,3,-1
 591 10 l 1,4,-1
 105 0 l 1,5,-1
 100 45 l 1,6,-1
 500 643 l 1,7,-1
 50 639 l 1,8,-1
 45 700 l 1,9,-1
 595 694 l 1,0,-1
EndSplineSet
Validated: 1
EndChar

StartChar: bracketleft
Encoding: 91 91 59
Width: 200
GlyphClass: 2
Flags: W
LayerCount: 2
Fore
SplineSet
128 700 m 1,0,-1
 128 628 l 1,1,-1
 62 628 l 1,2,-1
 72 37 l 1,3,-1
 140 45 l 1,4,-1
 147 9 l 1,5,-1
 35 0 l 1,6,-1
 2 688 l 1,7,-1
 128 700 l 1,0,-1
EndSplineSet
Validated: 1
EndChar

StartChar: backslash
Encoding: 92 92 60
Width: 369
GlyphClass: 2
Flags: W
LayerCount: 2
Fore
SplineSet
318 74 m 1,0,-1
 277 60 l 1,1,-1
 12 668 l 1,2,-1
 87 679 l 1,3,-1
 318 74 l 1,0,-1
EndSplineSet
Validated: 1
EndChar

StartChar: bracketright
Encoding: 93 93 61
Width: 216
GlyphClass: 2
Flags: W
LayerCount: 2
Fore
SplineSet
32 60 m 1,0,-1
 99 62 l 1,1,-1
 80 662 l 1,2,-1
 9 655 l 1,3,-1
 1 691 l 1,4,-1
 116 702 l 1,5,-1
 163 16 l 1,6,-1
 35 2 l 1,7,-1
 32 60 l 1,0,-1
EndSplineSet
Validated: 1
EndChar

StartChar: asciicircum
Encoding: 94 94 62
Width: 286
GlyphClass: 2
Flags: W
LayerCount: 2
Fore
SplineSet
133 753 m 1,0,-1
 236 583 l 1,1,-1
 206 576 l 1,2,-1
 131 711 l 1,3,-1
 43 569 l 1,4,-1
 0 594 l 1,5,-1
 133 753 l 1,0,-1
EndSplineSet
Validated: 1
EndChar

StartChar: underscore
Encoding: 95 95 63
Width: 445
GlyphClass: 2
Flags: W
LayerCount: 2
Fore
SplineSet
0 -64 m 1,0,-1
 445 -64 l 1,1,-1
 445 -104 l 1,2,-1
 0 -104 l 1,3,-1
 0 -64 l 1,0,-1
EndSplineSet
Validated: 1
EndChar

StartChar: grave
Encoding: 96 96 64
Width: 131
GlyphClass: 2
Flags: W
LayerCount: 2
Fore
SplineSet
0 705 m 1,0,-1
 38 750 l 1,1,-1
 131 640 l 1,2,-1
 117 619 l 1,3,-1
 0 705 l 1,0,-1
EndSplineSet
Validated: 1
EndChar

StartChar: a
Encoding: 97 97 65
AltUni2: 000430.ffffffff.0
Width: 637
GlyphClass: 2
Flags: W
AnchorPoint: "bottomattside" 514 9 basechar 0
AnchorPoint: "bottom" 305 -30 basechar 0
AnchorPoint: "top" 290 515 basechar 0
LayerCount: 2
Fore
SplineSet
279 53 m 0,0,1
 333 51 333 51 372 67.5 c 128,-1,2
 411 84 411 84 435.5 111 c 128,-1,3
 460 138 460 138 468.5 171.5 c 128,-1,4
 477 205 477 205 478 237 c 0,5,6
 479 271 479 271 472.5 304 c 128,-1,7
 466 337 466 337 444 363 c 128,-1,8
 422 389 422 389 387.5 405.5 c 128,-1,9
 353 422 353 422 307 423 c 0,10,11
 279 424 279 424 246.5 414.5 c 128,-1,12
 214 405 214 405 186 384 c 128,-1,13
 158 363 158 363 138.5 330.5 c 128,-1,14
 119 298 119 298 117 251 c 0,15,16
 116 230 116 230 118.5 207.5 c 128,-1,17
 121 185 121 185 129 163.5 c 128,-1,18
 137 142 137 142 149 122.5 c 128,-1,19
 161 103 161 103 179.5 88 c 128,-1,20
 198 73 198 73 222.5 63.5 c 128,-1,21
 247 54 247 54 279 53 c 0,0,1
571 455 m 1,22,-1
 565 4 l 1,23,-1
 480 5 l 1,24,-1
 483 76 l 1,25,26
 446 42 446 42 397.5 25 c 128,-1,27
 349 8 349 8 294 7 c 0,28,29
 236 6 236 6 187 24.5 c 128,-1,30
 138 43 138 43 103 76.5 c 128,-1,31
 68 110 68 110 50.5 156 c 128,-1,32
 33 202 33 202 38 256 c 0,33,34
 43 309 43 309 67.5 349.5 c 128,-1,35
 92 390 92 390 129.5 417 c 128,-1,36
 167 444 167 444 215.5 458 c 128,-1,37
 264 472 264 472 318 472 c 0,38,39
 367 472 367 472 412.5 454.5 c 128,-1,40
 458 437 458 437 486 405 c 1,41,-1
 488 455 l 1,42,-1
 571 455 l 1,22,-1
EndSplineSet
Validated: 33
EndChar

StartChar: b
Encoding: 98 98 66
Width: 576
GlyphClass: 2
Flags: W
AnchorPoint: "bottomattside" 338 6 basechar 0
AnchorPoint: "bottom" 285 -30 basechar 0
AnchorPoint: "top" 270 685 basechar 0
LayerCount: 2
Fore
SplineSet
81 235 m 0,0,1
 82 203 82 203 94 168.5 c 128,-1,2
 106 134 106 134 131.5 106.5 c 128,-1,3
 157 79 157 79 196 62 c 128,-1,4
 235 45 235 45 291 47 c 0,5,6
 340 49 340 49 372.5 68.5 c 128,-1,7
 405 88 405 88 424.5 117.5 c 128,-1,8
 444 147 444 147 451.5 182 c 128,-1,9
 459 217 459 217 458 250 c 0,10,11
 455 297 455 297 435.5 331 c 128,-1,12
 416 365 416 365 387 386 c 128,-1,13
 358 407 358 407 324.5 416.5 c 128,-1,14
 291 426 291 426 262 426 c 0,15,16
 215 425 215 425 180 408 c 128,-1,17
 145 391 145 391 122.5 364 c 128,-1,18
 100 337 100 337 89.5 303.5 c 128,-1,19
 79 270 79 270 81 235 c 0,0,1
72 693 m 1,20,-1
 73 408 l 1,21,22
 108 440 108 440 154.5 458 c 128,-1,23
 201 476 201 476 251 476 c 0,24,25
 307 476 307 476 355.5 463 c 128,-1,26
 404 450 404 450 441.5 423 c 128,-1,27
 479 396 479 396 502.5 355.5 c 128,-1,28
 526 315 526 315 532 261 c 0,29,30
 537 206 537 206 520 157.5 c 128,-1,31
 503 109 503 109 468.5 74 c 128,-1,32
 434 39 434 39 384.5 19 c 128,-1,33
 335 -1 335 -1 275 0 c 0,34,35
 220 1 220 1 170.5 18.5 c 128,-1,36
 121 36 121 36 83 70 c 1,37,-1
 85 -2 l 1,38,-1
 6 -3 l 1,39,-1
 0 693 l 1,40,-1
 72 693 l 1,20,-1
EndSplineSet
Validated: 33
EndChar

StartChar: c
Encoding: 99 99 67
AltUni2: 000441.ffffffff.0
Width: 471
GlyphClass: 2
Flags: W
AnchorPoint: "bottomattside" 402 11 basechar 0
AnchorPoint: "bottom" 270 -30 basechar 0
AnchorPoint: "top" 238 535 basechar 0
LayerCount: 2
Fore
SplineSet
452 467 m 1,0,-1
 451 385 l 1,1,2
 364 422 364 422 271 417 c 0,3,4
 242 414 242 414 214 406 c 128,-1,5
 186 398 186 398 161.5 382.5 c 128,-1,6
 137 367 137 367 114 340.5 c 128,-1,7
 91 314 91 314 82 276 c 0,8,9
 75 241 75 241 78 221 c 128,-1,10
 81 201 81 201 88.5 174.5 c 128,-1,11
 96 148 96 148 122.5 119 c 128,-1,12
 149 90 149 90 186 70 c 128,-1,13
 223 50 223 50 272.5 49.5 c 128,-1,14
 322 49 322 49 399 74 c 1,15,16
 402 13 402 13 402 11 c 0,17,18
 363 -4 363 -4 313.5 -7 c 128,-1,19
 264 -10 264 -10 217.5 0 c 128,-1,20
 171 10 171 10 128 33.5 c 128,-1,21
 85 57 85 57 55.5 99 c 128,-1,22
 26 141 26 141 14.5 199 c 128,-1,23
 3 257 3 257 30 338 c 1,24,25
 49 380 49 380 73.5 408.5 c 128,-1,26
 98 437 98 437 128.5 455 c 128,-1,27
 159 473 159 473 193 481.5 c 128,-1,28
 227 490 227 490 261 494 c 0,29,30
 366 501 366 501 452 467 c 1,0,-1
EndSplineSet
Validated: 33
EndChar

StartChar: d
Encoding: 100 100 68
Width: 617
GlyphClass: 2
Flags: W
AnchorPoint: "bottomattside" 513 2 basechar 0
AnchorPoint: "bottom" 290 -30 basechar 0
AnchorPoint: "top" 300 700 basechar 0
LayerCount: 2
Fore
SplineSet
273 47 m 0,0,1
 329 45 329 45 368 62 c 128,-1,2
 407 79 407 79 432.5 106.5 c 128,-1,3
 458 134 458 134 470 168.5 c 128,-1,4
 482 203 482 203 483 235 c 0,5,6
 485 270 485 270 474.5 303.5 c 128,-1,7
 464 337 464 337 441.5 364 c 128,-1,8
 419 391 419 391 384 408 c 128,-1,9
 349 425 349 425 302 426 c 0,10,11
 282 426 282 426 260.5 422 c 128,-1,12
 239 418 239 418 218 409 c 128,-1,13
 197 400 197 400 177.5 386 c 128,-1,14
 158 372 158 372 143 352.5 c 128,-1,15
 128 333 128 333 118 307 c 128,-1,16
 108 281 108 281 107 250 c 0,17,18
 105 217 105 217 112.5 182 c 128,-1,19
 120 147 120 147 139.5 117.5 c 128,-1,20
 159 88 159 88 191.5 68.5 c 128,-1,21
 224 49 224 49 273 47 c 0,0,1
592 693 m 1,22,-1
 586 -3 l 1,23,-1
 479 -2 l 1,24,-1
 481 70 l 1,25,26
 443 36 443 36 393.5 18.5 c 128,-1,27
 344 1 344 1 289 0 c 0,28,29
 229 -1 229 -1 178.5 18 c 128,-1,30
 128 37 128 37 92.5 71 c 128,-1,31
 57 105 57 105 39 152 c 128,-1,32
 21 199 21 199 26 254 c 128,-1,33
 31 309 31 309 56 350.5 c 128,-1,34
 81 392 81 392 119.5 420 c 128,-1,35
 158 448 158 448 207.5 462 c 128,-1,36
 257 476 257 476 313 476 c 0,37,38
 363 476 363 476 409.5 458 c 128,-1,39
 456 440 456 440 491 408 c 1,40,-1
 492 693 l 1,41,-1
 592 693 l 1,22,-1
EndSplineSet
Validated: 33
EndChar

StartChar: e
Encoding: 101 101 69
AltUni2: 000435.ffffffff.0
Width: 598
GlyphClass: 2
Flags: W
AnchorPoint: "bottomattside" 466 22 basechar 0
AnchorPoint: "bottom" 305 -35 basechar 0
AnchorPoint: "top" 280 495 basechar 0
LayerCount: 2
Fore
SplineSet
472 269 m 1,0,1
 464 306 464 306 452.5 334 c 128,-1,2
 441 362 441 362 417 382 c 128,-1,3
 393 402 393 402 365.5 414.5 c 128,-1,4
 338 427 338 427 308 431 c 0,5,6
 271 437 271 437 235 428 c 128,-1,7
 199 419 199 419 170.5 398.5 c 128,-1,8
 142 378 142 378 124.5 347.5 c 128,-1,9
 107 317 107 317 106 281 c 1,10,-1
 472 269 l 1,0,1
558 221 m 1,11,12
 564 220 564 220 547.5 220 c 128,-1,13
 531 220 531 220 500.5 220 c 128,-1,14
 470 220 470 220 429 220 c 128,-1,15
 388 220 388 220 344 220 c 128,-1,16
 300 220 300 220 257.5 220 c 128,-1,17
 215 220 215 220 181 220 c 128,-1,18
 147 220 147 220 125.5 220 c 128,-1,19
 104 220 104 220 102 219 c 0,20,21
 107 189 107 189 121 164.5 c 128,-1,22
 135 140 135 140 154.5 122 c 128,-1,23
 174 104 174 104 197.5 91.5 c 128,-1,24
 221 79 221 79 243 74 c 0,25,26
 257 71 257 71 276.5 69.5 c 128,-1,27
 296 68 296 68 322.5 69.5 c 128,-1,28
 349 71 349 71 381.5 78 c 128,-1,29
 414 85 414 85 453 100 c 1,30,-1
 468 20 l 1,31,32
 439 6 439 6 402 -1 c 128,-1,33
 365 -8 365 -8 327.5 -8.5 c 128,-1,34
 290 -9 290 -9 256.5 -4 c 128,-1,35
 223 1 223 1 201 12 c 0,36,37
 174 24 174 24 148 39.5 c 128,-1,38
 122 55 122 55 100 77.5 c 128,-1,39
 78 100 78 100 61.5 130 c 128,-1,40
 45 160 45 160 38 199 c 0,41,42
 30 247 30 247 37 287 c 128,-1,43
 44 327 44 327 62 360 c 128,-1,44
 80 393 80 393 107 418 c 128,-1,45
 134 443 134 443 166.5 459.5 c 128,-1,46
 199 476 199 476 234.5 483.5 c 128,-1,47
 270 491 270 491 304 491 c 0,48,49
 366 489 366 489 414.5 468.5 c 128,-1,50
 463 448 463 448 495.5 412.5 c 128,-1,51
 528 377 528 377 544 328.5 c 128,-1,52
 560 280 560 280 558 221 c 1,11,12
EndSplineSet
Validated: 33
EndChar

StartChar: f
Encoding: 102 102 70
Width: 357
GlyphClass: 2
Flags: W
AnchorPoint: "bottomattside" 88 6 basechar 0
AnchorPoint: "bottom" 90 -30 basechar 0
AnchorPoint: "top" 215 740 basechar 0
LayerCount: 2
Fore
SplineSet
133 6 m 1,0,-1
 54 2 l 5,1,2
 51 141 51 141 49 244 c 0,3,4
 47 333 47 333 49 400 c 1,5,-1
 -43 401 l 1,6,-1
 -43 465 l 1,7,-1
 51 462 l 1,8,9
 54 509 54 509 60 543 c 0,10,11
 68 592 68 592 83.5 623 c 128,-1,12
 99 654 99 654 123.5 670.5 c 128,-1,13
 148 687 148 687 183 696 c 0,14,15
 197 699 197 699 214 700.5 c 128,-1,16
 231 702 231 702 250 698.5 c 128,-1,17
 269 695 269 695 290.5 686 c 128,-1,18
 312 677 312 677 334 660 c 1,19,-1
 301 602 l 1,20,21
 289 611 289 611 277.5 618 c 128,-1,22
 266 625 266 625 255 629 c 128,-1,23
 244 633 244 633 231.5 634.5 c 128,-1,24
 219 636 219 636 206 637 c 0,25,26
 179 636 179 636 162 622.5 c 128,-1,27
 145 609 145 609 134.5 588 c 128,-1,28
 124 567 124 567 120 540.5 c 128,-1,29
 116 514 116 514 115 487 c 0,30,31
 114 473 114 473 114 460 c 1,32,-1
 235 457 l 1,33,-1
 235 404 l 1,34,-1
 115 405 l 1,35,-1
 115 408 l 1,36,37
 115 402 115 402 115 396 c 2,38,-1
 133 6 l 1,0,-1
EndSplineSet
Validated: 37
EndChar

StartChar: g
Encoding: 103 103 71
Width: 598
GlyphClass: 2
Flags: W
AnchorPoint: "bottomattside" 391 -227 basechar 0
AnchorPoint: "bottom" 325 -270 basechar 0
AnchorPoint: "top" 255 515 basechar 0
LayerCount: 2
Fore
SplineSet
306 497 m 0,0,1
 334 494 334 494 356.5 487.5 c 128,-1,2
 379 481 379 481 397 473 c 128,-1,3
 415 465 415 465 428 458 c 128,-1,4
 441 451 441 451 449 446 c 1,5,-1
 448 476 l 1,6,-1
 551 476 l 1,7,8
 548 337 548 337 545 231.5 c 128,-1,9
 542 126 542 126 535 48 c 128,-1,10
 528 -30 528 -30 517 -83 c 128,-1,11
 506 -136 506 -136 480.5 -169 c 128,-1,12
 455 -202 455 -202 418.5 -217.5 c 128,-1,13
 382 -233 382 -233 339 -236 c 0,14,15
 302 -238 302 -238 264 -223 c 128,-1,16
 226 -208 226 -208 196 -172 c 1,17,-1
 241 -125 l 1,18,19
 253 -140 253 -140 263.5 -149.5 c 128,-1,20
 274 -159 274 -159 284 -166 c 128,-1,21
 294 -173 294 -173 305 -176.5 c 128,-1,22
 316 -180 316 -180 330 -182 c 0,23,24
 355 -185 355 -185 373.5 -174.5 c 128,-1,25
 392 -164 392 -164 404.5 -144 c 128,-1,26
 417 -124 417 -124 424.5 -98 c 128,-1,27
 432 -72 432 -72 436 -44.5 c 128,-1,28
 440 -17 440 -17 441.5 9.5 c 128,-1,29
 443 36 443 36 444 57 c 1,30,31
 428 43 428 43 408 33.5 c 128,-1,32
 388 24 388 24 366 18.5 c 128,-1,33
 344 13 344 13 319.5 11 c 128,-1,34
 295 9 295 9 269 8 c 0,35,36
 229 8 229 8 192.5 17 c 128,-1,37
 156 26 156 26 125.5 43.5 c 128,-1,38
 95 61 95 61 70.5 85 c 128,-1,39
 46 109 46 109 31 139 c 128,-1,40
 16 169 16 169 9 203.5 c 128,-1,41
 2 238 2 238 7 275 c 0,42,43
 14 331 14 331 40.5 374.5 c 128,-1,44
 67 418 67 418 107.5 447.5 c 128,-1,45
 148 477 148 477 199 490 c 128,-1,46
 250 503 250 503 306 497 c 0,0,1
255 65 m 0,47,48
 301 59 301 59 339 72.5 c 128,-1,49
 377 86 377 86 402 111.5 c 128,-1,50
 427 137 427 137 439 171 c 128,-1,51
 451 205 451 205 452 240 c 0,52,53
 453 279 453 279 446.5 314 c 128,-1,54
 440 349 440 349 419.5 375.5 c 128,-1,55
 399 402 399 402 365.5 419 c 128,-1,56
 332 436 332 436 285 437 c 0,57,58
 253 439 253 439 219 432 c 128,-1,59
 185 425 185 425 156 406 c 128,-1,60
 127 387 127 387 107 353.5 c 128,-1,61
 87 320 87 320 84 270 c 0,62,63
 81 236 81 236 89.5 202 c 128,-1,64
 98 168 98 168 119 139.5 c 128,-1,65
 140 111 140 111 173.5 91 c 128,-1,66
 207 71 207 71 255 65 c 0,47,48
EndSplineSet
Validated: 33
EndChar

StartChar: h
Encoding: 104 104 72
Width: 523
GlyphClass: 2
Flags: W
AnchorPoint: "bottomattside" 415 12 basechar 0
AnchorPoint: "bottom" 240 -30 basechar 0
AnchorPoint: "top" 235 715 basechar 0
LayerCount: 2
Fore
SplineSet
381 8 m 1,0,1
 380 33 380 33 381.5 65.5 c 128,-1,2
 383 98 383 98 384 133.5 c 128,-1,3
 385 169 385 169 384 205.5 c 128,-1,4
 383 242 383 242 378 275.5 c 128,-1,5
 373 309 373 309 363 338 c 128,-1,6
 353 367 353 367 335 388 c 128,-1,7
 317 409 317 409 290 420 c 128,-1,8
 263 431 263 431 225 427 c 0,9,10
 192 424 192 424 166.5 413 c 128,-1,11
 141 402 141 402 123 379 c 128,-1,12
 105 356 105 356 95.5 320 c 128,-1,13
 86 284 86 284 86 231 c 2,14,-1
 90 70 l 1,15,-1
 94 1 l 1,16,-1
 16 0 l 1,17,-1
 -6 701 l 1,18,-1
 66 702 l 1,19,-1
 78 410 l 1,20,21
 88 422 88 422 101.5 432.5 c 128,-1,22
 115 443 115 443 130.5 451 c 128,-1,23
 146 459 146 459 161.5 464.5 c 128,-1,24
 177 470 177 470 192 472 c 0,25,26
 256 483 256 483 301 476.5 c 128,-1,27
 346 470 346 470 376 446 c 128,-1,28
 406 422 406 422 423.5 382 c 128,-1,29
 441 342 441 342 450 286.5 c 128,-1,30
 459 231 459 231 461.5 161.5 c 128,-1,31
 464 92 464 92 465 8 c 1,32,-1
 381 8 l 1,0,1
EndSplineSet
Validated: 33
EndChar

StartChar: j
Encoding: 106 106 74
Width: 362
GlyphClass: 2
Flags: W
AnchorPoint: "bottomattside" 91 -224 basechar 0
AnchorPoint: "bottom" 115 -275 basechar 0
LayerCount: 2
Fore
SplineSet
226 571 m 0,0,1
 226 580 226 580 229.5 587.5 c 0,2,3
 233 595 233 595 239 601 c 0,4,5
 245 607 245 607 253 610.5 c 0,6,7
 261 614 261 614 269 614 c 256,8,9
 277 614 277 614 285 610.5 c 0,10,11
 293 607 293 607 299 601 c 0,12,13
 305 595 305 595 308.5 587.5 c 0,14,15
 312 580 312 580 312 571 c 0,16,17
 312 553 312 553 299 540.5 c 0,18,19
 286 528 286 528 269 528 c 256,20,21
 252 528 252 528 239 540.5 c 0,22,23
 226 553 226 553 226 571 c 0,0,1
EndSplineSet
Refer: 378 567 N 1 0 0 1 0 0 2
Validated: 1
Substitution2: "dotless-1" uni0237
EndChar

StartChar: k
Encoding: 107 107 75
Width: 501
GlyphClass: 2
Flags: W
AnchorPoint: "bottomattside" 400 34 basechar 0
AnchorPoint: "bottom" 230 -5 basechar 0
AnchorPoint: "top" 220 705 basechar 0
LayerCount: 2
Fore
SplineSet
0 697 m 1,0,-1
 66 699 l 1,1,-1
 66 321 l 1,2,-1
 353 510 l 1,3,-1
 397 450 l 1,4,-1
 114 283 l 1,5,-1
 439 83 l 1,6,-1
 385 15 l 1,7,-1
 76 243 l 1,8,-1
 87 4 l 1,9,-1
 18 1 l 1,10,-1
 0 697 l 1,0,-1
EndSplineSet
Validated: 1
EndChar

StartChar: l
Encoding: 108 108 76
Width: 167
GlyphClass: 2
Flags: W
AnchorPoint: "bottomattside" 70 4 basechar 0
AnchorPoint: "bottom" 80 -25 basechar 0
AnchorPoint: "top" 75 740 basechar 0
LayerCount: 2
Fore
SplineSet
28 711 m 1,0,-1
 128 712 l 1,1,-1
 129 0 l 1,2,-1
 36 0 l 1,3,-1
 28 711 l 1,0,-1
EndSplineSet
Validated: 1
EndChar

StartChar: m
Encoding: 109 109 77
Width: 879
GlyphClass: 2
Flags: W
AnchorPoint: "bottomattside" 725 9 basechar 0
AnchorPoint: "bottom" 415 -30 basechar 0
AnchorPoint: "top" 420 510 basechar 0
LayerCount: 2
Fore
SplineSet
558 470 m 0,0,1
 634 482 634 482 680.5 458.5 c 128,-1,2
 727 435 727 435 752 377 c 128,-1,3
 777 319 777 319 783 226 c 128,-1,4
 789 133 789 133 783 5 c 1,5,-1
 691 5 l 1,6,7
 691 38 691 38 693.5 82.5 c 128,-1,8
 696 127 696 127 696.5 174.5 c 128,-1,9
 697 222 697 222 693 268 c 128,-1,10
 689 314 689 314 676 348.5 c 128,-1,11
 663 383 663 383 638 402.5 c 128,-1,12
 613 422 613 422 572 417 c 0,13,14
 537 412 537 412 514.5 390 c 128,-1,15
 492 368 492 368 479.5 335.5 c 128,-1,16
 467 303 467 303 461.5 264.5 c 128,-1,17
 456 226 456 226 455 188 c 0,18,19
 458 150 458 150 459 107.5 c 128,-1,20
 460 65 460 65 461 18 c 1,21,-1
 381 18 l 1,22,23
 381 50 381 50 382.5 95 c 128,-1,24
 384 140 384 140 382.5 187.5 c 128,-1,25
 381 235 381 235 373.5 281.5 c 128,-1,26
 366 328 366 328 348.5 364 c 128,-1,27
 331 400 331 400 300 420.5 c 128,-1,28
 269 441 269 441 221 437 c 0,29,30
 90 427 90 427 88 231 c 1,31,-1
 92 70 l 1,32,-1
 96 1 l 1,33,-1
 14 0 l 1,34,-1
 1 460 l 1,35,-1
 78 461 l 1,36,-1
 80 410 l 1,37,38
 97 436 97 436 124.5 454.5 c 128,-1,39
 152 473 152 473 189 481 c 0,40,41
 284 503 284 503 338.5 476.5 c 128,-1,42
 393 450 393 450 420 380 c 1,43,44
 427 389 427 389 440 403 c 128,-1,45
 453 417 453 417 471 431 c 128,-1,46
 489 445 489 445 511 456 c 128,-1,47
 533 467 533 467 558 470 c 0,0,1
EndSplineSet
Validated: 33
EndChar

StartChar: n
Encoding: 110 110 78
Width: 603
GlyphClass: 2
Flags: W
AnchorPoint: "bottomattside" 468 22 basechar 0
AnchorPoint: "bottom" 290 -5 basechar 0
AnchorPoint: "top" 275 515 basechar 0
LayerCount: 2
Fore
SplineSet
434 18 m 1,0,1
 434 42 434 42 435 73.5 c 128,-1,2
 436 105 436 105 437 140 c 128,-1,3
 438 175 438 175 437.5 211.5 c 128,-1,4
 437 248 437 248 431.5 282 c 128,-1,5
 426 316 426 316 416 345.5 c 128,-1,6
 406 375 406 375 390.5 396.5 c 128,-1,7
 375 418 375 418 350.5 429 c 128,-1,8
 326 440 326 440 288 437 c 0,9,10
 255 434 255 434 225.5 419.5 c 128,-1,11
 196 405 196 405 173 379.5 c 128,-1,12
 150 354 150 354 136 316.5 c 128,-1,13
 122 279 122 279 121 231 c 2,14,-1
 125 70 l 1,15,-1
 129 1 l 1,16,-1
 51 0 l 1,17,-1
 38 460 l 1,18,-1
 111 461 l 1,19,-1
 113 410 l 1,20,21
 145 438 145 438 180.5 455 c 128,-1,22
 216 472 216 472 256 481 c 0,23,24
 319 496 319 496 366 491.5 c 128,-1,25
 413 487 413 487 448.5 462 c 128,-1,26
 484 437 484 437 506 396 c 128,-1,27
 528 355 528 355 534.5 299 c 128,-1,28
 541 243 541 243 544 172.5 c 128,-1,29
 547 102 547 102 547 18 c 1,30,-1
 434 18 l 1,0,1
EndSplineSet
Validated: 33
EndChar

StartChar: o
Encoding: 111 111 79
AltUni2: 00043e.ffffffff.0 0003bf.ffffffff.0
Width: 608
GlyphClass: 2
Flags: W
AnchorPoint: "bottomattside" 381 4 basechar 0
AnchorPoint: "bottom" 285 -35 basechar 0
AnchorPoint: "top" 270 500 basechar 0
LayerCount: 2
Fore
SplineSet
282 34 m 0,0,1
 309 33 309 33 333.5 41 c 128,-1,2
 358 49 358 49 382 63.5 c 128,-1,3
 406 78 406 78 423.5 98 c 128,-1,4
 441 118 441 118 452 140.5 c 128,-1,5
 463 163 463 163 467 186.5 c 128,-1,6
 471 210 471 210 472 233 c 0,7,8
 474 268 474 268 464 301.5 c 128,-1,9
 454 335 454 335 431.5 361.5 c 128,-1,10
 409 388 409 388 373.5 405.5 c 128,-1,11
 338 423 338 423 302 424 c 0,12,13
 278 426 278 426 243 415.5 c 128,-1,14
 208 405 208 405 178 382.5 c 128,-1,15
 148 360 148 360 127.5 324.5 c 128,-1,16
 107 289 107 289 106 240 c 0,17,18
 104 207 104 207 113.5 171.5 c 128,-1,19
 123 136 123 136 144.5 106 c 128,-1,20
 166 76 166 76 200 56 c 128,-1,21
 234 36 234 36 282 34 c 0,0,1
558 241 m 0,22,23
 555 180 555 180 531.5 132.5 c 128,-1,24
 508 85 508 85 469 53 c 128,-1,25
 430 21 430 21 382 3.5 c 128,-1,26
 334 -14 334 -14 292 -14 c 0,27,28
 242 -15 242 -15 189 4.5 c 128,-1,29
 136 24 136 24 97.5 58 c 128,-1,30
 59 92 59 92 39 140 c 128,-1,31
 19 188 19 188 24 243 c 0,32,33
 30 298 30 298 54.5 341.5 c 128,-1,34
 79 385 79 385 118 414.5 c 128,-1,35
 157 444 157 444 208 461.5 c 128,-1,36
 259 479 259 479 307 478 c 0,37,38
 346 478 346 478 394.5 460 c 128,-1,39
 443 442 443 442 480 410.5 c 128,-1,40
 517 379 517 379 539 336 c 128,-1,41
 561 293 561 293 558 241 c 0,22,23
EndSplineSet
Validated: 33
EndChar

StartChar: p
Encoding: 112 112 80
AltUni2: 000440.ffffffff.0
Width: 585
GlyphClass: 2
Flags: W
AnchorPoint: "bottomattside" 67 -205 basechar 0
AnchorPoint: "bottom" 200 -225 basechar 0
AnchorPoint: "top" 275 505 basechar 0
LayerCount: 2
Fore
SplineSet
102 246 m 0,0,1
 102 209 102 209 113 173.5 c 128,-1,2
 124 138 124 138 148 111 c 128,-1,3
 172 84 172 84 211 69 c 128,-1,4
 250 54 250 54 304 60 c 0,5,6
 336 63 336 63 360 73.5 c 128,-1,7
 384 84 384 84 402 99 c 128,-1,8
 420 114 420 114 432.5 133 c 128,-1,9
 445 152 445 152 453 173 c 128,-1,10
 461 194 461 194 463.5 216 c 128,-1,11
 466 238 466 238 465 259 c 0,12,13
 463 306 463 306 444 339.5 c 128,-1,14
 425 373 425 373 397 394 c 128,-1,15
 369 415 369 415 337 424.5 c 128,-1,16
 305 434 305 434 277 434 c 0,17,18
 232 433 232 433 198.5 416 c 128,-1,19
 165 399 165 399 143 373 c 128,-1,20
 121 347 121 347 110.5 313.5 c 128,-1,21
 100 280 100 280 102 246 c 0,0,1
94 466 m 1,22,-1
 96 416 l 1,23,24
 129 448 129 448 172 463.5 c 128,-1,25
 215 479 215 479 264 481 c 0,26,27
 316 484 316 484 362 472.5 c 128,-1,28
 408 461 408 461 444 435 c 128,-1,29
 480 409 480 409 504 368 c 128,-1,30
 528 327 528 327 535 271 c 0,31,32
 540 216 540 216 523.5 168 c 128,-1,33
 507 120 507 120 476.5 81 c 128,-1,34
 446 42 446 42 396.5 17.5 c 128,-1,35
 347 -7 347 -7 290 -5 c 0,36,37
 264 -4 264 -4 238.5 0.5 c 128,-1,38
 213 5 213 5 188.5 14.5 c 128,-1,39
 164 24 164 24 141.5 37 c 128,-1,40
 119 50 119 50 99 64 c 1,41,-1
 100 -208 l 1,42,-1
 33 -209 l 1,43,-1
 28 466 l 1,44,-1
 94 466 l 1,22,-1
EndSplineSet
Validated: 33
EndChar

StartChar: q
Encoding: 113 113 81
Width: 580
GlyphClass: 2
Flags: W
AnchorPoint: "bottomattside" 486 -227 basechar 0
AnchorPoint: "bottom" 330 -255 basechar 0
AnchorPoint: "top" 270 490 basechar 0
LayerCount: 2
Fore
SplineSet
250 55 m 0,0,1
 286 55 286 55 315 62.5 c 128,-1,2
 344 70 344 70 366.5 84 c 128,-1,3
 389 98 389 98 405 116.5 c 128,-1,4
 421 135 421 135 431 156 c 128,-1,5
 441 177 441 177 446 199.5 c 128,-1,6
 451 222 451 222 452 243 c 0,7,8
 453 277 453 277 442 310 c 128,-1,9
 431 343 431 343 408 368.5 c 128,-1,10
 385 394 385 394 350.5 410 c 128,-1,11
 316 426 316 426 271 426 c 0,12,13
 252 426 252 426 231 421.5 c 128,-1,14
 210 417 210 417 189.5 407.5 c 128,-1,15
 169 398 169 398 150 384 c 128,-1,16
 131 370 131 370 116.5 350.5 c 128,-1,17
 102 331 102 331 93.5 306 c 128,-1,18
 85 281 85 281 84 250 c 0,19,20
 83 218 83 218 91 184 c 128,-1,21
 99 150 99 150 118.5 121.5 c 128,-1,22
 138 93 138 93 170 74.5 c 128,-1,23
 202 56 202 56 250 55 c 0,0,1
521 460 m 1,24,-1
 528 -230 l 1,25,-1
 452 -231 l 1,26,-1
 453 83 l 1,27,28
 417 48 417 48 369 30 c 128,-1,29
 321 12 321 12 266 10 c 0,30,31
 208 7 208 7 158.5 24.5 c 128,-1,32
 109 42 109 42 73.5 74.5 c 128,-1,33
 38 107 38 107 19.5 153 c 128,-1,34
 1 199 1 199 5 253 c 0,35,36
 9 306 9 306 32.5 347 c 128,-1,37
 56 388 56 388 93 416 c 128,-1,38
 130 444 130 444 178 459 c 128,-1,39
 226 474 226 474 280 475 c 0,40,41
 329 476 329 476 375 459.5 c 128,-1,42
 421 443 421 443 456 412 c 1,43,-1
 456 461 l 1,44,-1
 521 460 l 1,24,-1
EndSplineSet
Validated: 33
EndChar

StartChar: r
Encoding: 114 114 82
Width: 401
GlyphClass: 2
Flags: W
AnchorPoint: "bottomattside" 62 4 basechar 0
AnchorPoint: "bottom" 195 -10 basechar 0
AnchorPoint: "top" 215 500 basechar 0
LayerCount: 2
Fore
SplineSet
103 4 m 1,0,-1
 28 0 l 1,1,-1
 25 459 l 1,2,-1
 95 461 l 1,3,-1
 96 382 l 1,4,5
 104 393 104 393 117 405.5 c 128,-1,6
 130 418 130 418 147 430 c 128,-1,7
 164 442 164 442 185.5 451.5 c 128,-1,8
 207 461 207 461 232.5 465 c 128,-1,9
 258 469 258 469 287.5 464.5 c 128,-1,10
 317 460 317 460 351 445 c 1,11,-1
 331 375 l 1,12,13
 304 390 304 390 276 396.5 c 128,-1,14
 248 403 248 403 220.5 400 c 128,-1,15
 193 397 193 397 169.5 384.5 c 128,-1,16
 146 372 146 372 128.5 347.5 c 128,-1,17
 111 323 111 323 102 287 c 128,-1,18
 93 251 93 251 95 202 c 2,19,-1
 103 4 l 1,0,-1
EndSplineSet
Validated: 33
EndChar

StartChar: s
Encoding: 115 115 83
Width: 435
GlyphClass: 2
Flags: W
AnchorPoint: "bottomattside" 257 0 basechar 0
AnchorPoint: "bottom" 206 -29 basechar 0
AnchorPoint: "top" 205 525 basechar 0
LayerCount: 2
Fore
SplineSet
74 126 m 1,0,1
 117 76 117 76 173 56 c 128,-1,2
 229 36 229 36 246.5 69 c 128,-1,3
 264 102 264 102 219 138.5 c 128,-1,4
 174 175 174 175 122.5 212 c 128,-1,5
 71 249 71 249 47 279 c 128,-1,6
 23 309 23 309 18 345 c 128,-1,7
 13 381 13 381 33 424 c 1,8,9
 57 464 57 464 108.5 487.5 c 128,-1,10
 160 511 160 511 232 500 c 128,-1,11
 304 489 304 489 349 460 c 128,-1,12
 394 431 394 431 394 430 c 2,13,-1
 349 351 l 1,14,15
 293 410 293 410 243.5 425.5 c 128,-1,16
 194 441 194 441 151.5 429.5 c 128,-1,17
 109 418 109 418 91 381 c 1,18,19
 76 337 76 337 106.5 302.5 c 128,-1,20
 137 268 137 268 195.5 225 c 128,-1,21
 254 182 254 182 285.5 146.5 c 128,-1,22
 317 111 317 111 313 68.5 c 128,-1,23
 309 26 309 26 257 0 c 1,24,25
 215 -14 215 -14 176.5 -8 c 128,-1,26
 138 -2 138 -2 111 12 c 128,-1,27
 84 26 84 26 31 66 c 1,28,-1
 74 126 l 1,0,1
EndSplineSet
Validated: 33
EndChar

StartChar: t
Encoding: 116 116 84
Width: 350
GlyphClass: 2
Flags: W
AnchorPoint: "bottomattside" 133 6 basechar 0
AnchorPoint: "bottom" 144 -27 basechar 0
AnchorPoint: "top" 130 665 basechar 0
LayerCount: 2
Fore
SplineSet
169 407 m 1,0,-1
 178 5 l 1,1,-1
 99 2 l 1,2,-1
 97 402 l 1,3,-1
 1 403 l 1,4,-1
 2 467 l 1,5,-1
 102 463 l 1,6,-1
 101 624 l 1,7,-1
 161 624 l 1,8,-1
 165 461 l 1,9,-1
 289 458 l 1,10,-1
 289 406 l 1,11,-1
 169 407 l 1,0,-1
EndSplineSet
Validated: 1
EndChar

StartChar: u
Encoding: 117 117 85
Width: 555
GlyphClass: 2
Flags: W
AnchorPoint: "bottomattside" 454 15 basechar 0
AnchorPoint: "bottom" 250 -30 basechar 0
AnchorPoint: "top" 260 490 basechar 0
LayerCount: 2
Fore
SplineSet
102 473 m 1,0,1
 101 450 101 450 98.5 419 c 128,-1,2
 96 388 96 388 93.5 353 c 128,-1,3
 91 318 91 318 91 281 c 128,-1,4
 91 244 91 244 95 209.5 c 128,-1,5
 99 175 99 175 108.5 144 c 128,-1,6
 118 113 118 113 135.5 90 c 128,-1,7
 153 67 153 67 179.5 54 c 128,-1,8
 206 41 206 41 245 42 c 0,9,10
 282 42 282 42 313 55.5 c 128,-1,11
 344 69 344 69 367 94 c 128,-1,12
 390 119 390 119 403.5 155.5 c 128,-1,13
 417 192 417 192 419 240 c 2,14,-1
 422 467 l 1,15,-1
 500 465 l 1,16,-1
 493 8 l 1,17,-1
 420 10 l 1,18,-1
 420 62 l 1,19,20
 387 34 387 34 351 16 c 128,-1,21
 315 -2 315 -2 274 -4 c 0,22,23
 211 -7 211 -7 166.5 4 c 128,-1,24
 122 15 122 15 93 40 c 128,-1,25
 64 65 64 65 48.5 105 c 128,-1,26
 33 145 33 145 25.5 199 c 128,-1,27
 18 253 18 253 18 322 c 128,-1,28
 18 391 18 391 19 476 c 1,29,-1
 102 473 l 1,0,1
EndSplineSet
Validated: 33
EndChar

StartChar: v
Encoding: 118 118 86
AltUni2: 0003bd.ffffffff.0
Width: 562
GlyphClass: 2
Flags: W
AnchorPoint: "bottomattside" 282 4 basechar 0
AnchorPoint: "bottom" 255 -30 basechar 0
AnchorPoint: "top" 265 500 basechar 0
LayerCount: 2
Fore
SplineSet
1 457 m 1,0,-1
 62 487 l 1,1,-1
 257 106 l 1,2,-1
 448 489 l 1,3,-1
 525 451 l 1,4,-1
 281 -3 l 1,5,-1
 248 0 l 1,6,-1
 1 457 l 1,0,-1
EndSplineSet
Validated: 1
EndChar

StartChar: w
Encoding: 119 119 87
Width: 820
GlyphClass: 2
Flags: W
AnchorPoint: "bottomattside" 604 53 basechar 0
AnchorPoint: "bottom" 415 10 basechar 0
AnchorPoint: "top" 410 560 basechar 0
LayerCount: 2
Fore
SplineSet
606 47 m 1,0,-1
 570 49 l 1,1,-1
 407 382 l 1,2,-1
 245 6 l 1,3,-1
 203 0 l 1,4,-1
 1 451 l 1,5,-1
 79 484 l 1,6,-1
 233 115 l 1,7,-1
 393 495 l 1,8,-1
 427 496 l 1,9,-1
 574 177 l 1,10,-1
 684 493 l 1,11,-1
 758 473 l 1,12,-1
 606 47 l 1,0,-1
EndSplineSet
Validated: 1
EndChar

StartChar: x
Encoding: 120 120 88
AltUni2: 000445.ffffffff.0
Width: 527
GlyphClass: 2
Flags: W
AnchorPoint: "bottomattside" 431 40 basechar 0
AnchorPoint: "bottom" 240 -5 basechar 0
AnchorPoint: "top" 220 505 basechar 0
LayerCount: 2
Fore
SplineSet
413 19 m 1,0,-1
 233 208 l 1,1,-1
 60 1 l 1,2,-1
 0 49 l 1,3,-1
 185 259 l 1,4,-1
 -6 456 l 1,5,-1
 44 505 l 1,6,-1
 229 312 l 1,7,-1
 381 492 l 1,8,-1
 431 448 l 1,9,-1
 272 266 l 1,10,-1
 463 74 l 1,11,-1
 413 19 l 1,0,-1
EndSplineSet
Validated: 1
EndChar

StartChar: y
Encoding: 121 121 89
AltUni2: 000443.ffffffff.0
Width: 549
GlyphClass: 2
Flags: W
AnchorPoint: "bottomattside" 125 -212 basechar 0
AnchorPoint: "bottom" 145 -260 basechar 0
AnchorPoint: "top" 270 515 basechar 0
LayerCount: 2
Fore
SplineSet
318 -36 m 1,0,1
 292 -98 292 -98 266.5 -137 c 128,-1,2
 241 -176 241 -176 214 -196.5 c 128,-1,3
 187 -217 187 -217 157.5 -221.5 c 128,-1,4
 128 -226 128 -226 92 -217 c 0,5,6
 81 -215 81 -215 68 -208 c 128,-1,7
 55 -201 55 -201 41.5 -189 c 128,-1,8
 28 -177 28 -177 16.5 -160.5 c 128,-1,9
 5 -144 5 -144 -2 -122 c 1,10,-1
 56 -94 l 1,11,12
 62 -111 62 -111 68 -122 c 128,-1,13
 74 -133 74 -133 79 -139.5 c 128,-1,14
 84 -146 84 -146 90 -150.5 c 128,-1,15
 96 -155 96 -155 104 -159 c 0,16,17
 123 -171 123 -171 142 -167 c 128,-1,18
 161 -163 161 -163 178 -147 c 128,-1,19
 195 -131 195 -131 210.5 -107 c 128,-1,20
 226 -83 226 -83 238 -55.5 c 128,-1,21
 250 -28 250 -28 259.5 -0.5 c 128,-1,22
 269 27 269 27 274 49 c 1,23,-1
 0 418 l 1,24,-1
 59 454 l 1,25,-1
 300 116 l 1,26,-1
 411 481 l 1,27,-1
 488 459 l 1,28,-1
 318 -36 l 1,0,1
EndSplineSet
Validated: 33
EndChar

StartChar: z
Encoding: 122 122 90
Width: 473
GlyphClass: 2
Flags: W
AnchorPoint: "bottomattside" 414 2 basechar 0
AnchorPoint: "bottom" 220 -20 basechar 0
AnchorPoint: "top" 205 520 basechar 0
LayerCount: 2
Fore
SplineSet
400 472 m 1,0,-1
 401 432 l 1,1,-1
 130 61 l 1,2,-1
 417 62 l 1,3,-1
 414 -3 l 1,4,-1
 33 8 l 1,5,-1
 31 48 l 1,6,-1
 312 421 l 1,7,-1
 8 418 l 1,8,-1
 10 480 l 1,9,-1
 400 472 l 1,0,-1
EndSplineSet
Validated: 1
EndChar

StartChar: braceleft
Encoding: 123 123 91
Width: 266
GlyphClass: 2
Flags: W
LayerCount: 2
Fore
SplineSet
216 691 m 1,0,-1
 218 627 l 1,1,2
 185 632 185 632 158 628 c 0,3,4
 135 624 135 624 114 610 c 128,-1,5
 93 596 93 596 88 564 c 0,6,7
 82 532 82 532 87 501 c 128,-1,8
 92 470 92 470 99.5 443.5 c 128,-1,9
 107 417 107 417 113.5 396 c 128,-1,10
 120 375 120 375 117 362 c 0,11,12
 113 348 113 348 107 340 c 128,-1,13
 101 332 101 332 94.5 327 c 128,-1,14
 88 322 88 322 82.5 319.5 c 128,-1,15
 77 317 77 317 74 316 c 1,16,17
 75 313 75 313 78 311 c 128,-1,18
 81 309 81 309 84 304.5 c 128,-1,19
 87 300 87 300 89.5 290.5 c 128,-1,20
 92 281 92 281 92 263 c 0,21,22
 92 251 92 251 87.5 231 c 128,-1,23
 83 211 83 211 79.5 188.5 c 128,-1,24
 76 166 76 166 76.5 143.5 c 128,-1,25
 77 121 77 121 87 102.5 c 128,-1,26
 97 84 97 84 119.5 73 c 128,-1,27
 142 62 142 62 182 63 c 1,28,-1
 173 4 l 1,29,30
 135 1 135 1 103 12 c 0,31,32
 89 16 89 16 76 24 c 128,-1,33
 63 32 63 32 52.5 45 c 128,-1,34
 42 58 42 58 35 76 c 128,-1,35
 28 94 28 94 27 119 c 0,36,37
 28 154 28 154 36 182 c 128,-1,38
 44 210 44 210 46.5 234 c 128,-1,39
 49 258 49 258 40 280 c 128,-1,40
 31 302 31 302 -1 325 c 1,41,42
 29 327 29 327 43 344 c 128,-1,43
 57 361 57 361 61 386 c 128,-1,44
 65 411 65 411 61 441 c 128,-1,45
 57 471 57 471 51.5 499.5 c 128,-1,46
 46 528 46 528 41.5 552.5 c 128,-1,47
 37 577 37 577 40 590 c 0,48,49
 42 603 42 603 50.5 624.5 c 128,-1,50
 59 646 59 646 78.5 664.5 c 128,-1,51
 98 683 98 683 131 692.5 c 128,-1,52
 164 702 164 702 216 691 c 1,0,-1
EndSplineSet
Validated: 33
EndChar

StartChar: bar
Encoding: 124 124 92
Width: 151
GlyphClass: 2
Flags: W
LayerCount: 2
Fore
SplineSet
91 30 m 1,0,-1
 37 35 l 1,1,-1
 46 669 l 1,2,-1
 91 672 l 1,3,-1
 91 30 l 1,0,-1
EndSplineSet
Validated: 1
EndChar

StartChar: braceright
Encoding: 125 125 93
Width: 276
GlyphClass: 2
Flags: W
LayerCount: 2
Fore
SplineSet
68 2 m 1,0,-1
 56 67 l 1,1,2
 89 66 89 66 115 75 c 0,3,4
 137 83 137 83 155.5 100 c 128,-1,5
 174 117 174 117 175 150 c 0,6,7
 175 183 175 183 165.5 213 c 128,-1,8
 156 243 156 243 144 269 c 128,-1,9
 132 295 132 295 122.5 315 c 128,-1,10
 113 335 113 335 114 349 c 0,11,12
 116 362 116 362 120.5 370.5 c 128,-1,13
 125 379 125 379 130.5 385 c 128,-1,14
 136 391 136 391 141 394 c 128,-1,15
 146 397 146 397 149 400 c 0,16,17
 147 403 147 403 143.5 404.5 c 128,-1,18
 140 406 140 406 137 410 c 128,-1,19
 134 414 134 414 130.5 423 c 128,-1,20
 127 432 127 432 125 450 c 0,21,22
 123 462 123 462 124 482.5 c 128,-1,23
 125 503 125 503 125 526 c 128,-1,24
 125 549 125 549 121 571.5 c 128,-1,25
 117 594 117 594 104 610 c 128,-1,26
 91 626 91 626 67 633 c 128,-1,27
 43 640 43 640 3 633 c 1,28,-1
 2 694 l 1,29,30
 40 703 40 703 73 697 c 0,31,32
 101 692 101 692 127 671.5 c 128,-1,33
 153 651 153 651 164 604 c 1,34,35
 168 568 168 568 165 539 c 128,-1,36
 162 510 162 510 163.5 485.5 c 128,-1,37
 165 461 165 461 177.5 441 c 128,-1,38
 190 421 190 421 226 403 c 1,39,40
 196 395 196 395 184.5 376 c 128,-1,41
 173 357 173 357 173 331 c 128,-1,42
 173 305 173 305 182 275.5 c 128,-1,43
 191 246 191 246 201 218 c 128,-1,44
 211 190 211 190 219 166.5 c 128,-1,45
 227 143 227 143 226 130 c 0,46,47
 226 118 226 118 221.5 95.5 c 128,-1,48
 217 73 217 73 200.5 51.5 c 128,-1,49
 184 30 184 30 153 14.5 c 128,-1,50
 122 -1 122 -1 68 2 c 1,0,-1
EndSplineSet
Validated: 33
EndChar

StartChar: asciitilde
Encoding: 126 126 94
Width: 320
GlyphClass: 2
Flags: W
LayerCount: 2
Fore
SplineSet
-1 288 m 1,0,1
 19 315 19 315 39 338 c 0,2,3
 56 357 56 357 76.5 374 c 128,-1,4
 97 391 97 391 115 394 c 0,5,6
 133 396 133 396 145 382 c 128,-1,7
 157 368 157 368 166.5 351 c 128,-1,8
 176 334 176 334 184 320 c 128,-1,9
 192 306 192 306 203 308 c 0,10,11
 212 308 212 308 218 326 c 128,-1,12
 224 344 224 344 228 366 c 0,13,14
 232 392 232 392 235 424 c 1,15,-1
 269 416 l 1,16,17
 261 377 261 377 251 345 c 0,18,19
 243 318 243 318 231 295 c 128,-1,20
 219 272 219 272 206 270 c 0,21,22
 186 267 186 267 177 278 c 128,-1,23
 168 289 168 289 161.5 302.5 c 128,-1,24
 155 316 155 316 147.5 328 c 128,-1,25
 140 340 140 340 124 340 c 0,26,27
 107 342 107 342 90.5 329 c 128,-1,28
 74 316 74 316 60 300 c 0,29,30
 44 282 44 282 30 258 c 1,31,-1
 -1 288 l 1,0,1
EndSplineSet
Validated: 33
EndChar

StartChar: exclamdown
Encoding: 161 161 96
Width: 201
GlyphClass: 2
Flags: W
LayerCount: 2
Fore
SplineSet
57 632 m 128,-1,1
 40 635 40 635 31.5 651.5 c 128,-1,2
 23 668 23 668 25 689 c 0,3,4
 30 709 30 709 43 720.5 c 128,-1,5
 56 732 56 732 73 728 c 128,-1,6
 90 724 90 724 99 708 c 128,-1,7
 108 692 108 692 104 672 c 0,8,9
 102 652 102 652 88 640.5 c 128,-1,0
 74 629 74 629 57 632 c 128,-1,1
83 569 m 1,10,-1
 155 24 l 1,11,-1
 67 13 l 1,12,-1
 40 561 l 1,13,-1
 83 569 l 1,10,-1
EndSplineSet
Validated: 33
EndChar

StartChar: cent
Encoding: 162 162 97
Width: 299
GlyphClass: 2
Flags: W
LayerCount: 2
Fore
SplineSet
52 347 m 0,0,1
 52 307 52 307 73 293.5 c 128,-1,2
 94 280 94 280 123 288 c 1,3,-1
 111 440 l 1,4,5
 87 427 87 427 69.5 405 c 128,-1,6
 52 383 52 383 52 347 c 0,0,1
250 295 m 1,7,-1
 225 283 l 1,8,-1
 163 262 l 1,9,-1
 176 173 l 1,10,-1
 134 173 l 1,11,-1
 128 254 l 1,12,13
 105 250 105 250 84 250.5 c 128,-1,14
 63 251 63 251 46 258.5 c 128,-1,15
 29 266 29 266 18 282 c 128,-1,16
 7 298 7 298 4 326 c 0,17,18
 2 355 2 355 10.5 377 c 128,-1,19
 19 399 19 399 34 416 c 128,-1,20
 49 433 49 433 69 445 c 128,-1,21
 89 457 89 457 110 466 c 1,22,-1
 102 533 l 1,23,-1
 127 537 l 1,24,-1
 134 475 l 1,25,26
 165 484 165 484 189 487 c 0,27,28
 201 489 201 489 213 489 c 1,29,-1
 215 453 l 1,30,31
 215 454 215 454 214 454 c 2,32,-1
 206 454 l 2,33,34
 197 455 197 455 185 455 c 128,-1,35
 173 455 173 455 139 449 c 1,36,-1
 159 300 l 1,37,38
 178 307 178 307 187.5 311.5 c 128,-1,39
 197 316 197 316 212 330 c 2,40,-1
 227 342 l 1,41,-1
 250 295 l 1,7,-1
215 453 m 1,42,-1
 215 453 l 1,43,44
 215 453 215 453 215 453 c 1,42,-1
EndSplineSet
Validated: 37
EndChar

StartChar: sterling
Encoding: 163 163 98
Width: 380
GlyphClass: 2
Flags: W
LayerCount: 2
Fore
SplineSet
331 79 m 1,0,-1
 31 79 l 1,1,-1
 32 117 l 1,2,-1
 66 119 l 1,3,-1
 66 146 l 1,4,-1
 62 295 l 1,5,-1
 3 288 l 1,6,-1
 0 329 l 1,7,-1
 60 335 l 1,8,9
 54 408 54 408 61 454.5 c 128,-1,10
 68 501 68 501 84 531 c 128,-1,11
 100 561 100 561 122 577 c 128,-1,12
 144 593 144 593 168 599 c 0,13,14
 223 613 223 613 297 587 c 1,15,-1
 272 531 l 1,16,17
 225 550 225 550 195 550 c 128,-1,18
 165 550 165 550 147.5 537.5 c 128,-1,19
 130 525 130 525 122.5 502 c 128,-1,20
 115 479 115 479 112.5 451.5 c 128,-1,21
 110 424 110 424 114 340 c 1,22,-1
 168 346 l 1,23,-1
 170 304 l 1,24,-1
 117 298 l 1,25,-1
 133 123 l 1,26,-1
 332 135 l 1,27,-1
 331 79 l 1,0,-1
EndSplineSet
Validated: 33
EndChar

StartChar: dieresis
Encoding: 168 168 99
Width: 173
GlyphClass: 2
Flags: W
LayerCount: 2
Fore
SplineSet
126 730 m 0,0,1
 135 738 135 738 146 737.5 c 128,-1,2
 157 737 157 737 162 733 c 0,3,4
 170 727 170 727 172.5 718 c 128,-1,5
 175 709 175 709 169 700 c 0,6,7
 162 692 162 692 151.5 690 c 128,-1,8
 141 688 141 688 131 694 c 0,9,10
 122 699 122 699 120 709.5 c 128,-1,11
 118 720 118 720 126 730 c 0,0,1
60 704 m 0,12,13
 52 694 52 694 40.5 693 c 128,-1,14
 29 692 29 692 18 697 c 0,15,16
 7 703 7 703 4.5 715 c 128,-1,17
 2 727 2 727 8 737 c 0,18,19
 18 749 18 749 30.5 749.5 c 128,-1,20
 43 750 43 750 53 743 c 0,21,22
 63 735 63 735 64.5 724.5 c 128,-1,23
 66 714 66 714 60 704 c 0,12,13
EndSplineSet
Validated: 1
EndChar

StartChar: copyright
Encoding: 169 169 100
Width: 600
GlyphClass: 2
Flags: W
LayerCount: 2
Fore
SplineSet
276 150 m 0,0,1
 313 148 313 148 357 160 c 128,-1,2
 401 172 401 172 438.5 200.5 c 128,-1,3
 476 229 476 229 499.5 273.5 c 128,-1,4
 523 318 523 318 521 381 c 0,5,6
 519 439 519 439 490.5 478 c 128,-1,7
 462 517 462 517 425.5 539.5 c 128,-1,8
 389 562 389 562 354 570.5 c 128,-1,9
 319 579 319 579 304 579 c 0,10,11
 193 586 193 586 117 519.5 c 128,-1,12
 41 453 41 453 41 340 c 0,13,14
 41 289 41 289 63.5 252 c 128,-1,15
 86 215 86 215 121.5 192.5 c 128,-1,16
 157 170 157 170 197.5 160 c 128,-1,17
 238 150 238 150 276 150 c 0,0,1
287 596 m 0,18,19
 322 596 322 596 366 586.5 c 128,-1,20
 410 577 410 577 451.5 551.5 c 128,-1,21
 493 526 493 526 522.5 481 c 128,-1,22
 552 436 552 436 557 361 c 1,23,24
 554 295 554 295 528 249.5 c 128,-1,25
 502 204 502 204 461.5 176 c 128,-1,26
 421 148 421 148 372.5 135.5 c 128,-1,27
 324 123 324 123 278 123 c 0,28,29
 243 123 243 123 194 131 c 128,-1,30
 145 139 145 139 102.5 165 c 128,-1,31
 60 191 60 191 32.5 237 c 128,-1,32
 5 283 5 283 10 358 c 0,33,34
 14 433 14 433 45.5 479.5 c 128,-1,35
 77 526 77 526 120 551.5 c 128,-1,36
 163 577 163 577 209 586.5 c 128,-1,37
 255 596 255 596 287 596 c 0,18,19
382 510 m 1,38,-1
 382 471 l 1,39,40
 329 483 329 483 285 479 c 0,41,42
 266 477 266 477 247.5 472 c 128,-1,43
 229 467 229 467 212.5 456 c 128,-1,44
 196 445 196 445 183.5 427.5 c 128,-1,45
 171 410 171 410 165 384 c 0,46,47
 162 369 162 369 161.5 351.5 c 128,-1,48
 161 334 161 334 166 316 c 128,-1,49
 171 298 171 298 183 282 c 128,-1,50
 195 266 195 266 217.5 254.5 c 128,-1,51
 240 243 240 243 274 238 c 128,-1,52
 308 233 308 233 356 237 c 1,53,-1
 359 225 l 2,54,55
 360 220 360 220 360.5 216 c 128,-1,56
 361 212 361 212 360 211 c 0,57,58
 337 208 337 208 308.5 209 c 128,-1,59
 280 210 280 210 251.5 216.5 c 128,-1,60
 223 223 223 223 197.5 237 c 128,-1,61
 172 251 172 251 155 275 c 128,-1,62
 138 299 138 299 133.5 334.5 c 128,-1,63
 129 370 129 370 141 420 c 0,64,65
 149 446 149 446 164 463.5 c 128,-1,66
 179 481 179 481 197.5 492 c 128,-1,67
 216 503 216 503 237 508.5 c 128,-1,68
 258 514 258 514 278 517 c 0,69,70
 326 521 326 521 382 510 c 1,38,-1
EndSplineSet
Validated: 33
EndChar

StartChar: logicalnot
Encoding: 172 172 101
Width: 355
GlyphClass: 2
Flags: W
LayerCount: 2
Fore
SplineSet
0 313 m 1,0,-1
 285 310 l 1,1,-1
 306 218 l 1,2,-1
 262 215 l 1,3,-1
 259 281 l 1,4,-1
 3 269 l 1,5,-1
 0 313 l 1,0,-1
EndSplineSet
Validated: 1
EndChar

StartChar: registered
Encoding: 174 174 102
Width: 606
GlyphClass: 2
Flags: W
LayerCount: 2
Fore
SplineSet
276 134 m 0,0,1
 313 132 313 132 358.5 143.5 c 128,-1,2
 404 155 404 155 441.5 184 c 128,-1,3
 479 213 479 213 502.5 259 c 128,-1,4
 526 305 526 305 524 369 c 0,5,6
 521 428 521 428 492 468 c 128,-1,7
 463 508 463 508 425.5 530.5 c 128,-1,8
 388 553 388 553 353 564 c 128,-1,9
 318 575 318 575 304 575 c 0,10,11
 188 579 188 579 111.5 511.5 c 128,-1,12
 35 444 35 444 35 329 c 0,13,14
 35 275 35 275 58.5 237.5 c 128,-1,15
 82 200 82 200 117 177.5 c 128,-1,16
 152 155 152 155 195 144.5 c 128,-1,17
 238 134 238 134 276 134 c 0,0,1
288 589 m 128,-1,19
 321 589 321 589 367.5 579.5 c 128,-1,20
 414 570 414 570 456 544 c 128,-1,21
 498 518 498 518 527.5 471.5 c 128,-1,22
 557 425 557 425 562 350 c 1,23,24
 560 283 560 283 532.5 236 c 128,-1,25
 505 189 505 189 463.5 160.5 c 128,-1,26
 422 132 422 132 373 119 c 128,-1,27
 324 106 324 106 278 106 c 0,28,29
 243 106 243 106 192.5 115 c 128,-1,30
 142 124 142 124 99 149.5 c 128,-1,31
 56 175 56 175 27.5 222.5 c 128,-1,32
 -1 270 -1 270 4 347 c 0,33,34
 9 420 9 420 40.5 469 c 128,-1,35
 72 518 72 518 116 545 c 128,-1,36
 160 572 160 572 207.5 580.5 c 128,-1,18
 255 589 255 589 288 589 c 128,-1,19
214 362 m 1,37,38
 255 357 255 357 288 364 c 0,39,40
 316 369 316 369 340.5 383 c 128,-1,41
 365 397 365 397 365 431 c 0,42,43
 365 459 365 459 340.5 473 c 128,-1,44
 316 487 316 487 288 492 c 0,45,46
 255 498 255 498 214 492 c 1,47,-1
 214 362 l 1,37,38
183 513 m 1,48,49
 186 513 186 513 221.5 515.5 c 128,-1,50
 257 518 257 518 298 512 c 128,-1,51
 339 506 339 506 374 488 c 128,-1,52
 409 470 409 470 406 431 c 0,53,54
 404 395 404 395 380.5 376 c 128,-1,55
 357 357 357 357 329 347 c 0,56,57
 295 336 295 336 253 331 c 1,58,-1
 375 194 l 1,59,-1
 318 194 l 1,60,-1
 217 326 l 1,61,-1
 214 191 l 1,62,-1
 188 194 l 1,63,-1
 183 513 l 1,48,49
EndSplineSet
Validated: 33
EndChar

StartChar: acute
Encoding: 180 180 103
Width: 140
GlyphClass: 2
Flags: W
LayerCount: 2
Fore
SplineSet
18 615 m 1,0,-1
 3 637 l 1,1,-1
 97 749 l 1,2,-1
 137 703 l 1,3,-1
 18 615 l 1,0,-1
EndSplineSet
Validated: 1
EndChar

StartChar: cedilla
Encoding: 184 184 104
Width: 136
GlyphClass: 2
Flags: W
LayerCount: 2
Fore
SplineSet
23 59 m 1,0,-1
 76 59 l 1,1,2
 71 51 71 51 67 44 c 0,3,4
 64 38 64 38 63.5 31 c 128,-1,5
 63 24 63 24 68 19 c 0,6,7
 72 14 72 14 80.5 13 c 128,-1,8
 89 12 89 12 98 10.5 c 128,-1,9
 107 9 107 9 115.5 5 c 128,-1,10
 124 1 124 1 130 -10 c 128,-1,11
 136 -21 136 -21 131 -33.5 c 128,-1,12
 126 -46 126 -46 111 -57 c 128,-1,13
 96 -68 96 -68 69.5 -75.5 c 128,-1,14
 43 -83 43 -83 5 -83 c 0,15,16
 4 -83 4 -83 5 -44 c 1,17,18
 32 -48 32 -48 53 -47 c 0,19,20
 71 -46 71 -46 86.5 -40.5 c 128,-1,21
 102 -35 102 -35 103 -18 c 0,22,23
 104 -5 104 -5 96 -2.5 c 128,-1,24
 88 0 88 0 76.5 -0.5 c 128,-1,25
 65 -1 65 -1 53 -1 c 128,-1,26
 41 -1 41 -1 35 6 c 0,27,28
 29 12 29 12 26.5 21.5 c 128,-1,29
 24 31 24 31 23 59 c 1,0,-1
EndSplineSet
Validated: 33
EndChar

StartChar: AE
Encoding: 198 198 112
Width: 666
GlyphClass: 2
Flags: W
LayerCount: 2
Fore
SplineSet
614 700 m 1,0,-1
 614 612 l 1,1,-1
 300 613 l 1,2,-1
 301 377 l 1,3,-1
 539 395 l 1,4,-1
 541 320 l 1,5,-1
 304 314 l 1,6,-1
 311 51 l 1,7,-1
 598 69 l 1,8,-1
 599 2 l 1,9,-1
 241 0 l 1,10,-1
 241 316 l 1,11,-1
 157 317 l 1,12,-1
 49 -1 l 1,13,-1
 4 2 l 1,14,-1
 235 690 l 1,15,-1
 614 700 l 1,0,-1
241 369 m 1,16,-1
 241 560 l 1,17,-1
 172 363 l 1,18,-1
 241 369 l 1,16,-1
EndSplineSet
Validated: 1
EndChar

StartChar: Eth
Encoding: 208 208 122
AltUni2: 000110.ffffffff.0
Width: 806
GlyphClass: 2
Flags: W
LayerCount: 2
Fore
SplineSet
0 336 m 5,0,-1
 277 348 l 5,1,-1
 273 275 l 5,2,-1
 3 274 l 5,3,-1
 0 336 l 5,0,-1
163 53 m 1,4,5
 293 43 293 43 416 65 c 0,6,7
 468 74 468 74 514 91.5 c 128,-1,8
 560 109 560 109 597 137 c 128,-1,9
 634 165 634 165 650.5 206 c 128,-1,10
 667 247 667 247 673 304 c 1,11,12
 670 365 670 365 653 409 c 128,-1,13
 636 453 636 453 603 483 c 128,-1,14
 570 513 570 513 526 531.5 c 128,-1,15
 482 550 482 550 429 560 c 0,16,17
 305 583 305 583 171 572 c 1,18,-1
 163 53 l 1,4,5
780 311 m 1,19,20
 776 236 776 236 744 183 c 128,-1,21
 712 130 712 130 661.5 94 c 128,-1,22
 611 58 611 58 548.5 37 c 128,-1,23
 486 16 486 16 421 6 c 0,24,25
 269 -19 269 -19 77 1 c 1,26,-1
 77 659 l 1,27,28
 273 675 273 675 427 646 c 0,29,30
 493 634 493 634 556 610 c 128,-1,31
 619 586 619 586 668.5 546.5 c 128,-1,32
 718 507 718 507 748.5 449.5 c 128,-1,33
 779 392 779 392 780 311 c 1,19,20
EndSplineSet
Validated: 37
EndChar

StartChar: multiply
Encoding: 215 215 129
Width: 399
GlyphClass: 2
Flags: W
LayerCount: 2
Fore
SplineSet
306 177 m 1,0,-1
 173 304 l 1,1,-1
 66 182 l 1,2,-1
 7 182 l 1,3,-1
 144 330 l 1,4,-1
 0 454 l 1,5,-1
 57 455 l 1,6,-1
 164 355 l 1,7,-1
 246 445 l 1,8,-1
 296 443 l 1,9,-1
 190 328 l 1,10,-1
 355 178 l 1,11,-1
 306 177 l 1,0,-1
EndSplineSet
Validated: 1
EndChar

StartChar: Oslash
Encoding: 216 216 130
Width: 850
GlyphClass: 2
Flags: W
LayerCount: 2
Fore
SplineSet
114 42 m 1,0,-1
 629 706 l 1,1,-1
 681 657 l 1,2,-1
 146 17 l 1,3,-1
 114 42 l 1,0,-1
396 39 m 0,4,5
 452 38 452 38 511.5 55.5 c 128,-1,6
 571 73 571 73 614 110.5 c 128,-1,7
 657 148 657 148 689.5 216 c 128,-1,8
 722 284 722 284 719 384 c 0,9,10
 714 442 714 442 694 488 c 128,-1,11
 674 534 674 534 652.5 561.5 c 128,-1,12
 631 589 631 589 599.5 609.5 c 128,-1,13
 568 630 568 630 538 642 c 128,-1,14
 508 654 508 654 443 661 c 1,15,16
 377 664 377 664 313.5 646 c 128,-1,17
 250 628 250 628 199.5 579 c 128,-1,18
 149 530 149 530 123.5 457.5 c 128,-1,19
 98 385 98 385 100 309 c 0,20,21
 102 239 102 239 130 188 c 128,-1,22
 158 137 158 137 195.5 105 c 128,-1,23
 233 73 233 73 287 57 c 128,-1,24
 341 41 341 41 396 39 c 0,4,5
415 707 m 0,25,26
 447 707 447 707 486.5 701.5 c 128,-1,27
 526 696 526 696 568.5 681.5 c 128,-1,28
 611 667 611 667 649.5 642.5 c 128,-1,29
 688 618 688 618 723 579 c 128,-1,30
 758 540 758 540 780.5 483.5 c 128,-1,31
 803 427 803 427 804 352 c 0,32,33
 801 249 801 249 762 181 c 128,-1,34
 723 113 723 113 664.5 70.5 c 128,-1,35
 606 28 606 28 535.5 9.5 c 128,-1,36
 465 -9 465 -9 400 -9 c 0,37,38
 365 -9 365 -9 321 -4 c 128,-1,39
 277 1 277 1 232 17 c 128,-1,40
 187 33 187 33 146.5 61 c 128,-1,41
 106 89 106 89 73 128.5 c 128,-1,42
 40 168 40 168 22 218.5 c 128,-1,43
 4 269 4 269 8 349 c 0,44,45
 13 423 13 423 37 478.5 c 128,-1,46
 61 534 61 534 97 574 c 128,-1,47
 133 614 133 614 173.5 639.5 c 128,-1,48
 214 665 214 665 257.5 681 c 128,-1,49
 301 697 301 697 341.5 702.5 c 128,-1,50
 382 708 382 708 415 707 c 0,25,26
EndSplineSet
Validated: 37
EndChar

StartChar: Thorn
Encoding: 222 222 136
Width: 520
GlyphClass: 2
Flags: W
LayerCount: 2
Fore
SplineSet
89 565 m 2,0,1
 89 567 89 567 170 567 c 0,2,3
 208 567 208 567 248 562 c 0,4,5
 286 557 286 557 324 545 c 0,6,7
 361 533 361 533 392 512 c 0,8,9
 422 491 422 491 441 460 c 0,10,11
 462 422 462 422 463 383 c 0,12,13
 463 339 463 339 447 306 c 0,14,15
 428 274 428 274 400 251 c 0,16,17
 371 228 371 228 335 214 c 0,18,19
 297 199 297 199 259 190 c 0,20,21
 219 182 219 182 182 178 c 0,22,23
 134 174 134 174 101 174 c 1,24,-1
 101 223 l 1,25,26
 155 225 155 225 162 225 c 0,27,28
 176 225 176 225 220 233 c 0,29,30
 250 239 250 239 281 249 c 0,31,32
 310 259 310 259 335 275 c 0,33,34
 358 292 358 292 373 315 c 0,35,36
 387 341 387 341 386 371 c 0,37,38
 384 406 384 406 369 430 c 0,39,40
 352 454 352 454 328 469 c 0,41,42
 302 484 302 484 272 492 c 0,43,44
 240 500 240 500 210 503 c 0,45,46
 179 505 179 505 150 505 c 0,47,48
 124 504 124 504 90 503 c 1,49,-1
 89 565 l 2,0,1
108 0 m 1,50,-1
 42 0 l 1,51,-1
 0 701 l 1,52,-1
 87 701 l 1,53,-1
 108 0 l 1,50,-1
EndSplineSet
Validated: 37
EndChar

StartChar: germandbls
Encoding: 223 223 137
Width: 496
GlyphClass: 2
Flags: W
LayerCount: 2
Fore
SplineSet
155 98 m 1,0,1
 155 90 155 90 164 72 c 0,2,3
 179 45 179 45 200 29 c 0,4,5
 231 6 231 6 276 7 c 128,-1,6
 321 8 321 8 359.5 30.5 c 128,-1,7
 398 53 398 53 422 97 c 0,8,9
 449 145 449 145 449 211 c 0,10,11
 449 261 449 261 432 301 c 0,12,13
 418 336 418 336 400 357 c 128,-1,14
 382 378 382 378 360 390 c 128,-1,15
 338 402 338 402 319 409 c 128,-1,16
 300 416 300 416 274 419 c 1,17,18
 301 426 301 426 321 439 c 128,-1,19
 341 452 341 452 358.5 479 c 128,-1,20
 376 506 376 506 375 551 c 0,21,22
 375 570 375 570 367 594 c 0,23,24
 361 612 361 612 344 634 c 128,-1,25
 327 656 327 656 298.5 674 c 128,-1,26
 270 692 270 692 225 698 c 0,27,28
 186 703 186 703 139 694 c 0,29,30
 89 683 89 683 66.5 658.5 c 128,-1,31
 44 634 44 634 38 602 c 0,32,33
 31 569 31 569 32 535 c 2,34,-1
 46 -3 l 1,35,-1
 135 4 l 1,36,-1
 90 565 l 2,37,38
 87 598 87 598 108 622 c 0,39,40
 126 640 126 640 165.5 647.5 c 128,-1,41
 205 655 205 655 237 647 c 128,-1,42
 269 639 269 639 286.5 614 c 128,-1,43
 304 589 304 589 306 557 c 0,44,45
 307 530 307 530 302.5 515 c 128,-1,46
 298 500 298 500 290.5 488.5 c 128,-1,47
 283 477 283 477 274 470 c 0,48,49
 263 460 263 460 239 454 c 0,50,51
 224 450 224 450 184 448 c 1,52,-1
 202 381 l 1,53,54
 252 384 252 384 287 369 c 1,55,56
 344 334 344 334 359 312 c 0,57,58
 380 281 380 281 385 264 c 0,59,60
 396 227 396 227 395 201 c 0,61,62
 395 157 395 157 368 115 c 0,63,64
 345 78 345 78 299 70 c 128,-1,65
 253 62 253 62 235 88 c 0,66,67
 227 100 227 100 222 124 c 1,68,69
 222 124 222 124 155 98 c 1,0,1
EndSplineSet
Validated: 41
EndChar

StartChar: ae
Encoding: 230 230 144
Width: 1035
GlyphClass: 2
Flags: W
LayerCount: 2
Fore
SplineSet
907 267 m 1,0,1
 904 303 904 303 890.5 330 c 128,-1,2
 877 357 877 357 856.5 376.5 c 128,-1,3
 836 396 836 396 809 407.5 c 128,-1,4
 782 419 782 419 753 424 c 0,5,6
 717 429 717 429 682 420.5 c 128,-1,7
 647 412 647 412 620 392 c 128,-1,8
 593 372 593 372 576 342 c 0,9,10
 566 326 566 326 561 308 c 1,11,-1
 561 278 l 1,12,-1
 907 267 l 1,0,1
995 221 m 1,13,14
 1001 220 1001 220 985 219.5 c 128,-1,15
 969 219 969 219 939.5 219 c 128,-1,16
 910 219 910 219 870 219 c 128,-1,17
 830 219 830 219 788 219 c 128,-1,18
 746 219 746 219 704.5 219 c 128,-1,19
 663 219 663 219 630 219 c 128,-1,20
 597 219 597 219 576 219 c 0,21,22
 565 219 565 219 560 219 c 1,23,-1
 560 193 l 1,24,25
 564 179 564 179 572 166 c 0,26,27
 586 142 586 142 605 124.5 c 128,-1,28
 624 107 624 107 646.5 95 c 128,-1,29
 669 83 669 83 690 79 c 0,30,31
 703 75 703 75 722.5 73.5 c 128,-1,32
 742 72 742 72 767.5 73.5 c 128,-1,33
 793 75 793 75 824.5 81.5 c 128,-1,34
 856 88 856 88 893 103 c 1,35,-1
 909 26 l 1,36,37
 880 12 880 12 844 5.5 c 128,-1,38
 808 -1 808 -1 772 -1.5 c 128,-1,39
 736 -2 736 -2 703.5 2.5 c 128,-1,40
 671 7 671 7 649 18 c 0,41,42
 623 29 623 29 598 44 c 0,43,44
 577 58 577 58 558 76 c 1,45,-1
 557 4 l 1,46,-1
 480 5 l 1,47,-1
 483 76 l 1,48,49
 446 42 446 42 397.5 25 c 128,-1,50
 349 8 349 8 294 7 c 0,51,52
 236 6 236 6 187 24.5 c 128,-1,53
 138 43 138 43 103 76.5 c 128,-1,54
 68 110 68 110 50.5 156 c 128,-1,55
 33 202 33 202 38 256 c 0,56,57
 43 309 43 309 67.5 349.5 c 128,-1,58
 92 390 92 390 129.5 417 c 128,-1,59
 167 444 167 444 215.5 458 c 128,-1,60
 264 472 264 472 318 472 c 0,61,62
 367 472 367 472 412.5 454.5 c 128,-1,63
 458 437 458 437 492 405 c 1,64,-1
 494 455 l 1,65,-1
 563 455 l 1,66,-1
 562 415 l 1,67,68
 587 436 587 436 616 451 c 0,69,70
 647 467 647 467 681.5 474.5 c 128,-1,71
 716 482 716 482 749 481 c 0,72,73
 809 479 809 479 856 459.5 c 128,-1,74
 903 440 903 440 934.5 405.5 c 128,-1,75
 966 371 966 371 981.5 324 c 128,-1,76
 997 277 997 277 995 221 c 1,13,14
279 53 m 0,77,78
 333 51 333 51 372 67.5 c 128,-1,79
 411 84 411 84 435.5 111 c 128,-1,80
 460 138 460 138 472 171.5 c 128,-1,81
 484 205 484 205 485 237 c 0,82,83
 486 271 486 271 476 304 c 128,-1,84
 466 337 466 337 444 363 c 128,-1,85
 422 389 422 389 387.5 405.5 c 128,-1,86
 353 422 353 422 307 423 c 0,87,88
 279 424 279 424 246.5 414.5 c 128,-1,89
 214 405 214 405 186 384 c 128,-1,90
 158 363 158 363 138.5 330.5 c 128,-1,91
 119 298 119 298 117 251 c 0,92,93
 116 230 116 230 118.5 207.5 c 128,-1,94
 121 185 121 185 129 163.5 c 128,-1,95
 137 142 137 142 149 122.5 c 128,-1,96
 161 103 161 103 179.5 88 c 128,-1,97
 198 73 198 73 222.5 63.5 c 128,-1,98
 247 54 247 54 279 53 c 0,77,78
EndSplineSet
Validated: 33
EndChar

StartChar: eth
Encoding: 240 240 154
Width: 585
GlyphClass: 2
Flags: W
LayerCount: 2
Fore
SplineSet
475 224 m 0,0,1
 477 259 477 259 465.5 291.5 c 128,-1,2
 454 324 454 324 430.5 350 c 128,-1,3
 407 376 407 376 372 392.5 c 128,-1,4
 337 409 337 409 290 411 c 0,5,6
 256 413 256 413 221 403 c 128,-1,7
 186 393 186 393 156 371 c 128,-1,8
 126 349 126 349 106 314.5 c 128,-1,9
 86 280 86 280 84 231 c 0,10,11
 82 198 82 198 91.5 165 c 128,-1,12
 101 132 101 132 122.5 105 c 128,-1,13
 144 78 144 78 178 60 c 128,-1,14
 212 42 212 42 260 41 c 0,15,16
 315 39 315 39 355 54.5 c 128,-1,17
 395 70 395 70 421 96.5 c 128,-1,18
 447 123 447 123 460.5 156.5 c 128,-1,19
 474 190 474 190 475 224 c 0,0,1
385 619 m 1,20,21
 434 572 434 572 467 526.5 c 128,-1,22
 500 481 500 481 519.5 435 c 128,-1,23
 539 389 539 389 546.5 342 c 128,-1,24
 554 295 554 295 552 246 c 0,25,26
 550 185 550 185 527 137.5 c 128,-1,27
 504 90 504 90 466.5 58 c 128,-1,28
 429 26 429 26 380.5 9.5 c 128,-1,29
 332 -7 332 -7 280 -8 c 0,30,31
 220 -9 220 -9 167.5 8.5 c 128,-1,32
 115 26 115 26 77 58.5 c 128,-1,33
 39 91 39 91 18.5 136 c 128,-1,34
 -2 181 -2 181 2 234 c 0,35,36
 6 289 6 289 31 333.5 c 128,-1,37
 56 378 56 378 95 409.5 c 128,-1,38
 134 441 134 441 185.5 457.5 c 128,-1,39
 237 474 237 474 296 474 c 0,40,41
 334 473 334 473 371.5 463 c 128,-1,42
 409 453 409 453 442 434 c 1,43,44
 432 451 432 451 424.5 466 c 128,-1,45
 417 481 417 481 406.5 497 c 128,-1,46
 396 513 396 513 380 532 c 128,-1,47
 364 551 364 551 338 576 c 1,48,-1
 287 527 l 1,49,-1
 248 565 l 1,50,-1
 303 617 l 1,51,52
 290 631 290 631 273 644.5 c 128,-1,53
 256 658 256 658 239 672 c 1,54,-1
 283 714 l 1,55,56
 298 700 298 700 316.5 685 c 128,-1,57
 335 670 335 670 348 656 c 1,58,-1
 389 695 l 1,59,-1
 429 660 l 1,60,-1
 385 619 l 1,20,21
EndSplineSet
Validated: 33
EndChar

StartChar: oslash
Encoding: 248 248 162
Width: 608
GlyphClass: 2
Flags: W
LayerCount: 2
Fore
SplineSet
53 35 m 1,0,-1
 441 483 l 1,1,-1
 499 440 l 1,2,-1
 88 7 l 1,3,-1
 53 35 l 1,0,-1
282 34 m 0,4,5
 309 33 309 33 333.5 41 c 128,-1,6
 358 49 358 49 382 63.5 c 128,-1,7
 406 78 406 78 423.5 98 c 128,-1,8
 441 118 441 118 452 140.5 c 128,-1,9
 463 163 463 163 467 186.5 c 128,-1,10
 471 210 471 210 472 233 c 0,11,12
 474 268 474 268 464 301.5 c 128,-1,13
 454 335 454 335 431.5 361.5 c 128,-1,14
 409 388 409 388 373.5 405.5 c 128,-1,15
 338 423 338 423 302 424 c 0,16,17
 278 426 278 426 243 415.5 c 128,-1,18
 208 405 208 405 178 382.5 c 128,-1,19
 148 360 148 360 127.5 324.5 c 128,-1,20
 107 289 107 289 106 240 c 0,21,22
 104 207 104 207 113.5 171.5 c 128,-1,23
 123 136 123 136 144.5 106 c 128,-1,24
 166 76 166 76 200 56 c 128,-1,25
 234 36 234 36 282 34 c 0,4,5
558 241 m 0,26,27
 555 180 555 180 531.5 132.5 c 128,-1,28
 508 85 508 85 469 53 c 128,-1,29
 430 21 430 21 382 3.5 c 128,-1,30
 334 -14 334 -14 292 -14 c 0,31,32
 242 -15 242 -15 189 4.5 c 128,-1,33
 136 24 136 24 97.5 58 c 128,-1,34
 59 92 59 92 39 140 c 128,-1,35
 19 188 19 188 24 243 c 0,36,37
 30 298 30 298 54.5 341.5 c 128,-1,38
 79 385 79 385 118 414.5 c 128,-1,39
 157 444 157 444 208 461.5 c 128,-1,40
 259 479 259 479 307 478 c 0,41,42
 346 478 346 478 394.5 460 c 128,-1,43
 443 442 443 442 480 410.5 c 128,-1,44
 517 379 517 379 539 336 c 128,-1,45
 561 293 561 293 558 241 c 0,26,27
EndSplineSet
Validated: 37
EndChar

StartChar: thorn
Encoding: 254 254 168
Width: 573
GlyphClass: 2
Flags: W
LayerCount: 2
Fore
SplineSet
88 -214 m 1,0,-1
 34 -214 l 1,1,-1
 0 701 l 1,2,-1
 87 701 l 1,3,-1
 87 416 l 1,4,5
 120 448 120 448 163 463.5 c 128,-1,6
 206 479 206 479 255 481 c 0,7,8
 307 484 307 484 353 472.5 c 128,-1,9
 399 461 399 461 435 435 c 128,-1,10
 471 409 471 409 495 368 c 0,11,12
 521 323 521 323 526 271 c 0,13,14
 531 216 531 216 514.5 168 c 128,-1,15
 498 120 498 120 467.5 81 c 128,-1,16
 437 42 437 42 387.5 17.5 c 128,-1,17
 338 -7 338 -7 281 -5 c 0,18,19
 255 -4 255 -4 229.5 0.5 c 128,-1,20
 204 5 204 5 179.5 14.5 c 128,-1,21
 155 24 155 24 128 40 c 0,22,23
 105 52 105 52 88 64 c 1,24,-1
 88 -214 l 1,0,-1
93 246 m 0,25,26
 93 209 93 209 104 173.5 c 128,-1,27
 115 138 115 138 139 111 c 128,-1,28
 163 84 163 84 202 69 c 128,-1,29
 241 54 241 54 295 60 c 0,30,31
 327 63 327 63 351 73.5 c 128,-1,32
 375 84 375 84 393 99 c 128,-1,33
 411 114 411 114 423.5 133 c 128,-1,34
 436 152 436 152 444 173 c 128,-1,35
 452 194 452 194 454.5 216 c 128,-1,36
 457 238 457 238 456 259 c 0,37,38
 454 306 454 306 435 339.5 c 128,-1,39
 416 373 416 373 388 394 c 128,-1,40
 360 415 360 415 328 424.5 c 128,-1,41
 296 434 296 434 268 434 c 0,42,43
 223 433 223 433 189.5 416 c 128,-1,44
 156 399 156 399 134 373 c 128,-1,45
 112 347 112 347 101.5 313.5 c 128,-1,46
 91 280 91 280 93 246 c 0,25,26
EndSplineSet
Validated: 33
EndChar

StartChar: Lslash
Encoding: 321 321 176
Width: 552
GlyphClass: 2
Flags: W
LayerCount: 2
Fore
SplineSet
-53 294 m 1,0,-1
 -81 335 l 1,1,-1
 328 482 l 1,2,-1
 340 456 l 1,3,-1
 -53 294 l 1,0,-1
20 698 m 1,4,-1
 93 694 l 1,5,-1
 90 67 l 1,6,-1
 495 97 l 1,7,-1
 493 3 l 1,8,-1
 21 0 l 1,9,-1
 20 698 l 1,4,-1
EndSplineSet
Validated: 5
EndChar

StartChar: lslash
Encoding: 322 322 177
Width: 167
GlyphClass: 2
Flags: W
LayerCount: 2
Fore
SplineSet
-58 344 m 1,0,-1
 -75 388 l 1,1,-1
 241 495 l 1,2,-1
 248 468 l 1,3,-1
 -58 344 l 1,0,-1
28 711 m 1,4,-1
 128 712 l 1,5,-1
 129 0 l 1,6,-1
 36 0 l 1,7,-1
 28 711 l 1,4,-1
EndSplineSet
Validated: 5
EndChar

StartChar: OE
Encoding: 338 338 180
Width: 772
GlyphClass: 2
Flags: W
LayerCount: 2
Fore
SplineSet
311 690 m 1,0,-1
 718 699 l 1,1,-1
 718 612 l 1,2,-1
 360 615 l 1,3,-1
 363 376 l 1,4,-1
 658 393 l 1,5,-1
 659 318 l 1,6,-1
 367 313 l 1,7,-1
 370 52 l 1,8,-1
 701 67 l 1,9,-1
 703 0 l 1,10,-1
 311 0 l 2,11,12
 288 -1 288 -1 256.5 3.5 c 128,-1,13
 225 8 225 8 191 21.5 c 128,-1,14
 157 35 157 35 123 59 c 128,-1,15
 89 83 89 83 62 120.5 c 128,-1,16
 35 158 35 158 18.5 211 c 128,-1,17
 2 264 2 264 2 336 c 0,18,19
 2 419 2 419 17.5 476.5 c 128,-1,20
 33 534 33 534 58.5 573 c 128,-1,21
 84 612 84 612 117 634.5 c 128,-1,22
 150 657 150 657 184.5 668.5 c 128,-1,23
 219 680 219 680 252 684.5 c 128,-1,24
 285 689 285 689 311 691 c 1,25,-1
 311 690 l 1,0,-1
307 48 m 1,26,-1
 307 615 l 1,27,28
 305 615 305 615 301 616 c 0,29,30
 298 616 298 616 293 616.5 c 128,-1,31
 288 617 288 617 283 617 c 0,32,33
 268 617 268 617 245.5 614 c 128,-1,34
 223 611 223 611 198 600 c 128,-1,35
 173 589 173 589 148.5 569.5 c 128,-1,36
 124 550 124 550 104 517 c 128,-1,37
 84 484 84 484 71.5 435.5 c 128,-1,38
 59 387 59 387 59 320 c 0,39,40
 59 275 59 275 69.5 229 c 128,-1,41
 80 183 80 183 108 145 c 128,-1,42
 136 107 136 107 184 80 c 0,43,44
 232 55 232 55 307 48 c 1,26,-1
EndSplineSet
Validated: 33
EndChar

StartChar: oe
Encoding: 339 339 181
Width: 861
GlyphClass: 2
Flags: W
LayerCount: 2
Fore
SplineSet
719 275 m 1,0,1
 717 312 717 312 703 340 c 128,-1,2
 689 368 689 368 667.5 388 c 128,-1,3
 646 408 646 408 618.5 420.5 c 128,-1,4
 591 433 591 433 561 437 c 0,5,6
 524 443 524 443 488 434 c 128,-1,7
 452 425 452 425 423.5 404.5 c 128,-1,8
 395 384 395 384 377.5 353.5 c 128,-1,9
 360 323 360 323 359 287 c 1,10,-1
 719 275 l 1,0,1
811 228 m 1,11,12
 817 227 817 227 800.5 226.5 c 128,-1,13
 784 226 784 226 753.5 226 c 128,-1,14
 723 226 723 226 682 226 c 128,-1,15
 641 226 641 226 597 226 c 128,-1,16
 553 226 553 226 510.5 226 c 128,-1,17
 468 226 468 226 434 226 c 128,-1,18
 400 226 400 226 378.5 226 c 128,-1,19
 357 226 357 226 355 225 c 0,20,21
 360 195 360 195 374 170.5 c 128,-1,22
 388 146 388 146 408 128 c 128,-1,23
 428 110 428 110 451 97.5 c 128,-1,24
 474 85 474 85 496 81 c 0,25,26
 510 77 510 77 529.5 75.5 c 128,-1,27
 549 74 549 74 575.5 75.5 c 128,-1,28
 602 77 602 77 634.5 84 c 128,-1,29
 667 91 667 91 706 106 c 1,30,-1
 721 26 l 1,31,32
 692 12 692 12 655 5 c 128,-1,33
 618 -2 618 -2 580.5 -2.5 c 128,-1,34
 543 -3 543 -3 509.5 2 c 128,-1,35
 476 7 476 7 454 18 c 0,36,37
 449 20 449 20 444 22 c 0,38,39
 379 -8 379 -8 323 -9 c 0,40,41
 264 -10 264 -10 217.5 0 c 128,-1,42
 171 10 171 10 128 33.5 c 128,-1,43
 85 57 85 57 55.5 99 c 128,-1,44
 26 141 26 141 14.5 199 c 128,-1,45
 3 257 3 257 30 338 c 1,46,47
 49 380 49 380 73.5 408.5 c 128,-1,48
 98 437 98 437 128.5 455 c 128,-1,49
 159 473 159 473 193 481.5 c 128,-1,50
 227 490 227 490 261 494 c 0,51,52
 356 500 356 500 436 473 c 1,53,54
 461 484 461 484 488 490 c 0,55,56
 523 498 523 498 557 497 c 0,57,58
 619 495 619 495 667.5 474.5 c 128,-1,59
 716 454 716 454 748.5 418.5 c 128,-1,60
 781 383 781 383 797 334.5 c 128,-1,61
 813 286 813 286 811 228 c 1,11,12
375 64 m 1,62,63
 363 74 363 74 353 84 c 0,64,65
 331 106 331 106 314.5 136 c 128,-1,66
 298 166 298 166 291 205 c 0,67,68
 283 253 283 253 290 293 c 128,-1,69
 297 333 297 333 315 366 c 0,70,71
 330 393 330 393 350 415 c 1,72,73
 317 419 317 419 271 417 c 0,74,75
 242 414 242 414 214 406 c 128,-1,76
 186 398 186 398 161.5 382.5 c 128,-1,77
 137 367 137 367 114 340.5 c 128,-1,78
 91 314 91 314 82 276 c 0,79,80
 75 241 75 241 78 221 c 128,-1,81
 81 201 81 201 88.5 174.5 c 128,-1,82
 96 148 96 148 122.5 119 c 128,-1,83
 149 90 149 90 186 70 c 128,-1,84
 223 50 223 50 277 48 c 0,85,86
 321 45 321 45 375 64 c 1,62,63
EndSplineSet
Validated: 33
EndChar

StartChar: circumflex
Encoding: 710 710 191
Width: 206
GlyphClass: 2
Flags: W
LayerCount: 2
Fore
SplineSet
82 750 m 1,0,-1
 203 645 l 1,1,-1
 172 614 l 1,2,-1
 87 704 l 1,3,-1
 32 586 l 1,4,-1
 0 601 l 1,5,-1
 82 750 l 1,0,-1
EndSplineSet
Validated: 1
EndChar

StartChar: caron
Encoding: 711 711 192
Width: 207
GlyphClass: 2
Flags: W
LayerCount: 2
Fore
SplineSet
0 735 m 1,0,-1
 32 750 l 1,1,-1
 87 632 l 1,2,-1
 172 722 l 1,3,-1
 203 691 l 1,4,-1
 82 586 l 1,5,-1
 0 735 l 1,0,-1
EndSplineSet
Validated: 1
EndChar

StartChar: ring
Encoding: 730 730 193
Width: 140
GlyphClass: 2
Flags: W
LayerCount: 2
Fore
SplineSet
68 790 m 0,0,1
 60 790 60 790 52 787 c 128,-1,2
 44 784 44 784 38.5 779 c 128,-1,3
 33 774 33 774 30 767.5 c 128,-1,4
 27 761 27 761 26 750 c 0,5,6
 26 739 26 739 29.5 729 c 128,-1,7
 33 719 33 719 39.5 712 c 128,-1,8
 46 705 46 705 53.5 702.5 c 128,-1,9
 61 700 61 700 73 700 c 0,10,11
 83 701 83 701 87.5 703 c 128,-1,12
 92 705 92 705 96 708 c 128,-1,13
 100 711 100 711 103.5 715.5 c 128,-1,14
 107 720 107 720 109.5 726 c 128,-1,15
 112 732 112 732 113 739 c 0,16,17
 114 755 114 755 109.5 764.5 c 128,-1,18
 105 774 105 774 99 779.5 c 128,-1,19
 93 785 93 785 87 787.5 c 128,-1,20
 81 790 81 790 68 790 c 0,0,1
71 687 m 0,21,22
 65 687 65 687 58.5 688 c 128,-1,23
 52 689 52 689 45 691.5 c 128,-1,24
 38 694 38 694 31.5 698.5 c 128,-1,25
 25 703 25 703 19 709.5 c 128,-1,26
 13 716 13 716 8.5 725 c 128,-1,27
 4 734 4 734 4 746 c 0,28,29
 4 759 4 759 6.5 767 c 128,-1,30
 9 775 9 775 14.5 781.5 c 128,-1,31
 20 788 20 788 26.5 793 c 128,-1,32
 33 798 33 798 40.5 801 c 128,-1,33
 48 804 48 804 55 805 c 128,-1,34
 62 806 62 806 72 806 c 0,35,36
 83 805 83 805 93 801.5 c 128,-1,37
 103 798 103 798 112 791 c 128,-1,38
 121 784 121 784 127.5 773 c 128,-1,39
 134 762 134 762 134 746 c 0,40,41
 134 733 134 733 130.5 724 c 128,-1,42
 127 715 127 715 121.5 708.5 c 128,-1,43
 116 702 116 702 109.5 698 c 128,-1,44
 103 694 103 694 96.5 691.5 c 128,-1,45
 90 689 90 689 82.5 688 c 128,-1,46
 75 687 75 687 71 687 c 0,21,22
EndSplineSet
Validated: 1
EndChar

StartChar: tilde
Encoding: 732 732 194
Width: 246
GlyphClass: 2
Flags: W
LayerCount: 2
Fore
SplineSet
1 639 m 1,0,1
 19 661 19 661 37 679 c 0,2,3
 53 694 53 694 71 708 c 128,-1,4
 89 722 89 722 105 724 c 0,5,6
 121 725 121 725 132 714 c 128,-1,7
 143 703 143 703 151.5 689 c 128,-1,8
 160 675 160 675 168 663.5 c 128,-1,9
 176 652 176 652 185 654 c 0,10,11
 193 654 193 654 198.5 668.5 c 128,-1,12
 204 683 204 683 207 701 c 0,13,14
 211 722 211 722 213 749 c 1,15,-1
 244 743 l 1,16,17
 237 711 237 711 228 685 c 0,18,19
 220 663 220 663 209.5 644.5 c 128,-1,20
 199 626 199 626 188 624 c 0,21,22
 170 622 170 622 161.5 630.5 c 128,-1,23
 153 639 153 639 147 650 c 128,-1,24
 141 661 141 661 134.5 671 c 128,-1,25
 128 681 128 681 114 681 c 0,26,27
 98 682 98 682 83 672 c 128,-1,28
 68 662 68 662 56 649 c 0,29,30
 42 634 42 634 29 614 c 1,31,-1
 1 639 l 1,0,1
EndSplineSet
Validated: 33
EndChar

StartChar: afii10018
Encoding: 1041 1041 195
Width: 508
GlyphClass: 2
Flags: W
LayerCount: 2
Fore
SplineSet
66 95 m 1,0,1
 87 93 87 93 124 92.5 c 128,-1,2
 161 92 161 92 199 96.5 c 128,-1,3
 237 101 237 101 273 112 c 128,-1,4
 309 123 309 123 336 143 c 128,-1,5
 363 163 363 163 377 194.5 c 128,-1,6
 391 226 391 226 386 271 c 0,7,8
 380 307 380 307 354.5 328.5 c 128,-1,9
 329 350 329 350 292 361 c 128,-1,10
 255 372 255 372 213.5 375 c 128,-1,11
 172 378 172 378 136 377 c 128,-1,12
 100 376 100 376 80 374 c 2,13,-1
 60 371 l 1,14,-1
 66 95 l 1,0,1
459 231 m 0,15,16
 460 184 460 184 441.5 150 c 128,-1,17
 423 116 423 116 391 92 c 128,-1,18
 359 68 359 68 317.5 52 c 128,-1,19
 276 36 276 36 233 27 c 0,20,21
 131 5 131 5 0 8 c 1,22,-1
 0 685 l 1,23,24
 5 688 5 688 253 693 c 2,25,-1
 410 695 l 1,26,-1
 397 616 l 1,27,-1
 42 626 l 1,28,-1
 52 424 l 1,29,30
 195 433 195 433 262 418 c 128,-1,31
 329 403 329 403 368 381 c 0,32,33
 384 372 384 372 400 358.5 c 128,-1,34
 416 345 416 345 429 326.5 c 128,-1,35
 442 308 442 308 450 284.5 c 128,-1,36
 458 261 458 261 459 231 c 0,15,16
EndSplineSet
Validated: 33
EndChar

StartChar: afii10020
Encoding: 1043 1043 196
AltUni2: 000393.ffffffff.0
Width: 474
GlyphClass: 2
Flags: W
LayerCount: 2
Fore
SplineSet
64 5 m 1,0,-1
 0 8 l 1,1,-1
 0 685 l 1,2,3
 5 688 5 688 253 693 c 2,4,-1
 410 695 l 1,5,-1
 397 616 l 1,6,-1
 42 626 l 1,7,-1
 64 5 l 1,0,-1
EndSplineSet
Validated: 1
EndChar

StartChar: afii10021
Encoding: 1044 1044 197
Width: 649
GlyphClass: 2
Flags: W
LayerCount: 2
Fore
SplineSet
458 622 m 1,0,-1
 189 619 l 1,1,2
 181 126 181 126 118 50 c 1,3,-1
 437 54 l 1,4,-1
 458 622 l 1,0,-1
524 51 m 1,5,-1
 595 51 l 1,6,-1
 575 -121 l 1,7,-1
 520 -112 l 1,8,-1
 512 -8 l 1,9,-1
 26 -13 l 1,10,-1
 15 -125 l 1,11,-1
 -39 -133 l 1,12,-1
 -51 53 l 1,13,-1
 16 53 l 1,14,15
 126 91 126 91 116 689 c 1,16,-1
 529 697 l 1,17,-1
 524 51 l 1,5,-1
EndSplineSet
Validated: 33
EndChar

StartChar: afii10024
Encoding: 1046 1046 198
Width: 807
GlyphClass: 2
Flags: W
LayerCount: 2
Fore
SplineSet
63 11 m 1,0,-1
 0 38 l 1,1,-1
 231 366 l 1,2,-1
 122 593 l 1,3,4
 98 659 98 659 10 656 c 1,5,-1
 4 693 l 1,6,7
 155 696 155 696 188 610 c 2,8,-1
 282 390 l 1,9,-1
 331 393 l 1,10,-1
 328 688 l 1,11,-1
 411 685 l 1,12,-1
 407 398 l 1,13,-1
 492 403 l 1,14,-1
 569 604 l 1,15,16
 596 689 596 689 749 678 c 1,17,-1
 739 634 l 1,18,19
 654 652 654 652 628 578 c 1,20,-1
 534 374 l 1,21,-1
 737 32 l 1,22,-1
 688 0 l 1,23,-1
 493 337 l 1,24,-1
 406 340 l 1,25,-1
 401 4 l 1,26,-1
 334 5 l 1,27,-1
 331 343 l 1,28,-1
 271 346 l 1,29,-1
 63 11 l 1,0,-1
EndSplineSet
Validated: 33
EndChar

StartChar: afii10025
Encoding: 1047 1047 199
Width: 508
GlyphClass: 2
Flags: W
LayerCount: 2
Fore
SplineSet
460 231 m 0,0,1
 461 184 461 184 455.5 148.5 c 128,-1,2
 450 113 450 113 421.5 72 c 128,-1,3
 393 31 393 31 355 11.5 c 128,-1,4
 317 -8 317 -8 212 -24 c 1,5,6
 110 -20 110 -20 1 8 c 1,7,-1
 -3 69 l 1,8,9
 217 13 217 13 294.5 58.5 c 128,-1,10
 372 104 372 104 389 162 c 128,-1,11
 406 220 406 220 382 268.5 c 128,-1,12
 358 317 358 317 304.5 351.5 c 128,-1,13
 251 386 251 386 122 377 c 1,14,-1
 59 376 l 1,15,-1
 59 440 l 1,16,17
 186 440 186 440 233 450.5 c 128,-1,18
 280 461 280 461 312 495 c 128,-1,19
 344 529 344 529 339.5 566.5 c 128,-1,20
 335 604 335 604 299 625 c 128,-1,21
 263 646 263 646 216.5 647.5 c 128,-1,22
 170 649 170 649 41 592 c 1,23,-1
 14 646 l 1,24,25
 91 682 91 682 135.5 692 c 128,-1,26
 180 702 180 702 226 701 c 128,-1,27
 272 700 272 700 318 684.5 c 128,-1,28
 364 669 364 669 391.5 630 c 128,-1,29
 419 591 419 591 410 550 c 1,30,31
 406 483 406 483 382.5 464.5 c 128,-1,32
 359 446 359 446 338 432 c 0,33,34
 313 415 313 415 282 411 c 1,35,36
 330 403 330 403 369 381 c 0,37,38
 385 372 385 372 401 358.5 c 128,-1,39
 417 345 417 345 430 326.5 c 128,-1,40
 443 308 443 308 451 284.5 c 128,-1,41
 459 261 459 261 460 231 c 0,0,1
EndSplineSet
Validated: 33
EndChar

StartChar: afii10026
Encoding: 1048 1048 200
Width: 747
GlyphClass: 2
Flags: W
LayerCount: 2
Fore
SplineSet
691 701 m 1,0,-1
 693 0 l 1,1,-1
 626 0 l 1,2,-1
 631 577 l 1,3,-1
 90 6 l 1,4,-1
 19 9 l 1,5,-1
 20 690 l 1,6,-1
 77 691 l 1,7,-1
 89 129 l 1,8,-1
 625 701 l 1,9,-1
 691 701 l 1,0,-1
EndSplineSet
Validated: 1
EndChar

StartChar: afii10029
Encoding: 1051 1051 202
Width: 705
GlyphClass: 2
Flags: W
LayerCount: 2
Fore
SplineSet
0 0 m 1,0,-1
 7 73 l 1,1,2
 201 77 201 77 212 700 c 1,3,-1
 256 700 l 1,4,-1
 580 694 l 1,5,-1
 651 691 l 1,6,-1
 648 10 l 1,7,-1
 592 9 l 1,8,-1
 609 630 l 1,9,-1
 280 639 l 1,10,11
 266 -13 266 -13 0 0 c 1,0,-1
EndSplineSet
Validated: 33
EndChar

StartChar: afii10033
Encoding: 1055 1055 203
AltUni2: 0003a0.ffffffff.0
Width: 747
GlyphClass: 2
Flags: W
LayerCount: 2
Fore
SplineSet
19 0 m 1,0,-1
 19 700 l 1,1,-1
 63 700 l 1,2,-1
 622 694 l 1,3,-1
 693 691 l 1,4,-1
 690 10 l 1,5,-1
 634 9 l 1,6,-1
 651 630 l 1,7,-1
 70 641 l 1,8,-1
 85 0 l 1,9,-1
 19 0 l 1,0,-1
EndSplineSet
Validated: 1
EndChar

StartChar: afii10037
Encoding: 1059 1059 204
Width: 657
GlyphClass: 2
Flags: W
LayerCount: 2
Fore
SplineSet
130 -1 m 128,-1,1
 59 -22 59 -22 -1 17 c 1,2,-1
 27 92 l 1,3,4
 83 28 83 28 154 103 c 1,5,-1
 260 278 l 1,6,-1
 4 658 l 1,7,-1
 73 702 l 1,8,-1
 299 336 l 1,9,-1
 515 699 l 1,10,-1
 582 666 l 1,11,-1
 401 370 l 1,12,-1
 303 203 l 1,13,0
 201 20 201 20 130 -1 c 128,-1,1
EndSplineSet
Validated: 33
EndChar

StartChar: afii10038
Encoding: 1060 1060 205
AltUni2: 0003a6.ffffffff.0
Width: 850
GlyphClass: 2
Flags: W
LayerCount: 2
Fore
SplineSet
371 712 m 1,0,-1
 452 711 l 1,1,-1
 449 654 l 1,2,3
 467 653 467 653 486 650 c 0,4,5
 526 646 526 646 568 633 c 0,6,7
 611 621 611 621 649.5 600 c 128,-1,8
 688 579 688 579 723 546 c 0,9,10
 758 512 758 512 780 464 c 0,11,12
 805 412 805 412 804 352 c 0,13,14
 803 266 803 266 762 205 c 0,15,16
 723 147 723 147 664 111 c 0,17,18
 606 75 606 75 536 59 c 0,19,20
 475 45 475 45 418 43 c 1,21,-1
 415 -8 l 1,22,-1
 350 -7 l 1,23,-1
 352 45 l 1,24,25
 337 46 337 46 321 47 c 0,26,27
 277 51 277 51 232 65 c 256,28,29
 187 79 187 79 146 103 c 0,30,31
 106 127 106 127 73 160.5 c 128,-1,32
 40 194 40 194 22 237 c 0,33,34
 3 284 3 284 8 349 c 0,35,36
 13 412 13 412 37 460 c 0,37,38
 61 507 61 507 97 541 c 0,39,40
 133 576 133 576 174 597 c 0,41,42
 214 619 214 619 258 633 c 0,43,44
 301 647 301 647 342 651 c 0,45,46
 356 653 356 653 369 654 c 1,47,-1
 371 712 l 1,0,-1
368 600 m 1,48,49
 340 597 340 597 314 590 c 0,50,51
 250 576 250 576 200 536 c 0,52,53
 149 496 149 496 124 437 c 0,54,55
 98 378 98 378 100 317 c 0,56,57
 102 260 102 260 130 218 c 0,58,59
 158 177 158 177 196 151 c 0,60,61
 233 125 233 125 287 112 c 0,62,63
 320 104 320 104 353 100 c 1,64,-1
 368 600 l 1,48,49
420 97 m 1,65,66
 465 99 465 99 512 111 c 0,67,68
 571 125 571 125 614 155 c 0,69,70
 657 186 657 186 690 241 c 0,71,72
 724 299 724 299 719 377 c 0,73,74
 716 420 716 420 694 462 c 0,75,76
 674 499 674 499 652 522 c 0,77,78
 631 544 631 544 600 561 c 0,79,80
 568 577 568 577 538 587 c 0,81,82
 509 597 509 597 446 602 c 1,83,-1
 420 97 l 1,65,66
EndSplineSet
Validated: 33
EndChar

StartChar: afii10040
Encoding: 1062 1062 206
Width: 836
GlyphClass: 2
Flags: W
LayerCount: 2
Fore
SplineSet
23 5 m 1,0,-1
 19 687 l 1,1,-1
 90 690 l 1,2,-1
 88 66 l 1,3,-1
 646 63 l 1,4,-1
 624 703 l 1,5,-1
 690 704 l 1,6,-1
 698 63 l 1,7,-1
 778 63 l 1,8,-1
 765 -113 l 1,9,-1
 704 -113 l 1,10,-1
 712 3 l 1,11,-1
 23 5 l 1,0,-1
EndSplineSet
Validated: 1
EndChar

StartChar: afii10041
Encoding: 1063 1063 207
Width: 652
GlyphClass: 2
Flags: W
LayerCount: 2
Fore
SplineSet
5 704 m 1,0,-1
 81 697 l 1,1,-1
 80 415 l 1,2,3
 124 263 124 263 297 275 c 1,4,-1
 519 273 l 1,5,-1
 526 683 l 1,6,-1
 585 681 l 1,7,-1
 585 0 l 1,8,-1
 514 1 l 1,9,-1
 517 202 l 1,10,-1
 244 208 l 1,11,12
 -22 235 -22 235 3 459 c 1,13,-1
 5 704 l 1,0,-1
EndSplineSet
Validated: 33
EndChar

StartChar: afii10042
Encoding: 1064 1064 208
Width: 843
GlyphClass: 2
Flags: W
LayerCount: 2
Fore
SplineSet
10 -3 m 1,0,-1
 -1 664 l 1,1,-1
 77 664 l 1,2,-1
 82 75 l 1,3,-1
 334 80 l 1,4,-1
 355 562 l 1,5,-1
 425 556 l 1,6,-1
 410 79 l 1,7,-1
 702 68 l 1,8,-1
 703 667 l 1,9,-1
 783 646 l 1,10,-1
 756 -6 l 1,11,-1
 10 -3 l 1,0,-1
EndSplineSet
Validated: 1
EndChar

StartChar: afii10043
Encoding: 1065 1065 209
Width: 898
GlyphClass: 2
Flags: W
LayerCount: 2
Fore
SplineSet
2 -3 m 1,0,-1
 -9 664 l 1,1,-1
 69 664 l 1,2,-1
 74 75 l 1,3,-1
 326 80 l 1,4,-1
 347 562 l 1,5,-1
 417 556 l 1,6,-1
 402 79 l 1,7,-1
 694 68 l 1,8,-1
 695 667 l 1,9,-1
 775 646 l 1,10,-1
 762 63 l 1,11,-1
 845 61 l 1,12,-1
 824 -103 l 1,13,-1
 755 -88 l 1,14,-1
 759 1 l 1,15,-1
 2 -3 l 1,0,-1
EndSplineSet
Validated: 1
EndChar

StartChar: afii10044
Encoding: 1066 1066 210
Width: 712
GlyphClass: 2
Flags: W
LayerCount: 2
Fore
SplineSet
188 53 m 1,0,1
 350 45 350 45 405 47 c 0,2,3
 454 49 454 49 487 68.5 c 128,-1,4
 520 88 520 88 539 117.5 c 128,-1,5
 558 147 558 147 565.5 182 c 128,-1,6
 573 217 573 217 572 250 c 0,7,8
 569 297 569 297 549.5 331 c 128,-1,9
 530 365 530 365 501 386 c 128,-1,10
 472 407 472 407 438.5 416.5 c 128,-1,11
 405 426 405 426 376 426 c 0,12,13
 329 425 329 425 187 417 c 1,14,-1
 188 53 l 1,0,1
187 693 m 1,15,-1
 188 470 l 1,16,-1
 365 476 l 2,17,18
 421 476 421 476 469.5 463 c 128,-1,19
 518 450 518 450 555.5 423 c 128,-1,20
 593 396 593 396 616.5 355.5 c 128,-1,21
 640 315 640 315 646 261 c 0,22,23
 651 206 651 206 634 157.5 c 128,-1,24
 617 109 617 109 582.5 74 c 128,-1,25
 548 39 548 39 498.5 19 c 128,-1,26
 449 -1 449 -1 389 0 c 1,27,28
 341 -10 341 -10 120 -3 c 1,29,-1
 109 625 l 1,30,-1
 -13 628 l 1,31,-1
 -7 693 l 1,32,-1
 114 693 l 1,33,-1
 187 693 l 1,15,-1
EndSplineSet
Validated: 33
EndChar

StartChar: afii10045
Encoding: 1067 1067 211
Width: 724
GlyphClass: 2
Flags: W
LayerCount: 2
Fore
SplineSet
572 696 m 1,0,-1
 653 698 l 1,1,-1
 637 -2 l 1,2,-1
 572 -3 l 1,3,-1
 572 696 l 1,0,-1
67 54 m 1,4,5
 229 46 229 46 285 48 c 0,6,7
 334 50 334 50 366.5 70 c 128,-1,8
 399 90 399 90 418.5 119.5 c 128,-1,9
 438 149 438 149 445 184 c 128,-1,10
 452 219 452 219 451 252 c 0,11,12
 448 299 448 299 428.5 333 c 128,-1,13
 409 367 409 367 379.5 388 c 128,-1,14
 350 409 350 409 316.5 418 c 128,-1,15
 283 427 283 427 255 427 c 0,16,17
 207 426 207 426 64 417 c 1,18,-1
 67 54 l 1,4,5
63 693 m 1,19,-1
 65 471 l 1,20,-1
 243 477 l 2,21,22
 299 478 299 478 347.5 465 c 128,-1,23
 396 452 396 452 433.5 425 c 128,-1,24
 471 398 471 398 495 358 c 128,-1,25
 519 318 519 318 526 264 c 0,26,27
 531 209 531 209 514 160 c 128,-1,28
 497 111 497 111 463 76.5 c 128,-1,29
 429 42 429 42 379.5 21 c 128,-1,30
 330 0 330 0 270 1 c 1,31,32
 222 -8 222 -8 1 -3 c 1,33,-1
 -9 693 l 1,34,-1
 63 693 l 1,19,-1
EndSplineSet
Validated: 33
EndChar

StartChar: afii10046
Encoding: 1068 1068 212
Width: 574
GlyphClass: 2
Flags: W
LayerCount: 2
Fore
SplineSet
73 53 m 1,0,1
 235 45 235 45 291 47 c 0,2,3
 340 49 340 49 372.5 68.5 c 128,-1,4
 405 88 405 88 424.5 117.5 c 128,-1,5
 444 147 444 147 451.5 182 c 128,-1,6
 459 217 459 217 458 250 c 0,7,8
 455 297 455 297 435.5 331 c 128,-1,9
 416 365 416 365 387 386 c 128,-1,10
 358 407 358 407 324.5 416.5 c 128,-1,11
 291 426 291 426 262 426 c 0,12,13
 215 425 215 425 72 417 c 1,14,-1
 73 53 l 1,0,1
72 693 m 1,15,-1
 73 470 l 1,16,-1
 251 476 l 2,17,18
 307 476 307 476 355.5 463 c 128,-1,19
 404 450 404 450 441.5 423 c 128,-1,20
 479 396 479 396 502.5 355.5 c 128,-1,21
 526 315 526 315 532 261 c 0,22,23
 537 206 537 206 520 157.5 c 128,-1,24
 503 109 503 109 468.5 74 c 128,-1,25
 434 39 434 39 384.5 19 c 128,-1,26
 335 -1 335 -1 275 0 c 1,27,28
 228 -10 228 -10 6 -3 c 1,29,-1
 0 693 l 1,30,-1
 72 693 l 1,15,-1
EndSplineSet
Validated: 33
EndChar

StartChar: afii10047
Encoding: 1069 1069 213
Width: 617
GlyphClass: 2
Flags: W
LayerCount: 2
Fore
SplineSet
-6 11 m 1,0,-1
 -10 99 l 1,1,2
 111 77 111 77 210 90 c 0,3,4
 253 96 253 96 295.5 109.5 c 128,-1,5
 338 123 338 123 374 149 c 128,-1,6
 410 175 410 175 436.5 215.5 c 128,-1,7
 463 256 463 256 474 314 c 1,8,-1
 99 316 l 1,9,-1
 94 380 l 1,10,-1
 477 371 l 1,11,12
 479 427 479 427 462.5 463 c 128,-1,13
 446 499 446 499 417.5 528.5 c 128,-1,14
 389 558 389 558 340.5 578 c 128,-1,15
 292 598 292 598 218 610.5 c 128,-1,16
 144 623 144 623 -6 615 c 1,17,-1
 -21 675 l 1,18,-1
 14 684 l 1,19,20
 67 691 67 691 132 692.5 c 128,-1,21
 197 694 197 694 262.5 681.5 c 128,-1,22
 328 669 328 669 387.5 640.5 c 128,-1,23
 447 612 447 612 487.5 560 c 128,-1,24
 528 508 528 508 542.5 428.5 c 128,-1,25
 557 349 557 349 534 236 c 1,26,27
 517 177 517 177 484.5 136.5 c 128,-1,28
 452 96 452 96 411 69 c 128,-1,29
 370 42 370 42 323.5 28 c 128,-1,30
 277 14 277 14 230 7 c 0,31,32
 121 -9 121 -9 -6 11 c 1,0,-1
EndSplineSet
Validated: 33
EndChar

StartChar: afii10048
Encoding: 1070 1070 214
Width: 916
GlyphClass: 2
Flags: W
LayerCount: 2
Fore
SplineSet
490 39 m 0,0,1
 537 38 537 38 587.5 55.5 c 128,-1,2
 638 73 638 73 674.5 110.5 c 128,-1,3
 711 148 711 148 738.5 216 c 128,-1,4
 766 284 766 284 764 384 c 0,5,6
 759 442 759 442 742.5 488 c 128,-1,7
 726 534 726 534 707.5 561.5 c 128,-1,8
 689 589 689 589 662.5 609.5 c 128,-1,9
 636 630 636 630 610.5 642 c 128,-1,10
 585 654 585 654 530 661 c 1,11,12
 473 664 473 664 419.5 646 c 128,-1,13
 366 628 366 628 323 579 c 128,-1,14
 280 530 280 530 258.5 457.5 c 128,-1,15
 237 385 237 385 238 309 c 0,16,17
 240 239 240 239 263.5 188 c 128,-1,18
 287 137 287 137 319 105 c 128,-1,19
 351 73 351 73 397 57 c 128,-1,20
 443 41 443 41 490 39 c 0,0,1
498 707 m 0,21,22
 526 707 526 707 561.5 701.5 c 128,-1,23
 597 696 597 696 635.5 681.5 c 128,-1,24
 674 667 674 667 708.5 642.5 c 128,-1,25
 743 618 743 618 774.5 579 c 128,-1,26
 806 540 806 540 826.5 483.5 c 128,-1,27
 847 427 847 427 848 352 c 0,28,29
 845 249 845 249 810 181 c 128,-1,30
 775 113 775 113 722.5 70.5 c 128,-1,31
 670 28 670 28 606.5 9.5 c 128,-1,32
 543 -9 543 -9 484 -9 c 0,33,34
 452 -9 452 -9 412.5 -4 c 128,-1,35
 373 1 373 1 332.5 17 c 128,-1,36
 292 33 292 33 255.5 61 c 128,-1,37
 219 89 219 89 189 128.5 c 128,-1,38
 159 168 159 168 143 218.5 c 128,-1,39
 127 269 127 269 131 324 c 1,40,-1
 52 320 l 1,41,-1
 43 0 l 1,42,-1
 -9 1 l 1,43,-1
 -12 685 l 1,44,-1
 62 676 l 1,45,-1
 52 375 l 1,46,-1
 129 375 l 1,47,48
 135 423 135 423 156.5 478.5 c 128,-1,49
 178 534 178 534 210.5 574 c 128,-1,50
 243 614 243 614 279.5 639.5 c 128,-1,51
 316 665 316 665 356 681 c 128,-1,52
 396 697 396 697 431.5 702.5 c 128,-1,53
 467 708 467 708 498 707 c 0,21,22
EndSplineSet
Validated: 33
EndChar

StartChar: afii10049
Encoding: 1071 1071 215
Width: 574
GlyphClass: 2
Flags: W
LayerCount: 2
Fore
SplineSet
466 631 m 1,0,1
 304 641 304 641 248 640 c 0,2,3
 199 639 199 639 166.5 619.5 c 128,-1,4
 134 600 134 600 114 571 c 128,-1,5
 94 542 94 542 86 507 c 128,-1,6
 78 472 78 472 79 438 c 0,7,8
 81 392 81 392 100.5 357.5 c 128,-1,9
 120 323 120 323 148.5 301.5 c 128,-1,10
 177 280 177 280 210.5 270.5 c 128,-1,11
 244 261 244 261 272 261 c 0,12,13
 320 261 320 261 463 268 c 1,14,-1
 466 631 l 1,0,1
461 -8 m 1,15,-1
 461 214 l 1,16,-1
 298 210 l 1,17,-1
 117 1 l 1,18,-1
 38 0 l 1,19,-1
 233 210 l 1,20,21
 206 222 206 222 168.5 230 c 128,-1,22
 131 238 131 238 93.5 265 c 128,-1,23
 56 292 56 292 33 333 c 128,-1,24
 10 374 10 374 4 428 c 0,25,26
 0 483 0 483 17.5 531.5 c 128,-1,27
 35 580 35 580 69.5 614.5 c 128,-1,28
 104 649 104 649 154 668.5 c 128,-1,29
 204 688 204 688 264 687 c 1,30,31
 312 696 312 696 533 687 c 1,32,-1
 533 -9 l 1,33,-1
 461 -8 l 1,15,-1
EndSplineSet
Validated: 33
EndChar

StartChar: afii10066
Encoding: 1073 1073 216
Width: 574
GlyphClass: 2
Flags: W
LayerCount: 2
Fore
SplineSet
339 588 m 0,0,1
 214 589 214 589 155 554 c 0,2,3
 100 521 100 521 88 461 c 0,4,5
 81 427 81 427 88 393 c 1,6,7
 130 437 130 437 191 458 c 0,8,9
 253 479 253 479 296.5 478.5 c 128,-1,10
 340 478 340 478 388.5 460 c 128,-1,11
 437 442 437 442 474 410.5 c 128,-1,12
 511 379 511 379 533 336 c 128,-1,13
 555 293 555 293 552 236.5 c 128,-1,14
 549 180 549 180 525 132.5 c 128,-1,15
 501 85 501 85 462.5 53 c 128,-1,16
 424 21 424 21 376 3.5 c 128,-1,17
 328 -14 328 -14 282 -14.5 c 128,-1,18
 236 -15 236 -15 183 4.5 c 128,-1,19
 130 24 130 24 96 58 c 0,20,21
 16 137 16 137 8 256 c 256,22,23
 0 375 0 375 19 473 c 0,24,25
 28 523 28 523 55 558 c 0,26,27
 103 624 103 624 158 638 c 0,28,29
 209 652 209 652 318 655 c 0,30,31
 386 657 386 657 428 677 c 1,32,-1
 473 627 l 1,33,34
 407 588 407 588 339 588 c 0,0,1
276 34 m 0,35,36
 303 33 303 33 327.5 41 c 128,-1,37
 352 49 352 49 376 63.5 c 128,-1,38
 400 78 400 78 417.5 98 c 128,-1,39
 435 118 435 118 446 140.5 c 128,-1,40
 457 163 457 163 461 186.5 c 128,-1,41
 465 210 465 210 466 233 c 0,42,43
 468 268 468 268 458 301.5 c 128,-1,44
 448 335 448 335 425.5 361.5 c 128,-1,45
 403 388 403 388 367.5 405.5 c 128,-1,46
 332 423 332 423 296 424 c 0,47,48
 272 426 272 426 237 415.5 c 128,-1,49
 202 405 202 405 172 382.5 c 128,-1,50
 142 360 142 360 121.5 324.5 c 128,-1,51
 101 289 101 289 100 240 c 0,52,53
 98 207 98 207 107.5 171.5 c 128,-1,54
 117 136 117 136 138.5 106 c 128,-1,55
 160 76 160 76 194 56 c 128,-1,56
 228 36 228 36 276 34 c 0,35,36
EndSplineSet
Validated: 33
EndChar

StartChar: afii10067
Encoding: 1074 1074 217
Width: 510
GlyphClass: 2
Flags: W
LayerCount: 2
Fore
SplineSet
90 77 m 1,0,1
 112 76 112 76 149 75.5 c 128,-1,2
 186 75 186 75 224 77.5 c 128,-1,3
 262 80 262 80 298 87 c 128,-1,4
 334 94 334 94 361 105.5 c 128,-1,5
 388 117 388 117 402 136 c 128,-1,6
 416 155 416 155 410 182 c 0,7,8
 404 203 404 203 379 216 c 128,-1,9
 354 229 354 229 317 235.5 c 128,-1,10
 280 242 280 242 238 243.5 c 128,-1,11
 196 245 196 245 160 244.5 c 128,-1,12
 124 244 124 244 104 243 c 2,13,-1
 84 241 l 1,14,-1
 90 77 l 1,0,1
338 380 m 0,15,16
 342 401 342 401 324 413 c 0,17,18
 306 424 306 424 276 430 c 0,19,20
 248 436 248 436 214 437 c 256,21,22
 180 438 180 438 150 437 c 256,23,24
 120 436 120 436 102 434 c 0,25,26
 83 432 83 432 84 431 c 2,27,-1
 86 313 l 1,28,29
 150 310 150 310 204 316 c 0,30,31
 228 318 228 318 252 323 c 0,32,33
 274 328 274 328 293 335 c 0,34,35
 312 343 312 343 324 354 c 256,36,37
 336 365 336 365 338 380 c 0,15,16
484 157 m 0,38,39
 484 125 484 125 466 101 c 128,-1,40
 448 77 448 77 416 60 c 128,-1,41
 384 43 384 43 342 32 c 128,-1,42
 300 21 300 21 258 15 c 0,43,44
 156 -1 156 -1 24 1 c 1,45,-1
 24 475 l 1,46,47
 30 477 30 477 61 480.5 c 128,-1,48
 92 484 92 484 135 485.5 c 128,-1,49
 178 487 178 487 228 484 c 128,-1,50
 278 481 278 481 320 468.5 c 128,-1,51
 362 456 362 456 390 435 c 128,-1,52
 418 414 418 414 418 381 c 0,53,54
 418 347 418 347 400 327.5 c 128,-1,55
 382 308 382 308 362 298 c 0,56,57
 336 286 336 286 306 283 c 1,58,59
 354 278 354 278 392 262 c 0,60,61
 408 256 408 256 424 246.5 c 128,-1,62
 440 237 440 237 453 224 c 128,-1,63
 466 211 466 211 474 194.5 c 128,-1,64
 482 178 482 178 484 157 c 0,38,39
EndSplineSet
Validated: 33
EndChar

StartChar: afii10068
Encoding: 1075 1075 218
Width: 391
GlyphClass: 2
Flags: W
LayerCount: 2
Fore
SplineSet
22 0 m 1,0,-1
 11 464 l 1,1,-1
 351 464 l 1,2,-1
 351 397 l 1,3,-1
 87 411 l 1,4,-1
 106 0 l 1,5,-1
 22 0 l 1,0,-1
EndSplineSet
Validated: 1
EndChar

StartChar: afii10069
Encoding: 1076 1076 219
Width: 558
GlyphClass: 2
Flags: W
LayerCount: 2
Fore
SplineSet
385 400 m 1,0,-1
 181 402 l 1,1,2
 174 114 174 114 126 49 c 1,3,-1
 372 49 l 1,4,-1
 385 400 l 1,0,-1
459 46 m 1,5,-1
 530 46 l 1,6,-1
 510 -126 l 1,7,-1
 455 -117 l 1,8,-1
 447 -13 l 1,9,-1
 26 -13 l 1,10,-1
 30 -126 l 1,11,-1
 -24 -134 l 1,12,-1
 -26 52 l 1,13,-1
 34 52 l 1,14,15
 126 88 126 88 117 471 c 1,16,-1
 456 475 l 1,17,-1
 459 46 l 1,5,-1
EndSplineSet
Validated: 33
EndChar

StartChar: afii10072
Encoding: 1078 1078 220
Width: 784
GlyphClass: 2
Flags: W
LayerCount: 2
Fore
SplineSet
348 472 m 1,0,-1
 414 474 l 1,1,-1
 414 319 l 1,2,-1
 666 480 l 1,3,-1
 710 421 l 1,4,-1
 459 268 l 1,5,-1
 749 68 l 1,6,-1
 698 4 l 1,7,-1
 695 0 l 1,8,-1
 421 228 l 1,9,-1
 432 -12 l 1,10,-1
 363 -15 l 1,11,-1
 354 229 l 1,12,-1
 88 15 l 1,13,-1
 65 -2 l 1,14,-1
 11 78 l 1,15,-1
 313 268 l 1,16,-1
 56 419 l 1,17,-1
 100 479 l 1,18,-1
 354 326 l 1,19,-1
 348 472 l 1,0,-1
EndSplineSet
Validated: 1
EndChar

StartChar: afii10073
Encoding: 1079 1079 221
Width: 388
GlyphClass: 2
Flags: W
LayerCount: 2
Fore
SplineSet
13 440 m 1,0,1
 47 454 47 454 84 460 c 0,2,3
 113 466 113 466 158 468 c 0,4,5
 195 470 195 470 229 464 c 128,-1,6
 263 458 263 458 288.5 447 c 128,-1,7
 314 436 314 436 330 420 c 128,-1,8
 346 404 346 404 348 381 c 0,9,10
 351 354 351 354 344 332 c 0,11,12
 336 310 336 310 323.5 294 c 128,-1,13
 311 278 311 278 296 266 c 0,14,15
 273 252 273 252 266 248 c 0,16,17
 251 242 251 242 242 238 c 0,18,19
 234 234 234 234 234 233 c 1,20,21
 234 234 234 234 248 230 c 0,22,23
 259 227 259 227 282 212 c 0,24,25
 301 200 301 200 318 178 c 0,26,27
 334 158 334 158 340 126 c 1,28,29
 341 98 341 98 330 78 c 128,-1,30
 319 58 319 58 304 39 c 0,31,32
 286 19 286 19 263 9 c 0,33,34
 242 0 242 0 203 -9 c 0,35,36
 195 -11 195 -11 187 -12 c 0,37,38
 136 -22 136 -22 28 11 c 1,39,-1
 36 67 l 1,40,41
 114 32 114 32 161 39 c 0,42,43
 180 42 180 42 197.5 48 c 128,-1,44
 215 54 215 54 228.5 64 c 128,-1,45
 242 74 242 74 250.5 89 c 128,-1,46
 259 104 259 104 258 125 c 0,47,48
 257 142 257 142 250 154 c 0,49,50
 242 168 242 168 232 176 c 0,51,52
 221 184 221 184 207 188 c 0,53,54
 193 194 193 194 179 195 c 0,55,56
 146 200 146 200 104 195 c 1,57,58
 100 239 100 239 103 241 c 0,59,60
 104 242 104 242 116 242 c 0,61,62
 129 243 129 243 148 246 c 0,63,64
 167 250 167 250 188 256 c 0,65,66
 209 264 209 264 228 276 c 0,67,68
 247 290 247 290 258 310 c 0,69,70
 268 330 268 330 267 360 c 0,71,72
 265 392 265 392 248 406 c 0,73,74
 232 422 232 422 207 426 c 128,-1,75
 182 430 182 430 153.5 426 c 128,-1,76
 125 422 125 422 100 414 c 128,-1,77
 75 406 75 406 32 376 c 1,78,79
 31 382 31 382 13 440 c 1,0,1
EndSplineSet
Validated: 33
EndChar

StartChar: afii10074
Encoding: 1080 1080 222
Width: 555
GlyphClass: 2
Flags: W
LayerCount: 2
Fore
SplineSet
500 465 m 1,0,-1
 490 -1 l 1,1,-1
 428 -1 l 1,2,-1
 447 393 l 1,3,-1
 87 10 l 1,4,-1
 19 9 l 1,5,-1
 19 476 l 1,6,-1
 89 472 l 1,7,-1
 87 88 l 1,8,-1
 448 464 l 1,9,-1
 500 465 l 1,0,-1
EndSplineSet
Validated: 1
EndChar

StartChar: afii10076
Encoding: 1082 1082 224
Width: 500
GlyphClass: 2
Flags: W
LayerCount: 2
Fore
SplineSet
10 485 m 1,0,-1
 65 487 l 1,1,-1
 65 321 l 1,2,-1
 352 510 l 1,3,-1
 396 450 l 1,4,-1
 113 283 l 1,5,-1
 438 83 l 1,6,-1
 384 15 l 1,7,-1
 75 243 l 1,8,-1
 86 4 l 1,9,-1
 17 1 l 1,10,-1
 10 485 l 1,0,-1
EndSplineSet
Validated: 1
EndChar

StartChar: afii10077
Encoding: 1083 1083 225
Width: 497
GlyphClass: 2
Flags: W
LayerCount: 2
Fore
SplineSet
215 402 m 1,0,1
 214 282 214 282 196 198 c 0,2,3
 153 0 153 0 16 0 c 1,4,-1
 22 74 l 1,5,6
 155 85 155 85 154 457 c 1,7,-1
 449 474 l 1,8,-1
 451 0 l 1,9,-1
 381 3 l 1,10,-1
 384 404 l 1,11,-1
 215 402 l 1,0,1
EndSplineSet
Validated: 33
EndChar

StartChar: afii10078
Encoding: 1084 1084 226
Width: 623
GlyphClass: 2
Flags: W
LayerCount: 2
Fore
SplineSet
259 82 m 1,0,-1
 356 474 l 1,1,-1
 500 477 l 1,2,-1
 583 -3 l 1,3,-1
 497 -18 l 1,4,-1
 419 410 l 1,5,-1
 302 3 l 1,6,-1
 211 0 l 1,7,-1
 87 418 l 1,8,-1
 36 -11 l 1,9,-1
 -33 0 l 1,10,-1
 26 478 l 1,11,-1
 128 479 l 1,12,-1
 259 82 l 1,0,-1
EndSplineSet
Validated: 1
EndChar

StartChar: afii10079
Encoding: 1085 1085 227
Width: 463
GlyphClass: 2
Flags: W
LayerCount: 2
Fore
SplineSet
334 3 m 1,0,-1
 341 199 l 1,1,-1
 79 198 l 1,2,-1
 94 1 l 1,3,-1
 16 0 l 1,4,-1
 3 460 l 1,5,-1
 70 463 l 1,6,-1
 77 255 l 1,7,-1
 344 268 l 1,8,-1
 356 470 l 1,9,-1
 415 474 l 1,10,-1
 417 0 l 1,11,-1
 334 3 l 1,0,-1
EndSplineSet
Validated: 1
EndChar

StartChar: afii10081
Encoding: 1087 1087 228
Width: 463
GlyphClass: 2
Flags: W
LayerCount: 2
Fore
SplineSet
334 3 m 1,0,-1
 337 404 l 1,1,-1
 79 407 l 1,2,-1
 94 1 l 1,3,-1
 16 0 l 1,4,-1
 3 460 l 1,5,-1
 415 474 l 1,6,-1
 417 0 l 1,7,-1
 334 3 l 1,0,-1
EndSplineSet
Validated: 1
EndChar

StartChar: afii10084
Encoding: 1090 1090 229
Width: 483
GlyphClass: 2
Flags: W
LayerCount: 2
Fore
SplineSet
271 407 m 1,0,-1
 284 5 l 1,1,-1
 197 2 l 1,2,-1
 206 402 l 1,3,-1
 24 403 l 1,4,-1
 25 467 l 1,5,-1
 447 458 l 1,6,-1
 447 406 l 1,7,-1
 271 407 l 1,0,-1
EndSplineSet
Validated: 1
EndChar

StartChar: afii10086
Encoding: 1092 1092 230
Width: 596
GlyphClass: 2
Flags: W
LayerCount: 2
Fore
SplineSet
256 57 m 1,0,-1
 255 429 l 1,1,2
 229 430 229 430 202.5 419 c 128,-1,3
 176 408 176 408 153 386 c 128,-1,4
 130 364 130 364 115 329.5 c 128,-1,5
 100 295 100 295 101 248 c 0,6,7
 101 216 101 216 109.5 183 c 128,-1,8
 118 150 118 150 135.5 122 c 128,-1,9
 153 94 153 94 180 76 c 128,-1,10
 207 58 207 58 256 57 c 1,0,-1
316 55 m 1,11,12
 337 55 337 55 356 63 c 128,-1,13
 375 71 375 71 394 86 c 128,-1,14
 413 101 413 101 425.5 120.5 c 128,-1,15
 438 140 438 140 446 161.5 c 128,-1,16
 454 183 454 183 456 205.5 c 128,-1,17
 458 228 458 228 458 249 c 0,18,19
 459 283 459 283 450 314.5 c 128,-1,20
 441 346 441 346 423 370.5 c 128,-1,21
 405 395 405 395 376.5 410.5 c 128,-1,22
 348 426 348 426 319 433 c 1,23,-1
 316 55 l 1,11,12
540 259 m 0,24,25
 539 200 539 200 517 153 c 128,-1,26
 495 106 495 106 457.5 74 c 128,-1,27
 420 42 420 42 372 23.5 c 128,-1,28
 324 5 324 5 312 3 c 1,29,-1
 312 -206 l 1,30,-1
 259 -204 l 1,31,-1
 258 2 l 1,32,33
 243 1 243 1 189.5 18 c 128,-1,34
 136 35 136 35 96 66 c 128,-1,35
 56 97 56 97 34.5 142.5 c 128,-1,36
 13 188 13 188 16 242 c 0,37,38
 20 295 20 295 43 337.5 c 128,-1,39
 66 380 66 380 104 410 c 128,-1,40
 142 440 142 440 192.5 459 c 128,-1,41
 243 478 243 478 259 479 c 1,42,-1
 259 594 l 1,43,-1
 320 591 l 1,44,-1
 323 479 l 1,45,46
 346 475 346 475 381.5 461.5 c 128,-1,47
 417 448 417 448 455.5 419 c 128,-1,48
 494 390 494 390 517.5 349.5 c 128,-1,49
 541 309 541 309 540 259 c 0,24,25
EndSplineSet
Validated: 33
EndChar

StartChar: afii10088
Encoding: 1094 1094 231
Width: 508
GlyphClass: 2
Flags: W
LayerCount: 2
Fore
SplineSet
27 1 m 1,0,-1
 20 466 l 1,1,-1
 111 465 l 1,2,-1
 103 55 l 1,3,-1
 346 63 l 1,4,-1
 337 460 l 1,5,-1
 418 460 l 1,6,-1
 413 64 l 1,7,-1
 468 64 l 1,8,-1
 460 -67 l 1,9,-1
 412 -61 l 1,10,-1
 409 6 l 1,11,-1
 27 1 l 1,0,-1
EndSplineSet
Validated: 1
EndChar

StartChar: afii10089
Encoding: 1095 1095 232
Width: 517
GlyphClass: 2
Flags: W
LayerCount: 2
Fore
SplineSet
472 461 m 1,0,-1
 458 -1 l 1,1,-1
 391 -3 l 1,2,-1
 388 124 l 1,3,-1
 283 129 l 2,4,5
 189 131 189 131 140.5 144.5 c 128,-1,6
 92 158 92 158 66 184.5 c 128,-1,7
 40 211 40 211 29.5 244 c 128,-1,8
 19 277 19 277 22 314 c 2,9,-1
 22 457 l 1,10,-1
 84 458 l 1,11,-1
 85 339 l 2,12,13
 85 271 85 271 104 247.5 c 128,-1,14
 123 224 123 224 154.5 212 c 128,-1,15
 186 200 186 200 277 194 c 1,16,-1
 381 202 l 1,17,-1
 380 463 l 1,18,-1
 472 461 l 1,0,-1
EndSplineSet
Validated: 33
EndChar

StartChar: afii10090
Encoding: 1096 1096 233
Width: 611
GlyphClass: 2
Flags: W
LayerCount: 2
Fore
SplineSet
27 1 m 1,0,-1
 20 466 l 1,1,-1
 111 465 l 1,2,-1
 103 55 l 1,3,-1
 266 63 l 1,4,-1
 262 438 l 1,5,-1
 328 438 l 1,6,-1
 333 64 l 1,7,-1
 490 64 l 1,8,-1
 491 459 l 1,9,-1
 577 462 l 1,10,-1
 560 6 l 1,11,-1
 27 1 l 1,0,-1
EndSplineSet
Validated: 1
EndChar

StartChar: afii10091
Encoding: 1097 1097 234
Width: 659
GlyphClass: 2
Flags: W
LayerCount: 2
Fore
SplineSet
38 1 m 1,0,-1
 30 466 l 1,1,-1
 122 465 l 1,2,-1
 113 55 l 1,3,-1
 276 63 l 1,4,-1
 272 438 l 1,5,-1
 338 438 l 1,6,-1
 343 64 l 1,7,-1
 500 64 l 1,8,-1
 501 459 l 1,9,-1
 587 462 l 1,10,-1
 574 59 l 1,11,-1
 619 60 l 1,12,-1
 621 2 l 1,13,-1
 615 -76 l 1,14,-1
 565 -77 l 1,15,-1
 566 2 l 1,16,-1
 38 1 l 1,0,-1
EndSplineSet
Validated: 1
EndChar

StartChar: afii10092
Encoding: 1098 1098 235
Width: 551
GlyphClass: 2
Flags: W
LayerCount: 2
Fore
SplineSet
146 289 m 1,0,-1
 137 58 l 1,1,2
 251 50 251 50 288 51 c 0,3,4
 303 51 303 51 320 54 c 128,-1,5
 337 57 337 57 353.5 63.5 c 128,-1,6
 370 70 370 70 385 79 c 128,-1,7
 400 88 400 88 411 100.5 c 128,-1,8
 422 113 422 113 428.5 128.5 c 128,-1,9
 435 144 435 144 435 164 c 128,-1,10
 435 184 435 184 428 204.5 c 128,-1,11
 421 225 421 225 404.5 242.5 c 128,-1,12
 388 260 388 260 362 271 c 128,-1,13
 336 282 336 282 146 289 c 1,0,-1
70 -4 m 1,14,-1
 68 398 l 1,15,-1
 9 398 l 1,16,-1
 3 465 l 1,17,-1
 73 463 l 1,18,-1
 141 464 l 1,19,-1
 144 337 l 1,20,-1
 249 332 l 2,21,22
 342 329 342 329 394.5 312 c 128,-1,23
 447 295 447 295 466 277 c 128,-1,24
 485 259 485 259 498.5 220.5 c 128,-1,25
 512 182 512 182 508 146 c 128,-1,26
 504 110 504 110 484 82.5 c 128,-1,27
 464 55 464 55 432.5 36 c 128,-1,28
 401 17 401 17 360.5 7.5 c 128,-1,29
 320 -2 320 -2 274 -3 c 2,30,-1
 70 -4 l 1,14,-1
EndSplineSet
Validated: 33
EndChar

StartChar: afii10093
Encoding: 1099 1099 236
Width: 605
GlyphClass: 2
Flags: W
LayerCount: 2
Fore
SplineSet
77 289 m 1,0,-1
 68 58 l 1,1,2
 182 50 182 50 219 51 c 0,3,4
 234 51 234 51 251 54 c 128,-1,5
 268 57 268 57 284.5 63.5 c 128,-1,6
 301 70 301 70 316 79 c 128,-1,7
 331 88 331 88 342 100.5 c 128,-1,8
 353 113 353 113 359.5 128.5 c 128,-1,9
 366 144 366 144 366 164 c 128,-1,10
 366 184 366 184 359 204.5 c 128,-1,11
 352 225 352 225 335.5 242.5 c 128,-1,12
 319 260 319 260 293 271 c 128,-1,13
 267 282 267 282 77 289 c 1,0,-1
471 457 m 1,14,-1
 548 458 l 1,15,-1
 541 7 l 1,16,-1
 458 8 l 1,17,-1
 471 457 l 1,14,-1
0 -4 m 1,18,-1
 3 463 l 1,19,-1
 71 464 l 1,20,-1
 74 337 l 1,21,-1
 178 332 l 2,22,23
 272 329 272 329 324 312 c 128,-1,24
 376 295 376 295 399 270 c 128,-1,25
 422 245 422 245 432 213.5 c 128,-1,26
 442 182 442 182 438 146 c 128,-1,27
 434 110 434 110 414 82.5 c 128,-1,28
 394 55 394 55 362.5 36 c 128,-1,29
 331 17 331 17 290.5 7.5 c 128,-1,30
 250 -2 250 -2 204 -3 c 2,31,-1
 0 -4 l 1,18,-1
EndSplineSet
Validated: 33
EndChar

StartChar: afii10094
Encoding: 1100 1100 237
Width: 500
GlyphClass: 2
Flags: W
LayerCount: 2
Fore
SplineSet
77 289 m 1,0,-1
 68 58 l 1,1,2
 182 50 182 50 219 51 c 0,3,4
 234 51 234 51 251 54 c 128,-1,5
 268 57 268 57 284.5 63.5 c 128,-1,6
 301 70 301 70 316 79 c 128,-1,7
 331 88 331 88 342 100.5 c 128,-1,8
 353 113 353 113 359.5 128.5 c 128,-1,9
 366 144 366 144 366 164 c 128,-1,10
 366 184 366 184 359 204.5 c 128,-1,11
 352 225 352 225 335.5 242.5 c 128,-1,12
 319 260 319 260 293 271 c 128,-1,13
 267 282 267 282 77 289 c 1,0,-1
0 -4 m 1,14,-1
 3 463 l 1,15,-1
 71 464 l 1,16,-1
 74 337 l 1,17,-1
 178 332 l 2,18,19
 272 329 272 329 324 312 c 128,-1,20
 376 295 376 295 399 271.5 c 128,-1,21
 422 248 422 248 432 215 c 128,-1,22
 442 182 442 182 438 146 c 128,-1,23
 434 110 434 110 414 82.5 c 128,-1,24
 394 55 394 55 362.5 36 c 128,-1,25
 331 17 331 17 290.5 7.5 c 128,-1,26
 250 -2 250 -2 204 -3 c 2,27,-1
 0 -4 l 1,14,-1
EndSplineSet
Validated: 33
EndChar

StartChar: afii10095
Encoding: 1101 1101 238
Width: 472
GlyphClass: 2
Flags: W
LayerCount: 2
Fore
SplineSet
2 24 m 1,0,-1
 26 87 l 1,1,2
 86 37 86 37 172 46 c 0,3,4
 227 48 227 48 250 60.5 c 128,-1,5
 273 73 273 73 295 95 c 128,-1,6
 317 117 317 117 330.5 141 c 128,-1,7
 344 165 344 165 347 221 c 1,8,-1
 92 216 l 1,9,-1
 91 266 l 1,10,-1
 344 275 l 1,11,12
 338 328 338 328 314 359.5 c 128,-1,13
 290 391 290 391 252.5 413.5 c 128,-1,14
 215 436 215 436 180.5 439.5 c 128,-1,15
 146 443 146 443 114.5 433.5 c 128,-1,16
 83 424 83 424 20 375 c 1,17,-1
 -4 438 l 1,18,19
 91 492 91 492 157 493 c 128,-1,20
 223 494 223 494 264.5 482.5 c 128,-1,21
 306 471 306 471 336.5 446 c 128,-1,22
 367 421 367 421 393.5 378 c 128,-1,23
 420 335 420 335 426.5 287 c 128,-1,24
 433 239 433 239 424 170 c 1,25,26
 411 110 411 110 377 71 c 128,-1,27
 343 32 343 32 302.5 11 c 128,-1,28
 262 -10 262 -10 180 -9 c 1,29,30
 81 -13 81 -13 2 24 c 1,0,-1
EndSplineSet
Validated: 33
EndChar

StartChar: afii10096
Encoding: 1102 1102 239
Width: 609
GlyphClass: 2
Flags: W
LayerCount: 2
Fore
SplineSet
331 34 m 0,0,1
 352 33 352 33 370.5 41 c 128,-1,2
 389 49 389 49 408 63.5 c 128,-1,3
 427 78 427 78 440.5 98 c 128,-1,4
 454 118 454 118 462 140.5 c 128,-1,5
 470 163 470 163 473.5 186.5 c 128,-1,6
 477 210 477 210 477 233 c 0,7,8
 479 268 479 268 471 301.5 c 128,-1,9
 463 335 463 335 446 361.5 c 128,-1,10
 429 388 429 388 401.5 405.5 c 128,-1,11
 374 423 374 423 347 424 c 0,12,13
 328 426 328 426 300.5 415.5 c 128,-1,14
 273 405 273 405 250.5 382.5 c 128,-1,15
 228 360 228 360 211.5 324.5 c 128,-1,16
 195 289 195 289 194 240 c 0,17,18
 193 207 193 207 200.5 171.5 c 128,-1,19
 208 136 208 136 225 106 c 128,-1,20
 242 76 242 76 268 56 c 128,-1,21
 294 36 294 36 331 34 c 0,0,1
558 241 m 0,22,23
 556 180 556 180 536.5 132.5 c 128,-1,24
 517 85 517 85 485 53 c 128,-1,25
 453 21 453 21 413.5 3.5 c 128,-1,26
 374 -14 374 -14 338 -14 c 0,27,28
 298 -15 298 -15 254 4.5 c 128,-1,29
 210 24 210 24 178.5 58 c 128,-1,30
 147 92 147 92 131 140 c 128,-1,31
 115 188 115 188 123 229 c 1,32,-1
 76 228 l 1,33,-1
 77 1 l 1,34,-1
 20 5 l 1,35,-1
 20 459 l 1,36,-1
 79 461 l 1,37,-1
 75 268 l 1,38,-1
 122 271 l 1,39,40
 124 298 124 298 144.5 341.5 c 128,-1,41
 165 385 165 385 197 414.5 c 128,-1,42
 229 444 229 444 270.5 461.5 c 128,-1,43
 312 479 312 479 352 478 c 0,44,45
 384 478 384 478 423 460 c 128,-1,46
 462 442 462 442 492.5 410.5 c 128,-1,47
 523 379 523 379 542 336 c 128,-1,48
 561 293 561 293 558 241 c 0,22,23
EndSplineSet
Validated: 33
EndChar

StartChar: afii10097
Encoding: 1103 1103 240
Width: 506
GlyphClass: 2
Flags: W
LayerCount: 2
Fore
SplineSet
390 189 m 1,0,-1
 394 401 l 1,1,2
 289 408 289 408 255 407 c 0,3,4
 241 406 241 406 225.5 403 c 128,-1,5
 210 400 210 400 195 394 c 128,-1,6
 180 388 180 388 166 379.5 c 128,-1,7
 152 371 152 371 141.5 359 c 128,-1,8
 131 347 131 347 125.5 332 c 128,-1,9
 120 317 120 317 120 298 c 0,10,11
 119 279 119 279 126 259 c 128,-1,12
 133 239 133 239 148 222.5 c 128,-1,13
 163 206 163 206 187 196 c 128,-1,14
 211 186 211 186 390 189 c 1,0,-1
462 465 m 1,15,-1
 460 -2 l 1,16,-1
 393 -4 l 1,17,-1
 390 123 l 1,18,-1
 260 125 l 1,19,-1
 152 -2 l 1,20,-1
 71 1 l 1,21,-1
 205 129 l 1,22,23
 158 130 158 130 122.5 147.5 c 128,-1,24
 87 165 87 165 66 190 c 128,-1,25
 45 215 45 215 33 246 c 128,-1,26
 21 277 21 277 25 313 c 0,27,28
 28 350 28 350 48.5 377.5 c 128,-1,29
 69 405 69 405 100 423.5 c 128,-1,30
 131 442 131 442 172 452 c 128,-1,31
 213 462 213 462 258 463 c 2,32,-1
 462 465 l 1,15,-1
EndSplineSet
Validated: 33
EndChar

StartChar: endash
Encoding: 8211 8211 241
Width: 411
GlyphClass: 2
Flags: W
LayerCount: 2
Fore
SplineSet
0 321 m 1,0,-1
 364 336 l 1,1,-1
 360 285 l 1,2,-1
 3 292 l 1,3,-1
 0 321 l 1,0,-1
EndSplineSet
Validated: 1
EndChar

StartChar: emdash
Encoding: 8212 8212 242
Width: 320
GlyphClass: 2
Flags: W
LayerCount: 2
Fore
SplineSet
0 324 m 1,0,-1
 266 341 l 1,1,-1
 264 287 l 1,2,-1
 3 293 l 1,3,-1
 0 324 l 1,0,-1
EndSplineSet
Validated: 1
EndChar

StartChar: quoteleft
Encoding: 8216 8216 243
Width: 117
GlyphClass: 2
Flags: W
LayerCount: 2
Fore
SplineSet
0 745 m 1,0,-1
 63 748 l 1,1,-1
 63 591 l 1,2,-1
 30 591 l 1,3,-1
 0 745 l 1,0,-1
EndSplineSet
Validated: 1
EndChar

StartChar: quoteright
Encoding: 8217 8217 244
Width: 116
GlyphClass: 2
Flags: W
LayerCount: 2
Fore
SplineSet
39 547 m 1,0,-1
 2 547 l 1,1,-1
 2 702 l 1,2,-1
 72 698 l 1,3,-1
 39 547 l 1,0,-1
EndSplineSet
Validated: 1
EndChar

StartChar: quotesinglbase
Encoding: 8218 8218 245
Width: 110
GlyphClass: 2
Flags: W
LayerCount: 2
Fore
SplineSet
33 -52 m 1,0,-1
 1 -52 l 1,1,-1
 1 98 l 1,2,-1
 61 94 l 1,3,-1
 33 -52 l 1,0,-1
EndSplineSet
Validated: 1
EndChar

StartChar: quotedblleft
Encoding: 8220 8220 246
Width: 171
GlyphClass: 2
Flags: W
LayerCount: 2
Fore
SplineSet
67 748 m 1,0,-1
 119 736 l 1,1,-1
 105 626 l 1,2,-1
 76 626 l 1,3,-1
 67 748 l 1,0,-1
25 601 m 1,4,-1
 0 733 l 1,5,-1
 54 736 l 1,6,-1
 54 601 l 1,7,-1
 25 601 l 1,4,-1
EndSplineSet
Validated: 1
EndChar

StartChar: quotedblright
Encoding: 8221 8221 247
Width: 169
GlyphClass: 2
Flags: W
LayerCount: 2
Fore
SplineSet
117 736 m 1,0,-1
 103 628 l 1,1,-1
 75 628 l 1,2,-1
 66 748 l 1,3,-1
 117 736 l 1,0,-1
0 733 m 1,4,-1
 53 736 l 1,5,-1
 53 603 l 1,6,-1
 25 603 l 1,7,-1
 0 733 l 1,4,-1
EndSplineSet
Validated: 1
EndChar

StartChar: quotedblbase
Encoding: 8222 8222 248
Width: 150
GlyphClass: 2
Flags: W
LayerCount: 2
Fore
SplineSet
100 82 m 1,0,-1
 87 -8 l 1,1,-1
 64 -8 l 1,2,-1
 55 93 l 1,3,-1
 100 82 l 1,0,-1
1 80 m 1,4,-1
 46 82 l 1,5,-1
 46 -29 l 1,6,-1
 22 -29 l 1,7,-1
 1 80 l 1,4,-1
EndSplineSet
Validated: 1
EndChar

StartChar: Euro
Encoding: 8364 8364 249
Width: 411
GlyphClass: 2
Flags: W
LayerCount: 2
Fore
SplineSet
359 92 m 1,0,1
 283 81 283 81 221 99 c 0,2,3
 195 106 195 106 169.5 120 c 128,-1,4
 144 134 144 134 123.5 157.5 c 128,-1,5
 103 181 103 181 89.5 216 c 128,-1,6
 76 251 76 251 73 299 c 1,7,-1
 34 301 l 1,8,-1
 32 331 l 1,9,-1
 72 335 l 2,10,11
 72 336 72 336 73 361 c 1,12,-1
 5 357 l 1,13,-1
 0 392 l 1,14,-1
 78 394 l 1,15,16
 87 456 87 456 109.5 495.5 c 128,-1,17
 132 535 132 535 160.5 557 c 128,-1,18
 189 579 189 579 220.5 586.5 c 128,-1,19
 252 594 252 594 279.5 592.5 c 128,-1,20
 307 591 307 591 327 583.5 c 128,-1,21
 347 576 347 576 353 569 c 1,22,-1
 338 515 l 1,23,24
 337 516 337 516 323.5 523 c 128,-1,25
 310 530 310 530 289.5 536 c 128,-1,26
 269 542 269 542 244.5 542 c 128,-1,27
 220 542 220 542 198.5 528.5 c 128,-1,28
 177 515 177 515 161.5 483 c 128,-1,29
 146 451 146 451 142 394 c 1,30,-1
 193 394 l 1,31,-1
 191 368 l 1,32,-1
 140 365 l 1,33,-1
 140 339 l 1,34,-1
 224 347 l 1,35,-1
 222 296 l 1,36,-1
 143 298 l 1,37,38
 148 247 148 247 164.5 218 c 128,-1,39
 181 189 181 189 202.5 176.5 c 128,-1,40
 224 164 224 164 247.5 161 c 128,-1,41
 271 158 271 158 291 161 c 128,-1,42
 311 164 311 164 324.5 167.5 c 128,-1,43
 338 171 338 171 338 172 c 1,44,-1
 359 92 l 1,0,1
EndSplineSet
Validated: 33
EndChar

StartChar: trademark
Encoding: 8482 8482 250
Width: 340
GlyphClass: 2
Flags: W
LayerCount: 2
Fore
SplineSet
143 553 m 1,0,-1
 143 700 l 1,1,-1
 152 700 l 1,2,-1
 212 583 l 1,3,-1
 266 699 l 1,4,-1
 284 699 l 1,5,-1
 293 554 l 1,6,-1
 270 554 l 1,7,-1
 264 671 l 1,8,-1
 208 555 l 1,9,-1
 155 665 l 1,10,-1
 159 552 l 1,11,-1
 143 553 l 1,0,-1
1 700 m 1,12,-1
 127 699 l 1,13,-1
 126 687 l 1,14,-1
 66 687 l 1,15,-1
 78 554 l 1,16,-1
 57 553 l 1,17,-1
 53 688 l 1,18,-1
 2 689 l 1,19,-1
 1 700 l 1,12,-1
EndSplineSet
Validated: 1
EndChar

StartChar: minus
Encoding: 8722 8722 251
Width: 320
GlyphClass: 2
Flags: W
LayerCount: 2
Fore
SplineSet
0 324 m 1,0,-1
 266 341 l 1,1,-1
 264 287 l 1,2,-1
 3 293 l 1,3,-1
 0 324 l 1,0,-1
EndSplineSet
Validated: 1
EndChar

StartChar: dotlessi
Encoding: 305 305 255
AltUni2: 0003b9.ffffffff.0
Width: 239
Flags: W
AnchorPoint: "bottom" 95 -30 basechar 0
AnchorPoint: "bottomattside" 77 5 basechar 0
AnchorPoint: "top" 105 485 basechar 0
LayerCount: 2
Fore
SplineSet
159 450 m 1,0,-1
 150 0 l 1,1,-1
 43 1 l 1,2,-1
 59 449 l 1,3,-1
 159 450 l 1,0,-1
EndSplineSet
Validated: 1
EndChar

StartChar: yen
Encoding: 165 165 258
Width: 466
Flags: W
LayerCount: 2
Fore
SplineSet
84 250.900390625 m 1,0,-1
 80.7998046875 286.900390625 l 1,1,-1
 365.599609375 299.700195312 l 1,2,-1
 365.599609375 238.900390625 l 1,3,-1
 84 250.900390625 l 1,0,-1
89.599609375 338.099609375 m 1,4,-1
 92.7998046875 401.299804688 l 1,5,-1
 371.200195312 362.099609375 l 1,6,-1
 374.400390625 326.900390625 l 1,7,-1
 89.599609375 338.099609375 l 1,4,-1
EndSplineSet
Refer: 57 89 N 0.8 0 0 0.8 -22 70.1 2
Validated: 5
EndChar

StartChar: guillemotleft
Encoding: 171 171 259
Width: 409
Flags: W
LayerCount: 2
Fore
SplineSet
185 514 m 1,0,-1
 213 452 l 1,1,-1
 58 359 l 1,2,-1
 166 226 l 1,3,-1
 148 187 l 1,4,-1
 -1 363 l 1,5,-1
 185 514 l 1,0,-1
314 493 m 1,6,-1
 354 459 l 1,7,-1
 202 345 l 1,8,-1
 322 215 l 1,9,-1
 292 194 l 1,10,-1
 144 348 l 1,11,-1
 314 493 l 1,6,-1
EndSplineSet
Validated: 1
EndChar

StartChar: guillemotright
Encoding: 187 187 260
Width: 409
Flags: W
LayerCount: 2
Fore
SplineSet
168 514 m 1,0,-1
 354 363 l 1,1,-1
 205 187 l 1,2,-1
 187 226 l 1,3,-1
 295 359 l 1,4,-1
 140 452 l 1,5,-1
 168 514 l 1,0,-1
39 493 m 1,6,-1
 209 348 l 1,7,-1
 61 194 l 1,8,-1
 31 215 l 1,9,-1
 151 345 l 1,10,-1
 -1 459 l 1,11,-1
 39 493 l 1,6,-1
EndSplineSet
Validated: 1
EndChar

StartChar: uni0394
Encoding: 916 916 269
Width: 708
Flags: W
LayerCount: 2
Fore
SplineSet
7 25 m 1,0,-1
 338 701 l 1,1,-1
 372 698 l 1,2,-1
 661 23 l 1,3,-1
 7 25 l 1,0,-1
129 88 m 1,4,-1
 563 90 l 1,5,-1
 360 581 l 1,6,-1
 129 88 l 1,4,-1
EndSplineSet
Validated: 1
EndChar

StartChar: Zeta
Encoding: 918 918 270
Width: 638
Flags: W
LayerCount: 2
Fore
SplineSet
595 694 m 1,0,-1
 596 659 l 1,1,-1
 205 60 l 1,2,-1
 586 78 l 1,3,-1
 591 10 l 1,4,-1
 105 0 l 1,5,-1
 100 45 l 1,6,-1
 500 643 l 1,7,-1
 50 639 l 1,8,-1
 45 700 l 1,9,-1
 595 694 l 1,0,-1
EndSplineSet
Validated: 1
EndChar

StartChar: Theta
Encoding: 920 920 271
Width: 850
Flags: W
LayerCount: 2
Fore
SplineSet
289 373 m 1,0,-1
 521 379 l 1,1,-1
 517 315 l 1,2,-1
 293 323 l 1,3,-1
 289 373 l 1,0,-1
396 39 m 0,4,5
 452 38 452 38 511.5 55.5 c 128,-1,6
 571 73 571 73 614 110.5 c 128,-1,7
 657 148 657 148 689.5 216 c 128,-1,8
 722 284 722 284 719 384 c 0,9,10
 714 442 714 442 694 488 c 128,-1,11
 674 534 674 534 652.5 561.5 c 128,-1,12
 631 589 631 589 599.5 609.5 c 128,-1,13
 568 630 568 630 538 642 c 128,-1,14
 508 654 508 654 443 661 c 1,15,16
 377 664 377 664 313.5 646 c 128,-1,17
 250 628 250 628 199.5 579 c 128,-1,18
 149 530 149 530 123.5 457.5 c 128,-1,19
 98 385 98 385 100 309 c 0,20,21
 102 239 102 239 130 188 c 128,-1,22
 158 137 158 137 195.5 105 c 128,-1,23
 233 73 233 73 287 57 c 128,-1,24
 341 41 341 41 396 39 c 0,4,5
415 707 m 0,25,26
 447 707 447 707 486.5 701.5 c 128,-1,27
 526 696 526 696 568.5 681.5 c 128,-1,28
 611 667 611 667 649.5 642.5 c 128,-1,29
 688 618 688 618 723 579 c 128,-1,30
 758 540 758 540 780.5 483.5 c 128,-1,31
 803 427 803 427 804 352 c 0,32,33
 801 249 801 249 762 181 c 128,-1,34
 723 113 723 113 664.5 70.5 c 128,-1,35
 606 28 606 28 535.5 9.5 c 128,-1,36
 465 -9 465 -9 400 -9 c 0,37,38
 365 -9 365 -9 321 -4 c 128,-1,39
 277 1 277 1 232 17 c 128,-1,40
 187 33 187 33 146.5 61 c 128,-1,41
 106 89 106 89 73 128.5 c 128,-1,42
 40 168 40 168 22 218.5 c 128,-1,43
 4 269 4 269 8 349 c 0,44,45
 13 423 13 423 37 478.5 c 128,-1,46
 61 534 61 534 97 574 c 128,-1,47
 133 614 133 614 173.5 639.5 c 128,-1,48
 214 665 214 665 257.5 681 c 128,-1,49
 301 697 301 697 341.5 702.5 c 128,-1,50
 382 708 382 708 415 707 c 0,25,26
EndSplineSet
Validated: 33
EndChar

StartChar: Lambda
Encoding: 923 923 272
Width: 708
Flags: W
LayerCount: 2
Fore
SplineSet
661 23 m 1,0,-1
 601 -2 l 1,1,-1
 358 581 l 1,2,-1
 87 -2 l 1,3,-1
 10 34 l 1,4,-1
 338 701 l 1,5,-1
 372 698 l 1,6,-1
 661 23 l 1,0,-1
EndSplineSet
Validated: 1
EndChar

StartChar: Xi
Encoding: 926 926 273
Width: 850
Flags: W
LayerCount: 2
Fore
SplineSet
24 0 m 1,0,-1
 37 63 l 1,1,-1
 723 71 l 1,2,-1
 733 10 l 1,3,-1
 24 0 l 1,0,-1
22 642 m 1,4,-1
 19 700 l 1,5,-1
 731 690 l 1,6,-1
 732 628 l 1,7,-1
 22 642 l 1,4,-1
257 375 m 1,8,-1
 550 376 l 1,9,-1
 541 311 l 1,10,-1
 261 316 l 1,11,-1
 257 375 l 1,8,-1
EndSplineSet
Validated: 1
EndChar

StartChar: Sigma
Encoding: 931 931 274
Width: 437
Flags: W
LayerCount: 2
Fore
SplineSet
0 0 m 1,0,-1
 0 54 l 1,1,-1
 271 351 l 1,2,-1
 0 616 l 1,3,-1
 0 690 l 1,4,-1
 411 699 l 1,5,-1
 411 612 l 1,6,-1
 83 616 l 1,7,-1
 352 354 l 1,8,-1
 84 52 l 1,9,-1
 394 67 l 1,10,-1
 396 0 l 1,11,-1
 0 0 l 1,0,-1
EndSplineSet
Validated: 1
EndChar

StartChar: alpha
Encoding: 945 945 275
Width: 637
Flags: W
LayerCount: 2
Fore
SplineSet
279 53 m 0,0,1
 333 51 333 51 372 67.5 c 128,-1,2
 411 84 411 84 435.5 111 c 128,-1,3
 460 138 460 138 468.5 171.5 c 128,-1,4
 477 205 477 205 478 237 c 0,5,6
 479 271 479 271 472.5 304 c 128,-1,7
 466 337 466 337 444 363 c 128,-1,8
 422 389 422 389 387.5 405.5 c 128,-1,9
 353 422 353 422 307 423 c 0,10,11
 279 424 279 424 246.5 414.5 c 128,-1,12
 214 405 214 405 186 384 c 128,-1,13
 158 363 158 363 138.5 330.5 c 128,-1,14
 119 298 119 298 117 251 c 0,15,16
 116 230 116 230 118.5 207.5 c 128,-1,17
 121 185 121 185 129 163.5 c 128,-1,18
 137 142 137 142 149 122.5 c 128,-1,19
 161 103 161 103 179.5 88 c 128,-1,20
 198 73 198 73 222.5 63.5 c 128,-1,21
 247 54 247 54 279 53 c 0,0,1
536 226 m 1,22,-1
 578 4 l 1,23,-1
 493 5 l 1,24,-1
 483 76 l 1,25,26
 446 42 446 42 397.5 25 c 128,-1,27
 349 8 349 8 294 7 c 0,28,29
 236 6 236 6 187 24.5 c 128,-1,30
 138 43 138 43 103 76.5 c 128,-1,31
 68 110 68 110 50.5 156 c 128,-1,32
 33 202 33 202 38 256 c 0,33,34
 43 309 43 309 67.5 349.5 c 128,-1,35
 92 390 92 390 129.5 417 c 128,-1,36
 167 444 167 444 215.5 458 c 128,-1,37
 264 472 264 472 318 472 c 0,38,39
 367 472 367 472 412.5 454.5 c 128,-1,40
 458 437 458 437 486 405 c 1,41,-1
 486 406 l 1,42,-1
 501 455 l 1,43,-1
 584 455 l 1,44,-1
 536 226 l 1,22,-1
EndSplineSet
Validated: 33
EndChar

StartChar: beta
Encoding: 946 946 276
Width: 472
Flags: W
LayerCount: 2
Fore
SplineSet
88 173 m 1,0,-1
 66 565 l 2,1,2
 64 596 64 596 84 622 c 0,3,4
 97 639 97 639 142 648 c 0,5,6
 181 655 181 655 213 647 c 128,-1,7
 245 639 245 639 262.5 614 c 128,-1,8
 280 589 280 589 282 557 c 0,9,10
 283 530 283 530 278.5 515 c 128,-1,11
 274 500 274 500 266.5 488.5 c 128,-1,12
 259 477 259 477 250 470 c 0,13,14
 239 460 239 460 215 454 c 0,15,16
 200 450 200 450 160 448 c 1,17,-1
 178 381 l 1,18,19
 228 384 228 384 263 369 c 1,20,21
 320 334 320 334 335 312 c 0,22,23
 356 281 356 281 361 264 c 0,24,25
 372 227 372 227 371 201 c 0,26,27
 371 157 371 157 344 115 c 0,28,29
 321 78 321 78 254 73 c 0,30,31
 190 68 190 68 138 107 c 0,32,33
 109 128 109 128 88 173 c 1,0,-1
95 58 m 1,34,35
 102 46 102 46 143.5 25 c 128,-1,36
 185 4 185 4 259 11 c 0,37,38
 313 16 313 16 346 40 c 0,39,40
 381 67 381 67 398 97 c 0,41,42
 425 145 425 145 425 211 c 0,43,44
 425 264 425 264 408 301 c 0,45,46
 393 336 393 336 374.5 358 c 128,-1,47
 356 380 356 380 335 391 c 128,-1,48
 314 402 314 402 295 409 c 128,-1,49
 276 416 276 416 250 419 c 1,50,51
 277 426 277 426 297 439 c 128,-1,52
 317 452 317 452 334.5 479 c 128,-1,53
 352 506 352 506 351 551 c 0,54,55
 351 570 351 570 343 594 c 0,56,57
 337 612 337 612 320 634 c 128,-1,58
 303 656 303 656 274.5 674 c 128,-1,59
 246 692 246 692 201 698 c 0,60,61
 162 703 162 703 115 694 c 0,62,63
 65 683 65 683 41.5 657.5 c 128,-1,64
 18 632 18 632 14 602 c 0,65,66
 7 559 7 559 8 535 c 2,67,-1
 36 -207 l 1,68,-1
 110 -201 l 1,69,-1
 95 58 l 1,34,35
EndSplineSet
Validated: 41
EndChar

StartChar: gamma
Encoding: 947 947 277
Width: 562
Flags: W
LayerCount: 2
Fore
SplineSet
215 -231 m 1,0,-1
 219 0 l 1,1,-1
 1 457 l 1,2,-1
 62 487 l 1,3,-1
 257 106 l 1,4,-1
 448 489 l 1,5,-1
 525 451 l 1,6,-1
 294 -5 l 1,7,-1
 288 -237 l 1,8,-1
 215 -231 l 1,0,-1
EndSplineSet
Validated: 1
EndChar

StartChar: delta
Encoding: 948 948 278
Width: 608
Flags: W
LayerCount: 2
Fore
SplineSet
282 34 m 0,0,1
 309 33 309 33 333.5 41 c 128,-1,2
 358 49 358 49 382 63.5 c 128,-1,3
 406 78 406 78 423.5 98 c 128,-1,4
 441 118 441 118 452 140.5 c 128,-1,5
 463 163 463 163 467 186.5 c 128,-1,6
 471 210 471 210 472 233 c 0,7,8
 474 268 474 268 464 301.5 c 128,-1,9
 454 335 454 335 431.5 361.5 c 128,-1,10
 409 388 409 388 373.5 405.5 c 128,-1,11
 338 423 338 423 302 424 c 0,12,13
 278 426 278 426 243 415.5 c 128,-1,14
 208 405 208 405 178 382.5 c 128,-1,15
 148 360 148 360 127.5 324.5 c 128,-1,16
 107 289 107 289 106 240 c 0,17,18
 104 207 104 207 113.5 171.5 c 128,-1,19
 123 136 123 136 144.5 106 c 128,-1,20
 166 76 166 76 200 56 c 128,-1,21
 234 36 234 36 282 34 c 0,0,1
558 241 m 0,22,23
 555 180 555 180 531.5 132.5 c 128,-1,24
 508 85 508 85 469 53 c 128,-1,25
 430 21 430 21 382 3.5 c 128,-1,26
 334 -14 334 -14 292 -14 c 0,27,28
 242 -15 242 -15 189 4.5 c 128,-1,29
 136 24 136 24 97.5 58 c 128,-1,30
 59 92 59 92 39 140 c 128,-1,31
 19 188 19 188 24 243 c 0,32,33
 30 298 30 298 54.5 341.5 c 128,-1,34
 79 385 79 385 118 414.5 c 128,-1,35
 157 444 157 444 208 462 c 0,36,37
 217 465 217 465 226 467 c 1,38,-1
 36 626 l 1,39,-1
 37 666 l 1,40,-1
 427 674 l 1,41,-1
 429 612 l 1,42,-1
 125 615 l 1,43,-1
 307 478 l 1,44,45
 346 478 346 478 394.5 460 c 128,-1,46
 443 442 443 442 480 410.5 c 128,-1,47
 517 379 517 379 539 336 c 128,-1,48
 561 293 561 293 558 241 c 0,22,23
EndSplineSet
Validated: 33
EndChar

StartChar: epsilon
Encoding: 949 949 279
Width: 388
Flags: W
LayerCount: 2
Fore
SplineSet
348 440 m 1,0,1
 330 382 330 382 329 376 c 1,2,3
 286 406 286 406 261 414 c 128,-1,4
 236 422 236 422 207.5 426 c 128,-1,5
 179 430 179 430 154 426 c 128,-1,6
 129 422 129 422 113 406 c 0,7,8
 96 392 96 392 94 360 c 0,9,10
 93 330 93 330 103 310 c 0,11,12
 114 290 114 290 133 276 c 0,13,14
 152 264 152 264 173 256 c 0,15,16
 194 250 194 250 213 246 c 0,17,18
 232 243 232 243 245 242 c 0,19,20
 257 242 257 242 258 241 c 0,21,22
 261 239 261 239 257 195 c 1,23,24
 215 200 215 200 182 195 c 0,25,26
 168 194 168 194 154 188 c 0,27,28
 140 184 140 184 129 176 c 0,29,30
 119 168 119 168 111 154 c 0,31,32
 104 142 104 142 103 125 c 0,33,34
 102 104 102 104 110.5 89 c 128,-1,35
 119 74 119 74 132.5 64 c 128,-1,36
 146 54 146 54 163.5 48 c 128,-1,37
 181 42 181 42 200 39 c 0,38,39
 247 32 247 32 325 67 c 1,40,41
 325 67 325 67 333 11 c 1,42,43
 225 -22 225 -22 174 -12 c 0,44,45
 166 -11 166 -11 158 -9 c 0,46,47
 119 0 119 0 98 9 c 0,48,49
 75 19 75 19 57 39 c 0,50,51
 42 58 42 58 31 78 c 128,-1,52
 20 98 20 98 21 126 c 1,53,54
 27 158 27 158 43 178 c 0,55,56
 60 200 60 200 79 212 c 0,57,58
 102 227 102 227 113 230 c 0,59,60
 127 234 127 234 127 233 c 1,61,62
 127 234 127 234 119 238 c 0,63,64
 110 242 110 242 95 248 c 0,65,66
 88 252 88 252 65 266 c 0,67,68
 50 278 50 278 37.5 294 c 128,-1,69
 25 310 25 310 17 332 c 0,70,71
 10 354 10 354 13 381 c 0,72,73
 15 404 15 404 31 420 c 128,-1,74
 47 436 47 436 72.5 447 c 128,-1,75
 98 458 98 458 132 464 c 128,-1,76
 166 470 166 470 203 468 c 0,77,78
 248 466 248 466 277 460 c 0,79,80
 314 454 314 454 348 440 c 1,0,1
EndSplineSet
Validated: 33
EndChar

StartChar: eta
Encoding: 951 951 280
Width: 566
Flags: W
LayerCount: 2
Fore
SplineSet
437 -206 m 1,0,1
 437 -182 437 -182 436.5 -38.5 c 128,-1,2
 436 105 436 105 437 140 c 128,-1,3
 438 175 438 175 437.5 211.5 c 128,-1,4
 437 248 437 248 431.5 282 c 128,-1,5
 426 316 426 316 416 345.5 c 128,-1,6
 406 375 406 375 390.5 396.5 c 128,-1,7
 375 418 375 418 350.5 429 c 128,-1,8
 326 440 326 440 288 437 c 0,9,10
 255 434 255 434 225.5 419.5 c 128,-1,11
 196 405 196 405 173 379.5 c 128,-1,12
 150 354 150 354 136 316 c 0,13,14
 120 273 120 273 121 231 c 2,15,-1
 125 70 l 1,16,-1
 129 1 l 1,17,-1
 51 0 l 1,18,-1
 38 460 l 1,19,-1
 111 461 l 1,20,-1
 113 410 l 1,21,22
 145 438 145 438 180.5 455 c 128,-1,23
 216 472 216 472 256 481 c 0,24,25
 305 492 305 492 324 490 c 0,26,27
 371 486 371 486 406 461 c 128,-1,28
 441 436 441 436 464 395 c 0,29,30
 485 354 485 354 492 298 c 128,-1,31
 499 242 499 242 503 59.5 c 128,-1,32
 507 -123 507 -123 508 -207 c 1,33,-1
 437 -206 l 1,0,1
EndSplineSet
Validated: 33
EndChar

StartChar: theta
Encoding: 952 952 281
Width: 608
Flags: W
LayerCount: 2
Fore
SplineSet
285 23 m 0,0,1
 310 22 310 22 334 34 c 0,2,3
 358 47 358 47 380 69 c 0,4,5
 403 92 403 92 420 123 c 0,6,7
 436 155 436 155 447 190 c 0,8,9
 457 225 457 225 461 262 c 0,10,11
 463 291 463 291 465 319 c 1,12,-1
 119 295 l 1,13,14
 121 267 121 267 125 239 c 0,15,16
 134 183 134 183 154 136 c 0,17,18
 175 89 175 89 207 58 c 0,19,20
 240 27 240 27 285 23 c 0,0,1
547 346 m 0,21,22
 544 259 544 259 522 191 c 128,-1,23
 500 123 500 123 463 77.5 c 128,-1,24
 426 32 426 32 380 7 c 128,-1,25
 334 -18 334 -18 295 -18 c 0,26,27
 247 -19 247 -19 196.5 9 c 128,-1,28
 146 37 146 37 109.5 85 c 128,-1,29
 73 133 73 133 54 201.5 c 128,-1,30
 35 270 35 270 40 349 c 0,31,32
 46 427 46 427 69 489 c 128,-1,33
 92 551 92 551 129 593 c 128,-1,34
 166 635 166 635 214.5 660 c 128,-1,35
 263 685 263 685 309 684 c 0,36,37
 346 684 346 684 392 658 c 128,-1,38
 438 632 438 632 473 587 c 128,-1,39
 508 542 508 542 529 481 c 128,-1,40
 550 420 550 420 547 346 c 0,21,22
465 381 m 21,59,-1
 464 412 464 412 458 442 c 0,43,44
 449 495 449 495 427 536 c 0,45,46
 405 578 405 578 372 605 c 0,47,48
 340 631 340 631 304 634 c 0,49,50
 279 636 279 636 248 621 c 0,51,52
 215 604 215 604 186 569 c 0,53,54
 158 534 158 534 138 478 c 0,55,56
 121 430 121 430 118 341 c 1,57,58
 292 361 292 361 465 381 c 21,59,-1
EndSplineSet
EndChar

StartChar: lambda
Encoding: 955 955 283
Width: 549
Flags: W
LayerCount: 2
Fore
SplineSet
271 422 m 1,0,-1
 164 674 l 1,1,-1
 221 707 l 1,2,-1
 520 32 l 1,3,-1
 445 4 l 1,4,-1
 303 358 l 1,5,-1
 92 0 l 1,6,-1
 30 31 l 1,7,-1
 271 422 l 1,0,-1
EndSplineSet
Validated: 1
EndChar

StartChar: uni03BC
Encoding: 956 956 284
AltUni2: 0000b5.ffffffff.0
Width: 555
Flags: W
LayerCount: 2
Fore
SplineSet
102 473 m 1,0,1
 101 450 101 450 98.5 419 c 128,-1,2
 96 388 96 388 93.5 353 c 128,-1,3
 91 318 91 318 91 281 c 128,-1,4
 91 244 91 244 95 209.5 c 128,-1,5
 99 175 99 175 108.5 144 c 128,-1,6
 118 113 118 113 135.5 90 c 128,-1,7
 153 67 153 67 179.5 54 c 128,-1,8
 206 41 206 41 245 42 c 0,9,10
 282 42 282 42 313 55.5 c 128,-1,11
 344 69 344 69 367 94 c 0,12,13
 392 121 392 121 404 156 c 0,14,15
 419 204 419 204 419 240 c 2,16,-1
 422 467 l 1,17,-1
 500 465 l 1,18,-1
 493 8 l 1,19,-1
 420 10 l 1,20,-1
 420 62 l 1,21,22
 387 34 387 34 351 16 c 128,-1,23
 315 -2 315 -2 274 -4 c 0,24,25
 211 -7 211 -7 166.5 4 c 128,-1,26
 122 15 122 15 93 40 c 2,27,-1
 87 45 l 1,28,-1
 86 -210 l 1,29,-1
 11 -209 l 1,30,-1
 19 476 l 1,31,-1
 102 473 l 1,0,1
EndSplineSet
Validated: 33
EndChar

StartChar: pi
Encoding: 960 960 285
Width: 597
Flags: W
LayerCount: 2
Fore
SplineSet
483 392 m 1,0,-1
 487 -1 l 1,1,-1
 404 2 l 1,2,-1
 405 398 l 1,3,-1
 148 412 l 1,4,-1
 164 0 l 1,5,-1
 86 -1 l 1,6,-1
 73 416 l 1,7,-1
 12 421 l 1,8,-1
 16 479 l 1,9,-1
 552 450 l 1,10,-1
 546 388 l 1,11,-1
 483 392 l 1,0,-1
EndSplineSet
Validated: 1
EndChar

StartChar: rho
Encoding: 961 961 286
Width: 608
Flags: W
LayerCount: 2
Fore
SplineSet
28 243 m 2,0,1
 27 298 27 298 56 342 c 1,2,3
 79 385 79 385 118 414.5 c 128,-1,4
 157 444 157 444 208 461.5 c 128,-1,5
 259 479 259 479 307 478 c 0,6,7
 346 478 346 478 394.5 460 c 128,-1,8
 443 442 443 442 480 410.5 c 128,-1,9
 517 379 517 379 539 336 c 128,-1,10
 561 293 561 293 558 241 c 0,11,12
 555 180 555 180 531.5 132.5 c 128,-1,13
 508 85 508 85 469 53 c 128,-1,14
 430 21 430 21 382 3.5 c 128,-1,15
 334 -14 334 -14 292 -14 c 0,16,17
 242 -15 242 -15 189 4 c 0,18,19
 137 24 137 24 99 57 c 1,20,-1
 100 -208 l 1,21,-1
 33 -209 l 1,22,-1
 28 243 l 2,0,1
282 34 m 0,23,24
 309 33 309 33 333.5 41 c 128,-1,25
 358 49 358 49 382 63.5 c 128,-1,26
 406 78 406 78 423.5 98 c 128,-1,27
 441 118 441 118 452 140.5 c 128,-1,28
 463 163 463 163 467 186.5 c 128,-1,29
 471 210 471 210 472 233 c 0,30,31
 474 268 474 268 464 301.5 c 128,-1,32
 454 335 454 335 431.5 361.5 c 128,-1,33
 409 388 409 388 373.5 405.5 c 128,-1,34
 338 423 338 423 302 424 c 0,35,36
 278 426 278 426 243 415.5 c 128,-1,37
 208 405 208 405 178 382.5 c 128,-1,38
 148 360 148 360 127.5 324.5 c 128,-1,39
 107 289 107 289 106 240 c 0,40,41
 104 207 104 207 113.5 171.5 c 128,-1,42
 123 136 123 136 144.5 106 c 128,-1,43
 166 76 166 76 200 56 c 128,-1,44
 234 36 234 36 282 34 c 0,23,24
EndSplineSet
Validated: 33
EndChar

StartChar: sigma
Encoding: 963 963 287
Width: 640
Flags: W
LayerCount: 2
Fore
SplineSet
308 478 m 2,0,-1
 595 478 l 1,1,-1
 588 417 l 1,2,-1
 468 420 l 1,3,4
 474 415 474 415 480 410 c 0,5,6
 517 379 517 379 539 336 c 128,-1,7
 561 293 561 293 558 241 c 0,8,9
 555 180 555 180 531.5 132.5 c 128,-1,10
 508 85 508 85 469 53 c 128,-1,11
 430 21 430 21 382 3.5 c 128,-1,12
 334 -14 334 -14 292 -14 c 0,13,14
 242 -15 242 -15 189 4.5 c 128,-1,15
 136 24 136 24 97.5 58 c 128,-1,16
 59 92 59 92 39 140 c 128,-1,17
 19 188 19 188 24 243 c 0,18,19
 30 298 30 298 54.5 341.5 c 128,-1,20
 79 385 79 385 118 414 c 0,21,22
 158 445 158 445 208 462 c 0,23,24
 257 478 257 478 308 478 c 2,0,-1
282 34 m 0,25,26
 309 33 309 33 333.5 41 c 128,-1,27
 358 49 358 49 382 63.5 c 128,-1,28
 406 78 406 78 423.5 98 c 128,-1,29
 441 118 441 118 452 140.5 c 128,-1,30
 463 163 463 163 467 186.5 c 128,-1,31
 471 210 471 210 472 233 c 0,32,33
 474 268 474 268 464 301.5 c 128,-1,34
 454 335 454 335 431.5 361.5 c 128,-1,35
 409 388 409 388 373.5 405.5 c 128,-1,36
 338 423 338 423 302 424 c 0,37,38
 278 426 278 426 243 415.5 c 128,-1,39
 208 405 208 405 178 382.5 c 128,-1,40
 148 360 148 360 127.5 324.5 c 128,-1,41
 107 289 107 289 106 240 c 0,42,43
 104 207 104 207 113.5 171.5 c 128,-1,44
 123 136 123 136 144.5 106 c 128,-1,45
 166 76 166 76 200 56 c 128,-1,46
 234 36 234 36 282 34 c 0,25,26
EndSplineSet
Validated: 33
EndChar

StartChar: upsilon
Encoding: 965 965 289
Width: 550
Flags: W
LayerCount: 2
Fore
SplineSet
31 481 m 1,0,-1
 113 480 l 1,1,2
 74 378 74 378 81 282 c 0,3,4
 83 256 83 256 92 219 c 0,5,6
 100 189 100 189 116 162 c 0,7,8
 131 135 131 135 158 109 c 0,9,10
 186 82 186 82 222 74 c 0,11,12
 257 67 257 67 277 70 c 256,13,14
 297 73 297 73 323.5 81.5 c 128,-1,15
 350 90 350 90 379 119 c 256,16,17
 408 148 408 148 428 188.5 c 128,-1,18
 448 229 448 229 448 286 c 0,19,20
 449 358 449 358 416 467 c 1,21,22
 478 472 478 472 479 470 c 0,23,24
 501 416 501 416 505 331 c 0,25,26
 508 274 508 274 498 223 c 256,27,28
 488 172 488 172 464 125 c 0,29,30
 441 78 441 78 399 45 c 0,31,32
 357 13 357 13 299 0 c 128,-1,33
 241 -13 241 -13 160 17 c 1,34,35
 118 38 118 38 89.5 65 c 128,-1,36
 61 92 61 92 43 125.5 c 128,-1,37
 25 159 25 159 16 196 c 0,38,39
 6 243 6 243 4 271 c 0,40,41
 -4 384 -4 384 31 481 c 1,0,-1
EndSplineSet
Validated: 33
EndChar

StartChar: chi
Encoding: 967 967 290
Width: 527
Flags: W
LayerCount: 2
Fore
SplineSet
414 -180 m 1,0,-1
 234 104 l 1,1,-1
 67 -194 l 1,2,-1
 8 -154 l 1,3,-1
 186 148 l 1,4,-1
 -5 443 l 1,5,-1
 46 490 l 1,6,-1
 231 201 l 1,7,-1
 383 471 l 1,8,-1
 432 431 l 1,9,-1
 273 158 l 1,10,-1
 464 -130 l 1,11,-1
 414 -180 l 1,0,-1
EndSplineSet
Validated: 1
EndChar

StartChar: sigma1
Encoding: 962 962 291
Width: 484
Flags: W
LayerCount: 2
Fore
SplineSet
352 61 m 1024,0,-1
362 6 m 0,1,2
 337 -2 337 -2 305 -6 c 0,3,4
 262 -11 262 -11 218 0 c 0,5,6
 167 12 167 12 128 34 c 0,7,8
 85 57 85 57 55.5 99 c 128,-1,9
 26 141 26 141 14.5 199 c 128,-1,10
 3 257 3 257 30 338 c 1,11,12
 49 380 49 380 73.5 408.5 c 128,-1,13
 98 437 98 437 128.5 455 c 128,-1,14
 159 473 159 473 193 482 c 0,15,16
 235 492 235 492 261 494 c 0,17,18
 363 502 363 502 452 467 c 1,19,-1
 451 385 l 1,20,21
 362 423 362 423 271 417 c 0,22,23
 247 415 247 415 214 406 c 0,24,25
 186 398 186 398 161.5 382.5 c 128,-1,26
 137 367 137 367 114 340.5 c 128,-1,27
 91 314 91 314 82 276 c 0,28,29
 74 244 74 244 78 221 c 0,30,31
 81 201 81 201 88.5 174.5 c 128,-1,32
 96 148 96 148 122 119 c 0,33,34
 151 88 151 88 186 70 c 0,35,36
 226 52 226 52 272 50 c 0,37,38
 306 47 306 47 352 61 c 0,39,40
 431 85 431 85 461 12 c 0,41,42
 479 -34 479 -34 447 -91 c 0,43,44
 410 -158 410 -158 307 -172 c 1,45,-1
 294 -123 l 1,46,47
 319 -114 319 -114 344 -104 c 0,48,49
 370 -94 370 -94 392 -68 c 0,50,51
 407 -50 407 -50 408 -30 c 0,52,53
 410 20 410 20 362 6 c 0,1,2
EndSplineSet
Validated: 33
EndChar

StartChar: phi
Encoding: 966 966 292
Width: 596
Flags: W
LayerCount: 2
Fore
SplineSet
155 374 m 1,0,1
 111 328 111 328 108 264 c 0,2,3
 103 180 103 180 146 120 c 0,4,5
 167 90 167 90 201 70 c 0,6,7
 226.530897356 54.9818250844 226.530897356 54.9818250844 254.035318519 50.6770651141 c 1,8,-1
 266 494 l 1,9,10
 334 506 334 506 412 472 c 0,11,12
 442 458 442 458 480 426 c 128,-1,13
 518 394 518 394 540 350 c 0,14,15
 562 308 562 308 559 251 c 128,-1,16
 556 194 556 194 532.5 147 c 128,-1,17
 509 100 509 100 470 68 c 128,-1,18
 431 36 431 36 383 18 c 0,19,20
 345.00019988 3.75007495502 345.00019988 3.75007495502 308.253858796 0.781281231571 c 1,21,-1
 303 -212 l 1,22,-1
 247 -210 l 1,23,-1
 252.742810695 2.78624891636 l 1,24,25
 222.704066772 7.27590059105 222.704066772 7.27590059105 190 19 c 0,26,27
 137 38 137 38 98 72 c 0,28,29
 60 106 60 106 40 156 c 0,30,31
 19 204 19 204 25 257 c 128,-1,32
 31 310 31 310 56 356 c 0,33,34
 84 409 84 409 113 435 c 1,35,36
 134 404 134 404 155 374 c 1,0,1
309.483917323 50.5986515892 m 1,37,38
 323.127298236 52.3757660786 323.127298236 52.3757660786 334 56 c 0,39,40
 359 64 359 64 383 78 c 128,-1,41
 407 92 407 92 424 112 c 0,42,43
 442 132 442 132 453 155 c 128,-1,44
 464 178 464 178 468 201 c 128,-1,45
 472 224 472 224 474 254 c 0,46,47
 475 282 475 282 465 316 c 128,-1,48
 455 350 455 350 432 376 c 0,49,50
 383 435 383 435 319 436 c 1,51,-1
 309.483917323 50.5986515892 l 1,37,38
EndSplineSet
Validated: 33
EndChar

StartChar: uni03A9
Encoding: 937 937 293
Width: 876
Flags: W
LayerCount: 2
Fore
SplineSet
318 56 m 1,0,1
 318 56 318 56 320 0 c 1,2,-1
 0 7 l 1,3,-1
 2 76 l 1,4,-1
 154 73 l 1,5,6
 80 129 80 129 48 220 c 0,7,8
 29 272 29 272 34 347.5 c 128,-1,9
 39 423 39 423 63 478 c 0,10,11
 108 582 108 582 200 640 c 0,12,13
 311 709 311 709 441 707 c 0,14,15
 525 705 525 705 594 682 c 0,16,17
 637 667 637 667 675.5 642.5 c 128,-1,18
 714 618 714 618 749 579 c 128,-1,19
 784 540 784 540 807.5 481 c 128,-1,20
 831 422 831 422 830 352 c 0,21,22
 829 252 829 252 787 179 c 256,23,24
 745 106 745 106 677 61 c 1,25,-1
 853 64 l 1,26,-1
 849 -19 l 1,27,-1
 545 -16 l 1,28,29
 545 21 545 21 545 58 c 1,30,31
 600 75 600 75 641.5 111.5 c 128,-1,32
 683 148 683 148 716.5 218 c 128,-1,33
 750 288 750 288 745 384 c 0,34,35
 742 437 742 437 721 485.5 c 128,-1,36
 700 534 700 534 678.5 561.5 c 128,-1,37
 657 589 657 589 625.5 609.5 c 128,-1,38
 594 630 594 630 564 642 c 128,-1,39
 534 654 534 654 469 661 c 1,40,41
 317 668 317 668 226 579 c 0,42,43
 175 530 175 530 149.5 457.5 c 128,-1,44
 124 385 124 385 126 312 c 128,-1,45
 128 239 128 239 156 188 c 128,-1,46
 184 137 184 137 222 106 c 256,47,48
 260 75 260 75 318 56 c 1,0,1
EndSplineSet
Validated: 33
EndChar

StartChar: Psi
Encoding: 936 936 294
Width: 763
Flags: W
LayerCount: 2
Fore
SplineSet
302 700 m 1,0,-1
 383 699 l 1,1,-1
 357 215 l 1,2,3
 407 221 407 221 443 238 c 0,4,5
 501 266 501 266 529.5 339 c 128,-1,6
 558 412 558 412 562 537 c 0,7,8
 564 604 564 604 561 690 c 1,9,10
 561 690 561 690 655 690 c 1,11,12
 654 547 654 547 649 482.5 c 128,-1,13
 644 418 644 418 625 356 c 0,14,15
 570 178 570 178 355 162 c 1,16,-1
 346 0 l 1,17,-1
 281 1 l 1,18,-1
 286 161 l 1,19,20
 153 163 153 163 85 284 c 0,21,22
 32 378 32 378 19 564 c 0,23,24
 16 607 16 607 14 695 c 1,25,26
 47 696 47 696 79 697 c 1,27,28
 85 335 85 335 207 240 c 0,29,30
 240 214 240 214 287 212 c 1,31,-1
 302 700 l 1,0,-1
EndSplineSet
Validated: 33
EndChar

StartChar: psi
Encoding: 968 968 295
Width: 550
Flags: W
LayerCount: 2
Fore
SplineSet
31 481 m 1,0,-1
 113 480 l 1,1,2
 60 341 60 341 92 219 c 0,3,4
 108 157 108 157 158 109 c 0,5,6
 186 82 186 82 221 74 c 1,7,-1
 231 453 l 1,8,-1
 292 450 l 1,9,-1
 285 71 l 1,10,11
 302 75 302 75 326 82 c 0,12,13
 350 90 350 90 379 119 c 0,14,15
 448 188 448 188 448 286 c 0,16,17
 449 358 449 358 416 467 c 1,18,19
 478 472 478 472 479 470 c 0,20,21
 501 416 501 416 504 345 c 0,22,23
 511 218 511 218 464 125 c 0,24,25
 417 29 417 29 299 0 c 0,26,27
 291 -2 291 -2 284 -3 c 1,28,-1
 280 -213 l 1,29,-1
 214 -205 l 1,30,-1
 219 0 l 1,31,32
 183 6 183 6 160 17 c 0,33,34
 45 71 45 71 16 196 c 0,35,36
 -17 347 -17 347 31 481 c 1,0,-1
EndSplineSet
Validated: 33
EndChar

StartChar: omega
Encoding: 969 969 296
Width: 731
Flags: W
LayerCount: 2
Fore
SplineSet
346 143 m 1,0,1
 337 111 337 111 309 73 c 0,2,3
 257 2 257 2 192 -1 c 0,4,5
 154 -3 154 -3 124 15 c 0,6,7
 72 47 72 47 51 121 c 0,8,9
 37 170 37 170 33 232 c 0,10,11
 27 344 27 344 48 456 c 1,12,-1
 100 445 l 1,13,14
 80 311 80 311 85 237 c 0,15,16
 91 145 91 145 113 116 c 0,17,18
 148 72 148 72 192 72 c 0,19,20
 217 73 217 73 233 82 c 0,21,22
 307 124 307 124 299 355 c 1,23,-1
 386 358 l 1,24,-1
 383 301 l 1,25,26
 381 140 381 140 464 94 c 0,27,28
 492 79 492 79 523 80 c 128,-1,29
 554 81 554 81 574 100 c 0,30,31
 614 139 614 139 605 235 c 0,32,33
 596 326 596 326 557 453 c 1,34,-1
 620 471 l 1,35,36
 638 421 638 421 655 329 c 0,37,38
 687 155 687 155 637 64 c 0,39,40
 606 7 606 7 531 4 c 0,41,42
 435 -1 435 -1 374 86 c 0,43,44
 353 115 353 115 346 143 c 1,0,1
EndSplineSet
Validated: 33
EndChar

StartChar: zeta
Encoding: 950 950 297
Width: 484
Flags: W
LayerCount: 2
Fore
SplineSet
395 654 m 1,0,1
 186 451 186 451 165 426 c 0,2,3
 116 367 116 367 91 307 c 0,4,5
 67 252 67 252 88 174 c 0,6,7
 96 148 96 148 122 119 c 0,8,9
 179 57 179 57 262 50 c 0,10,11
 306 47 306 47 352 61 c 0,12,13
 432 85 432 85 461 12 c 0,14,15
 479 -34 479 -34 447 -91 c 0,16,17
 412 -155 412 -155 320 -168 c 1,18,-1
 306 -133 l 1,19,20
 331 -124 331 -124 356 -114 c 0,21,22
 382 -104 382 -104 404 -78 c 0,23,24
 419 -60 419 -60 420 -40 c 0,25,26
 423 24 423 24 362 6 c 0,27,28
 285 -16 285 -16 214 0 c 0,29,30
 167 12 167 12 128 34 c 0,31,32
 31 86 31 86 17 210 c 0,33,34
 8 285 8 285 38 350 c 0,35,36
 71 421 71 421 154 507 c 0,37,38
 237 592 237 592 306 643 c 1,39,-1
 5 627 l 1,40,-1
 6 692 l 1,41,-1
 394 694 l 1,42,-1
 395 654 l 1,0,1
352 61 m 1024,43,-1
EndSplineSet
Validated: 33
EndChar

StartChar: xi
Encoding: 958 958 298
Width: 464
Flags: W
LayerCount: 2
Fore
SplineSet
307 47 m 1024,0,-1
213 -24 m 0,1,2
 147 -19 147 -19 98 12 c 0,3,4
 68 31 68 31 45 72 c 128,-1,5
 22 113 22 113 18 148 c 0,6,7
 4 265 4 265 38 326 c 0,8,9
 76 395 76 395 157 411 c 1,10,11
 113 418 113 418 72 470 c 0,12,13
 54 494 54 494 49 541 c 0,14,15
 44 587 44 587 67 618 c 128,-1,16
 90 649 90 649 127 664 c 0,17,18
 196 693 196 693 272 672 c 0,19,20
 274 672 274 672 367 632 c 5,21,-1
 349 592 l 1,22,23
 285 629 285 629 208 628 c 0,24,25
 171 626 171 626 142 605 c 0,26,27
 114 585 114 585 111 566 c 0,28,29
 105 531 105 531 132 495 c 0,30,31
 158 461 158 461 195.5 450.5 c 128,-1,32
 233 440 233 440 335 440 c 1,33,-1
 335 376 l 1,34,-1
 285 377 l 1,35,36
 181 386 181 386 138.5 351.5 c 128,-1,37
 96 317 96 317 77 268 c 0,38,39
 57 220 57 220 71.5 160 c 128,-1,40
 86 100 86 100 148.5 57 c 128,-1,41
 211 14 211 14 307 47 c 0,42,43
 386 74 386 74 416 -2 c 0,44,45
 434 -48 434 -48 402 -105 c 0,46,47
 367 -169 367 -169 275 -182 c 1,48,-1
 261 -147 l 1,49,50
 286 -138 286 -138 311 -128 c 0,51,52
 337 -118 337 -118 359 -92 c 0,53,54
 374 -74 374 -74 375 -54 c 0,55,56
 378 10 378 10 316 -8 c 128,-1,57
 254 -26 254 -26 213 -24 c 0,1,2
EndSplineSet
Validated: 33
EndChar

StartChar: iotadieresistonos
Encoding: 912 912 312
Width: 239
Flags: W
LayerCount: 2
Fore
SplineSet
159 450 m 1,0,-1
 150 0 l 1,1,-1
 43 1 l 1,2,-1
 59 449 l 1,3,-1
 159 450 l 1,0,-1
EndSplineSet
Refer: 314 901 N 0.833374 0 0 0.830566 46 55 2
Validated: 1
EndChar

StartChar: currency
Encoding: 164 164 317
Width: 358
Flags: W
LayerCount: 2
Fore
SplineSet
329 337 m 0,0,1
 328 301 328 301 314.5 273 c 0,2,3
 305.934660772 255.234851971 305.934660772 255.234851971 293.746356798 241.092668688 c 1,4,-1
 338 200 l 1,5,-1
 313 173 l 1,6,-1
 269.045411867 218.552936792 l 1,7,8
 250.351124599 204.843156665 250.351124599 204.843156665 228.5 196.5 c 0,9,10
 201 186 201 186 177 186 c 0,11,12
 148 185 148 185 118 197 c 0,13,14
 101.872081072 203.451167571 101.872081072 203.451167571 88.0562489791 212.214421977 c 1,15,-1
 47 168 l 1,16,-1
 20 193 l 1,17,-1
 61.6251088766 233.164578741 l 1,18,19
 42.8280623549 251.904367208 42.8280623549 251.904367208 32.5 277.5 c 0,20,21
 21 306 21 306 24 339 c 0,22,23
 27 371 27 371 41 397 c 0,24,25
 47.9084484288 409.829975654 47.9084484288 409.829975654 56.8866754669 420.590172698 c 1,26,-1
 15 464 l 1,27,-1
 39 486 l 1,28,-1
 83.3282297587 444.838072367 l 1,29,30
 103.688216188 459.33538862 103.688216188 459.33538862 129 468.5 c 0,31,32
 158 479 158 479 186 478 c 0,33,34
 208 478 208 478 236 467.5 c 0,35,36
 253.967454431 460.762204588 253.967454431 460.762204588 269.052503338 450.524345326 c 1,37,-1
 311 491 l 1,38,-1
 333 467 l 1,39,-1
 295.909261284 427.056127536 l 1,40,41
 309.438194511 411.986083198 309.438194511 411.986083198 318.5 393.5 c 0,42,43
 331 368 331 368 329 337 c 0,0,1
171 215 m 0,44,45
 187 214 187 214 201 218.5 c 128,-1,46
 215 223 215 223 228.5 232 c 128,-1,47
 242 241 242 241 252 252.5 c 128,-1,48
 262 264 262 264 268.5 277.5 c 128,-1,49
 275 291 275 291 277.5 305 c 128,-1,50
 280 319 280 319 280 333 c 0,51,52
 281 353 281 353 275.5 373 c 128,-1,53
 270 393 270 393 257 409 c 128,-1,54
 244 425 244 425 223.5 435 c 128,-1,55
 203 445 203 445 183 446 c 0,56,57
 169 447 169 447 149 441 c 128,-1,58
 129 435 129 435 112 421.5 c 128,-1,59
 95 408 95 408 83 387 c 128,-1,60
 71 366 71 366 71 337 c 0,61,62
 69 317 69 317 74.5 296 c 128,-1,63
 80 275 80 275 92.5 257 c 128,-1,64
 105 239 105 239 124.5 227.5 c 128,-1,65
 144 216 144 216 171 215 c 0,44,45
EndSplineSet
Validated: 33
EndChar

StartChar: brokenbar
Encoding: 166 166 318
Width: 151
Flags: W
LayerCount: 2
Fore
SplineSet
91 342 m 1,0,-1
 91 30 l 1,1,-1
 37 35 l 1,2,-1
 42 348 l 1,3,-1
 91 342 l 1,0,-1
42 400 m 1,4,-1
 46 669 l 1,5,-1
 91 672 l 1,6,-1
 91 402 l 1,7,-1
 42 400 l 1,4,-1
EndSplineSet
Validated: 1
EndChar

StartChar: section
Encoding: 167 167 319
Width: 431
Flags: W
LayerCount: 2
Fore
SplineSet
345 631 m 1,0,1
 254 646 l 0,2,3
 129 669 129 669 102 618 c 0,4,5
 79 574 79 574 88 526 c 0,6,7
 103 447 103 447 224 425 c 0,8,9
 345 404 345 404 377 312 c 0,10,11
 402 240 402 240 387 179 c 0,12,13
 375 132 375 132 350.91294881 86.9430106738 c 1,14,15
 368 66 368 66 364 16 c 0,16,17
 361 -22 361 -22 341 -56 c 0,18,19
 301 -127 301 -127 199 -132 c 0,20,21
 157 -134 157 -134 124 -126 c 0,22,23
 74 -114 74 -114 37 -54 c 1,24,-1
 71 -21 l 5,25,26
 106 -63 106 -63 161 -78 c 4,27,28
 202.912439424 -88.089095312 202.912439424 -88.089095312 240 -68 c 0,29,30
 269 -52 269 -52 287 0 c 0,31,32
 301 40 301 40 252 52 c 0,33,34
 200 64 200 64 163 78 c 0,35,36
 99 104 99 104 72 137 c 0,37,38
 47 166 47 166 25 208 c 0,39,40
 -20 295 -20 295 51.7583775528 449.235327279 c 1,41,42
 39 466 39 466 29 486 c 0,43,44
 17 510 17 510 8 556 c 128,-1,45
 -1 602 -1 602 17 645 c 128,-1,46
 35 688 35 688 65 704 c 128,-1,47
 95 720 95 720 136 726 c 0,48,49
 176 732 176 732 220 730 c 0,50,51
 278 727 278 727 302 724 c 0,52,53
 363 715 363 715 362 712 c 2,54,-1
 345 631 l 1,0,1
293.006487912 104.467303142 m 1,55,56
 300.826611914 121.527123401 300.826611914 121.527123401 312 152 c 0,57,58
 335 210 335 210 323 294 c 0,59,60
 313 367 313 367 162 384 c 0,61,62
 134.38207397 387.211386748 134.38207397 387.211386748 110.786219828 398.879437467 c 1,63,64
 79.8977907919 327.114186863 79.8977907919 327.114186863 77 302 c 0,65,66
 70 242 70 242 107 188 c 128,-1,67
 144 134 144 134 206 120 c 128,-1,68
 268 106 268 106 276 106 c 0,69,70
 284.429832717 105.233651571 284.429832717 105.233651571 293.006487912 104.467303142 c 1,55,56
EndSplineSet
EndChar

StartChar: ordfeminine
Encoding: 170 170 320
Width: 140
Flags: W
LayerCount: 2
Fore
SplineSet
4 621 m 1,0,-1
 136 622 l 1,1,-1
 137 600 l 1,2,-1
 5 599 l 1,3,-1
 4 621 l 1,0,-1
63 643 m 0,4,5
 76 642 76 642 85.5 646.5 c 128,-1,6
 95 651 95 651 101 658 c 128,-1,7
 107 665 107 665 109 673.5 c 128,-1,8
 111 682 111 682 111 690 c 0,9,10
 112 699 112 699 110 707 c 128,-1,11
 108 715 108 715 103 722 c 128,-1,12
 98 729 98 729 89.5 733 c 128,-1,13
 81 737 81 737 70 737 c 0,14,15
 63 738 63 738 55 735.5 c 128,-1,16
 47 733 47 733 40 727.5 c 128,-1,17
 33 722 33 722 28.5 713.5 c 128,-1,18
 24 705 24 705 23 693 c 0,19,20
 23 688 23 688 23.5 682.5 c 128,-1,21
 24 677 24 677 26 671.5 c 128,-1,22
 28 666 28 666 31 661 c 128,-1,23
 34 656 34 656 38.5 652 c 128,-1,24
 43 648 43 648 49 645.5 c 128,-1,25
 55 643 55 643 63 643 c 0,4,5
134 746 m 1,26,-1
 133 630 l 1,27,-1
 112 631 l 1,28,-1
 113 649 l 1,29,30
 104 640 104 640 92 635.5 c 128,-1,31
 80 631 80 631 67 631 c 0,32,33
 52 631 52 631 40.5 635.5 c 128,-1,34
 29 640 29 640 20 648.5 c 128,-1,35
 11 657 11 657 7 669 c 128,-1,36
 3 681 3 681 4 695 c 0,37,38
 5 708 5 708 11 718.5 c 128,-1,39
 17 729 17 729 26.5 736 c 128,-1,40
 36 743 36 743 47.5 746.5 c 128,-1,41
 59 750 59 750 72 750 c 0,42,43
 84 750 84 750 95 745.5 c 128,-1,44
 106 741 106 741 113 733 c 1,45,-1
 114 746 l 1,46,-1
 134 746 l 1,26,-1
EndSplineSet
Validated: 1
EndChar

StartChar: plusminus
Encoding: 177 177 324
Width: 296
Flags: W
LayerCount: 2
Fore
SplineSet
22 196 m 1,0,-1
 255 200 l 1,1,-1
 250 151 l 1,2,-1
 26 159 l 1,3,-1
 22 196 l 1,0,-1
254 309 m 1,4,-1
 155 311 l 1,5,-1
 152 219 l 1,6,-1
 121 219 l 1,7,-1
 117 311 l 1,8,-1
 0 311 l 1,9,-1
 6 348 l 1,10,-1
 117 348 l 1,11,-1
 115 462 l 1,12,-1
 157 462 l 1,13,-1
 155 348 l 1,14,-1
 256 349 l 1,15,-1
 254 309 l 1,4,-1
EndSplineSet
Validated: 1
EndChar

StartChar: paragraph
Encoding: 182 182 327
Width: 560
Flags: W
LayerCount: 2
Fore
SplineSet
538 697 m 1,0,-1
 538 626 l 1,1,-1
 471.807619048 629.73968254 l 1,2,-1
 460 0 l 1,3,-1
 405 0 l 1,4,-1
 416.847328244 632.844783715 l 1,5,-1
 361 636 l 1,6,-1
 344 0 l 1,7,-1
 279 0 l 1,8,-1
 278 283 l 1,9,10
 261 284 261 284 237 286 c 128,-1,11
 213 288 213 288 187 296 c 0,12,13
 157 304 157 304 125 318 c 0,14,15
 89 336 89 336 67 360 c 0,16,17
 40 391 40 391 24 428 c 0,18,19
 6 471 6 471 9 528 c 0,20,21
 12 578 12 578 32 612 c 0,22,23
 51 646 51 646 81 664 c 0,24,25
 111 684 111 684 147 691 c 0,26,27
 188 699 188 699 226 700 c 0,28,29
 304 701 304 701 363 700 c 2,30,-1
 538 697 l 1,0,-1
EndSplineSet
Validated: 33
EndChar

StartChar: ordmasculine
Encoding: 186 186 330
Width: 140
Flags: W
LayerCount: 2
Fore
SplineSet
4 621 m 1,0,-1
 136 622 l 1,1,-1
 137 600 l 1,2,-1
 5 599 l 1,3,-1
 4 621 l 1,0,-1
68 734 m 0,4,5
 60 734 60 734 52 731 c 128,-1,6
 44 728 44 728 38.5 723 c 128,-1,7
 33 718 33 718 30 711.5 c 128,-1,8
 27 705 27 705 26 694 c 0,9,10
 26 683 26 683 29.5 673 c 128,-1,11
 33 663 33 663 39.5 656 c 128,-1,12
 46 649 46 649 53.5 646.5 c 128,-1,13
 61 644 61 644 73 644 c 0,14,15
 83 645 83 645 87.5 647 c 128,-1,16
 92 649 92 649 96 652 c 128,-1,17
 100 655 100 655 103.5 659.5 c 128,-1,18
 107 664 107 664 109.5 670 c 128,-1,19
 112 676 112 676 113 683 c 0,20,21
 114 699 114 699 109.5 708.5 c 128,-1,22
 105 718 105 718 99 723.5 c 128,-1,23
 93 729 93 729 87 731.5 c 128,-1,24
 81 734 81 734 68 734 c 0,4,5
71 631 m 0,25,26
 65 631 65 631 58.5 632 c 128,-1,27
 52 633 52 633 45 635.5 c 128,-1,28
 38 638 38 638 31.5 642.5 c 128,-1,29
 25 647 25 647 19 653.5 c 128,-1,30
 13 660 13 660 8.5 669 c 128,-1,31
 4 678 4 678 4 690 c 0,32,33
 4 703 4 703 6.5 711 c 128,-1,34
 9 719 9 719 14.5 725.5 c 128,-1,35
 20 732 20 732 26.5 737 c 128,-1,36
 33 742 33 742 40.5 745 c 128,-1,37
 48 748 48 748 55 749 c 128,-1,38
 62 750 62 750 72 750 c 0,39,40
 83 749 83 749 93 745.5 c 128,-1,41
 103 742 103 742 112 735 c 128,-1,42
 121 728 121 728 127.5 717 c 128,-1,43
 134 706 134 706 134 690 c 0,44,45
 134 677 134 677 130.5 668 c 128,-1,46
 127 659 127 659 121.5 652.5 c 128,-1,47
 116 646 116 646 109.5 642 c 128,-1,48
 103 638 103 638 96.5 635.5 c 128,-1,49
 90 633 90 633 82.5 632 c 128,-1,50
 75 631 75 631 71 631 c 0,25,26
EndSplineSet
Validated: 1
EndChar

StartChar: onequarter
Encoding: 188 188 331
Width: 502
Flags: W
LayerCount: 2
Fore
SplineSet
423 713 m 1,0,-1
 476 685 l 1,1,-1
 35 43 l 1,2,-1
 0 75 l 1,3,-1
 423 713 l 1,0,-1
296 147 m 1,4,-1
 379 151 l 1,5,-1
 378 265 l 1,6,-1
 296 147 l 1,4,-1
422 118 m 1,7,-1
 426 29 l 1,8,-1
 384 25 l 1,9,-1
 381 118 l 1,10,-1
 242 117 l 1,11,-1
 393 323 l 1,12,-1
 413 324 l 1,13,-1
 421 152 l 1,14,-1
 476 156 l 1,15,-1
 476 118 l 1,16,-1
 423 119 l 1,17,-1
 422 118 l 1,7,-1
16 407 m 1,18,-1
 25 698 l 1,19,-1
 52 699 l 1,20,-1
 61 407 l 1,21,-1
 16 407 l 1,18,-1
EndSplineSet
Validated: 1
EndChar

StartChar: onehalf
Encoding: 189 189 332
Width: 501
Flags: W
LayerCount: 2
Fore
SplineSet
423 713 m 1,0,-1
 476 685 l 1,1,-1
 35 43 l 1,2,-1
 0 75 l 1,3,-1
 423 713 l 1,0,-1
248 297 m 1,4,5
 258 303 258 303 277 309.5 c 128,-1,6
 296 316 296 316 318 320 c 128,-1,7
 340 324 340 324 364 324 c 128,-1,8
 388 324 388 324 408.5 317.5 c 128,-1,9
 429 311 429 311 444 297.5 c 128,-1,10
 459 284 459 284 464 260 c 0,11,12
 468 242 468 242 465 224 c 128,-1,13
 462 206 462 206 455 188.5 c 128,-1,14
 448 171 448 171 437 154.5 c 128,-1,15
 426 138 426 138 414 123 c 0,16,17
 386 89 386 89 348 57 c 1,18,-1
 475 61 l 1,19,-1
 476 32 l 1,20,21
 422 31 422 31 380 31 c 0,22,23
 362 31 362 31 345 31 c 128,-1,24
 328 31 328 31 315 31 c 128,-1,25
 302 31 302 31 293 32 c 2,26,-1
 285 32 l 1,27,28
 302 45 302 45 318.5 62.5 c 128,-1,29
 335 80 335 80 349.5 98 c 128,-1,30
 364 116 364 116 392 154 c 0,31,32
 399 164 399 164 405.5 176.5 c 128,-1,33
 412 189 412 189 416 203 c 128,-1,34
 420 217 420 217 420 231.5 c 128,-1,35
 420 246 420 246 414 257.5 c 128,-1,36
 408 269 408 269 396 277 c 128,-1,37
 384 285 384 285 364 287 c 0,38,39
 342 290 342 290 326 287 c 128,-1,40
 310 284 310 284 298.5 278 c 128,-1,41
 287 272 287 272 279.5 266 c 128,-1,42
 272 260 272 260 268 258 c 1,43,44
 268 258 268 258 248 297 c 1,4,5
16 407 m 1,45,-1
 25 698 l 1,46,-1
 52 699 l 1,47,-1
 61 407 l 1,48,-1
 16 407 l 1,45,-1
EndSplineSet
Validated: 33
EndChar

StartChar: threequarters
Encoding: 190 190 333
Width: 502
Flags: W
LayerCount: 2
Fore
SplineSet
423 713 m 1,0,-1
 476 685 l 1,1,-1
 35 43 l 1,2,-1
 0 75 l 1,3,-1
 423 713 l 1,0,-1
296 147 m 1,4,-1
 379 151 l 1,5,-1
 378 265 l 1,6,-1
 296 147 l 1,4,-1
422 118 m 1,7,-1
 426 29 l 1,8,-1
 384 25 l 1,9,-1
 381 118 l 1,10,-1
 242 117 l 1,11,-1
 393 323 l 1,12,-1
 413 324 l 1,13,-1
 421 152 l 1,14,-1
 476 156 l 1,15,-1
 476 118 l 1,16,-1
 423 119 l 1,17,-1
 422 118 l 1,7,-1
0 687 m 1,18,19
 22 695 22 695 45.5 698 c 128,-1,20
 69 701 69 701 92 700.5 c 128,-1,21
 115 700 115 700 136.5 695.5 c 128,-1,22
 158 691 158 691 174 683.5 c 128,-1,23
 190 676 190 676 199.5 665.5 c 128,-1,24
 209 655 209 655 209 641 c 0,25,26
 210 624 210 624 204.5 611.5 c 128,-1,27
 199 599 199 599 190.5 589.5 c 128,-1,28
 182 580 182 580 172 573.5 c 128,-1,29
 162 567 162 567 153 563 c 128,-1,30
 144 559 144 559 138.5 557 c 128,-1,31
 133 555 133 555 133 555 c 257,32,33
 133 555 133 555 142 551.5 c 128,-1,34
 151 548 151 548 162.5 540 c 128,-1,35
 174 532 174 532 184 518.5 c 128,-1,36
 194 505 194 505 196 486 c 0,37,38
 196 469 196 469 188.5 456.5 c 128,-1,39
 181 444 181 444 168.5 436 c 128,-1,40
 156 428 156 428 140 423 c 128,-1,41
 124 418 124 418 107 416 c 0,42,43
 68 410 68 410 18 414 c 1,44,-1
 18 438 l 1,45,46
 54 434 54 434 81 438 c 0,47,48
 93 439 93 439 104.5 442.5 c 128,-1,49
 116 446 116 446 124.5 451.5 c 128,-1,50
 133 457 133 457 138.5 466 c 128,-1,51
 144 475 144 475 144 488 c 0,52,53
 144 498 144 498 140 506 c 128,-1,54
 136 514 136 514 129.5 519.5 c 128,-1,55
 123 525 123 525 114.5 528 c 128,-1,56
 106 531 106 531 97 533 c 0,57,58
 77 537 77 537 51 535 c 1,59,60
 50 563 50 563 51 563 c 1,61,62
 51 564 51 564 59 564 c 128,-1,63
 67 564 67 564 79 565 c 128,-1,64
 91 566 91 566 105 570 c 128,-1,65
 119 574 119 574 130.5 581 c 128,-1,66
 142 588 142 588 149.5 600.5 c 128,-1,67
 157 613 157 613 157 631 c 0,68,69
 157 650 157 650 147 659.5 c 128,-1,70
 137 669 137 669 121.5 672.5 c 128,-1,71
 106 676 106 676 88 674.5 c 128,-1,72
 70 673 70 673 54 668.5 c 128,-1,73
 38 664 38 664 10 648 c 1,74,75
 10 651 10 651 0 687 c 1,18,19
EndSplineSet
Validated: 33
EndChar

StartChar: breve
Encoding: 728 728 358
Width: 320
Flags: W
LayerCount: 2
Fore
SplineSet
320 742 m 1,0,1
 298 705 298 705 273 675 c 0,2,3
 250 650 250 650 221 629 c 128,-1,4
 192 608 192 608 153 608 c 0,5,6
 106 608 106 608 76.5 629 c 128,-1,7
 47 650 47 650 31 675 c 0,8,9
 11 705 11 705 0 742 c 1,10,-1
 45 747 l 1,11,12
 53 722 53 722 67 700 c 0,13,14
 81 680 81 680 99 662 c 128,-1,15
 117 644 117 644 147 639 c 0,16,17
 175 633 175 633 199 651 c 128,-1,18
 223 669 223 669 237 691 c 0,19,20
 253 717 253 717 267 750 c 1,21,-1
 320 742 l 1,0,1
EndSplineSet
Validated: 33
EndChar

StartChar: dotaccent
Encoding: 729 729 359
Width: 87
Flags: W
LayerCount: 2
Fore
SplineSet
0 707 m 0,0,1
 0 716 0 716 3.5 723.5 c 128,-1,2
 7 731 7 731 13 737 c 128,-1,3
 19 743 19 743 27 746.5 c 128,-1,4
 35 750 35 750 43 750 c 0,5,6
 52 750 52 750 60 746.5 c 128,-1,7
 68 743 68 743 74 737 c 128,-1,8
 80 731 80 731 83.5 723.5 c 128,-1,9
 87 716 87 716 87 707 c 0,10,11
 87 689 87 689 74 676.5 c 128,-1,12
 61 664 61 664 43 664 c 0,13,14
 26 664 26 664 13 676.5 c 128,-1,15
 0 689 0 689 0 707 c 0,0,1
EndSplineSet
Validated: 1
EndChar

StartChar: ogonek
Encoding: 731 731 360
Width: 90
Flags: W
LayerCount: 2
Fore
SplineSet
40 4 m 1,0,1
 25 -14 25 -14 24 -29 c 0,2,3
 24 -48 24 -48 29.5 -62.5 c 128,-1,4
 35 -77 35 -77 46 -84 c 0,5,6
 56 -92 56 -92 66 -94 c 0,7,8
 81 -97 81 -97 89 -94 c 1,9,-1
 89 -138 l 2,10,11
 89 -139 89 -139 81 -140 c 0,12,13
 72 -140 72 -140 56 -136 c 0,14,15
 37 -130 37 -130 22 -115 c 0,16,17
 7 -99 7 -99 3 -78 c 0,18,19
 -1 -58 -1 -58 1 -34 c 0,20,21
 3 -12 3 -12 6 0 c 1,22,-1
 40 4 l 1,0,1
EndSplineSet
Validated: 33
EndChar

StartChar: uni0404
Encoding: 1028 1028 362
Width: 617
Flags: W
LayerCount: 2
Fore
SplineSet
533 11 m 1,0,1
 406 -9 406 -9 297 7 c 0,2,3
 250 14 250 14 203.5 28 c 128,-1,4
 157 42 157 42 116 69 c 128,-1,5
 75 96 75 96 42.5 136.5 c 128,-1,6
 10 177 10 177 -7 236 c 1,7,8
 -30 349 -30 349 -15.5 428.5 c 128,-1,9
 -1 508 -1 508 39.5 560 c 128,-1,10
 80 612 80 612 139.5 640.5 c 128,-1,11
 199 669 199 669 264.5 681.5 c 128,-1,12
 330 694 330 694 395 692.5 c 128,-1,13
 460 691 460 691 513 684 c 1,14,-1
 548 675 l 1,15,-1
 533 615 l 1,16,17
 383 623 383 623 309 610.5 c 128,-1,18
 235 598 235 598 186.5 578 c 128,-1,19
 138 558 138 558 109.5 528.5 c 128,-1,20
 81 499 81 499 64.5 463 c 128,-1,21
 48 427 48 427 50 371 c 1,22,-1
 433 380 l 1,23,-1
 428 316 l 1,24,-1
 53 314 l 1,25,26
 64 256 64 256 90.5 215.5 c 128,-1,27
 117 175 117 175 153 149 c 128,-1,28
 189 123 189 123 231.5 109.5 c 128,-1,29
 274 96 274 96 317 90 c 0,30,31
 416 77 416 77 537 99 c 1,32,-1
 533 11 l 1,0,1
EndSplineSet
Validated: 33
EndChar

StartChar: uni0454
Encoding: 1108 1108 364
Width: 472
Flags: W
LayerCount: 2
Fore
SplineSet
423 24 m 1,0,1
 344 -13 344 -13 245 -9 c 1,2,3
 163 -10 163 -10 122.5 11 c 128,-1,4
 82 32 82 32 48 71 c 128,-1,5
 14 110 14 110 1 170 c 1,6,7
 -8 239 -8 239 -1.5 287 c 128,-1,8
 5 335 5 335 31.5 378 c 128,-1,9
 58 421 58 421 88.5 446 c 128,-1,10
 119 471 119 471 160.5 482.5 c 128,-1,11
 202 494 202 494 268 493 c 128,-1,12
 334 492 334 492 429 438 c 1,13,-1
 405 375 l 1,14,15
 342 424 342 424 310.5 433.5 c 128,-1,16
 279 443 279 443 244.5 439.5 c 128,-1,17
 210 436 210 436 172.5 413.5 c 128,-1,18
 135 391 135 391 111 359.5 c 128,-1,19
 87 328 87 328 81 275 c 1,20,-1
 334 266 l 1,21,-1
 333 216 l 1,22,-1
 78 221 l 1,23,24
 81 165 81 165 94.5 141 c 128,-1,25
 108 117 108 117 130 95 c 128,-1,26
 152 73 152 73 175 60.5 c 128,-1,27
 198 48 198 48 253 46 c 0,28,29
 339 37 339 37 399 87 c 1,30,-1
 423 24 l 1,0,1
EndSplineSet
Validated: 33
EndChar

StartChar: uni0490
Encoding: 1168 1168 366
Width: 474
Flags: W
LayerCount: 2
Fore
SplineSet
397 616 m 1,0,-1
 352 626 l 1,1,-1
 373 765 l 1,2,-1
 423 766 l 1,3,-1
 397 616 l 1,0,-1
EndSplineSet
Refer: 196 1043 S 1 0 0 1 0 0 2
EndChar

StartChar: uni0491
Encoding: 1169 1169 367
Width: 391
Flags: W
LayerCount: 2
Fore
SplineSet
308 532 m 1,0,-1
 352 538 l 1,1,-1
 351 397 l 1,2,-1
 312 403 l 1,3,-1
 308 532 l 1,0,-1
EndSplineSet
Refer: 218 1075 S 1 0 0 1 0 0 2
EndChar

